<svg width="2394" height="1191" viewBox="0 0 2394 1191" fill="none" xmlns="http://www.w3.org/2000/svg">
<rect width="2394" height="1190.8" fill="white"/>
<g clip-path="url(#clip0_2112_83)">
<path d="M1638.33 305.106H1701.59V369.106H1638.33V305.106Z" fill="black" stroke="black" stroke-width="3.2" stroke-linecap="round" stroke-linejoin="round"/>
<path d="M556.307 257.747H1750.97V897.747H556.307V257.747Z" stroke="black" stroke-width="10.6667" stroke-linecap="round" stroke-linejoin="round"/>
<path d="M1633.75 301.267H1708.41V375.933H1633.75V301.267Z" fill="white" stroke="black" stroke-width="7.46667" stroke-linecap="round" stroke-linejoin="round"/>
<path d="M1685.37 315.24L1692.95 322.707L1655.29 360.467L1647.72 353L1685.37 315.24Z" fill="black"/>
<path d="M1655.29 315.24L1692.95 353L1685.48 360.467L1647.72 322.814L1655.29 315.24Z" fill="black"/>
<path d="M1433.53 748.84H1707.77V854.547H1433.53V748.84Z" stroke="black" stroke-width="8.64" stroke-linecap="round" stroke-linejoin="round"/>
<path d="M1110.23 748.84H1384.47V854.547H1110.23V748.84Z" fill="black" stroke="black" stroke-width="8.64" stroke-linecap="round" stroke-linejoin="round"/>
<path d="M1187.67 797.373C1187.67 795.524 1187.88 793.746 1188.31 792.04C1188.8 790.262 1189.52 788.698 1190.44 787.347C1191.29 785.924 1192.47 784.858 1193.96 784.147C1195.38 783.293 1197.16 782.867 1199.29 782.867C1201.43 782.867 1203.2 783.258 1204.63 784.04C1206.05 784.822 1207.22 785.924 1208.15 787.347C1209.07 788.698 1209.75 790.227 1210.17 791.933C1210.6 793.711 1210.81 795.524 1210.81 797.373C1210.81 799.151 1210.6 800.929 1210.17 802.706C1209.75 804.271 1209.07 805.729 1208.15 807.08C1207.29 808.502 1206.12 809.604 1204.63 810.386C1203.2 811.169 1201.43 811.56 1199.29 811.56C1197.16 811.56 1195.38 811.169 1193.96 810.386C1192.54 809.533 1191.33 808.466 1190.33 807.186C1189.48 805.764 1188.8 804.235 1188.31 802.6C1187.95 800.893 1187.77 799.151 1187.77 797.373H1187.67ZM1178.39 797.373C1178.39 800.502 1178.88 803.382 1179.88 806.013C1180.8 808.715 1182.16 811.062 1183.93 813.053C1185.71 814.973 1187.92 816.538 1190.55 817.747C1193.11 818.813 1196.02 819.347 1199.29 819.347C1202.56 819.347 1205.48 818.813 1208.04 817.747C1210.67 816.538 1212.88 814.973 1214.65 813.053C1216.43 811.062 1217.78 808.715 1218.71 806.013C1219.63 803.382 1220.09 800.538 1220.09 797.48C1220.09 794.28 1219.63 791.329 1218.71 788.627C1217.78 785.853 1216.43 783.471 1214.65 781.48C1212.88 779.418 1210.67 777.818 1208.04 776.68C1205.48 775.542 1202.56 774.973 1199.29 774.973C1196.02 774.973 1193.11 775.542 1190.55 776.68C1187.92 777.818 1185.71 779.418 1183.93 781.48C1182.16 783.471 1180.8 785.853 1179.88 788.627C1178.88 791.329 1178.39 794.244 1178.39 797.373ZM1226.17 775.933V818.386H1234.71V807.933L1237.91 804.733L1246.44 818.6H1256.57L1243.77 799.08L1255.29 787.773H1245.27L1234.6 798.867V775.933H1226.17ZM1259.13 797.16C1259.28 795.169 1259.81 793.533 1260.73 792.253C1261.59 790.902 1262.65 789.835 1263.93 789.053C1265.36 788.271 1266.88 787.738 1268.52 787.453C1270.23 787.098 1271.93 786.92 1273.64 786.92C1275.2 786.92 1276.77 787.026 1278.33 787.24C1279.9 787.453 1281.32 787.88 1282.6 788.52C1283.95 789.089 1285.02 789.978 1285.8 791.186C1286.65 792.253 1287.08 793.711 1287.08 795.56V811.56C1287.08 812.982 1287.19 814.298 1287.4 815.506C1287.54 816.786 1287.79 817.746 1288.15 818.386H1279.61L1279.19 817L1279.08 815.4C1277.66 816.822 1276.06 817.818 1274.28 818.386C1272.43 818.884 1270.58 819.133 1268.73 819.133C1267.31 819.133 1265.92 818.955 1264.57 818.6C1263.29 818.244 1262.23 817.711 1261.37 817C1260.38 816.289 1259.6 815.329 1259.03 814.12C1258.53 812.982 1258.28 811.631 1258.28 810.067C1258.28 808.289 1258.56 806.867 1259.13 805.8C1259.77 804.591 1260.56 803.667 1261.48 803.027C1262.48 802.315 1263.61 801.818 1264.89 801.533C1266.1 801.178 1267.35 800.893 1268.63 800.68L1272.36 800.253L1275.56 799.72C1276.56 799.435 1277.34 799.08 1277.91 798.653C1278.48 798.226 1278.72 797.551 1278.65 796.627C1278.65 795.773 1278.51 795.062 1278.23 794.493C1277.94 793.995 1277.55 793.604 1277.05 793.32C1276.56 792.964 1275.99 792.751 1275.35 792.68L1273.21 792.467C1271.58 792.467 1270.26 792.822 1269.27 793.533C1268.34 794.244 1267.81 795.453 1267.67 797.16H1259.13ZM1278.65 803.347C1278.3 803.702 1277.84 803.987 1277.27 804.2L1275.56 804.52L1273.64 804.84L1271.72 805.16L1269.8 805.586C1269.16 805.8 1268.63 806.084 1268.2 806.44C1267.77 806.795 1267.42 807.222 1267.13 807.72C1266.85 808.218 1266.71 808.858 1266.71 809.64C1266.71 810.351 1266.85 810.991 1267.13 811.56C1267.42 812.058 1267.77 812.484 1268.2 812.84C1268.7 813.124 1269.27 813.302 1269.91 813.373L1271.83 813.586C1273.53 813.586 1274.81 813.302 1275.67 812.733C1276.59 812.235 1277.3 811.595 1277.8 810.813C1278.16 810.031 1278.4 809.249 1278.55 808.467L1278.65 806.547V803.347ZM1308.73 822.227L1321.53 787.667H1312.79L1306.07 808.68L1299.03 787.667H1290.07L1300.73 816.467C1301.02 817.107 1301.16 817.746 1301.16 818.386C1301.16 819.311 1300.88 820.164 1300.31 820.947C1299.81 821.658 1298.99 822.084 1297.85 822.227H1295.4L1292.95 821.906V828.84L1295.51 829.053L1298.17 829.16C1301.02 829.16 1303.26 828.627 1304.89 827.56C1306.53 826.493 1307.81 824.715 1308.73 822.227Z" fill="white"/>
<path d="M1505.96 792.36H1514.92C1514.71 789.942 1514.07 787.809 1513 785.96C1511.86 783.969 1510.48 782.369 1508.84 781.16C1507.2 779.809 1505.36 778.813 1503.29 778.173C1501.16 777.462 1498.96 777.106 1496.68 777.106C1493.41 777.106 1490.46 777.675 1487.83 778.813C1485.27 780.022 1483.13 781.622 1481.43 783.613C1479.58 785.604 1478.16 787.986 1477.16 790.76C1476.24 793.462 1475.77 796.378 1475.77 799.506C1475.77 802.635 1476.27 805.551 1477.27 808.253C1478.19 810.884 1479.54 813.195 1481.32 815.186C1483.1 817.178 1485.27 818.742 1487.83 819.88C1490.46 820.946 1493.41 821.48 1496.68 821.48C1499.31 821.48 1501.69 821.124 1503.83 820.413C1505.96 819.56 1507.88 818.386 1509.59 816.893C1511.22 815.4 1512.54 813.586 1513.53 811.453C1514.46 809.32 1515.06 806.902 1515.35 804.2H1506.28C1505.92 807.044 1504.93 809.355 1503.29 811.133C1501.73 812.84 1499.52 813.693 1496.68 813.693C1494.55 813.693 1492.77 813.338 1491.35 812.626C1489.92 811.773 1488.72 810.671 1487.72 809.32C1486.87 807.898 1486.19 806.369 1485.69 804.733C1485.34 803.026 1485.16 801.284 1485.16 799.506C1485.16 797.658 1485.34 795.88 1485.69 794.173C1486.19 792.395 1486.9 790.831 1487.83 789.48C1488.68 788.058 1489.85 786.991 1491.35 786.28C1492.77 785.426 1494.55 785 1496.68 785C1497.82 785 1498.88 785.178 1499.88 785.533C1501.02 785.889 1501.98 786.422 1502.76 787.133C1503.61 787.844 1504.32 788.626 1504.89 789.48C1505.46 790.333 1505.82 791.293 1505.96 792.36ZM1520.47 799.4C1520.54 797.338 1521 795.666 1521.85 794.386C1522.71 793.035 1523.81 791.969 1525.16 791.186C1526.58 790.475 1528.11 789.942 1529.75 789.586C1531.45 789.231 1533.16 789.053 1534.87 789.053C1536.36 789.053 1537.92 789.16 1539.56 789.373C1541.12 789.586 1542.55 790.013 1543.83 790.653C1545.18 791.293 1546.24 792.182 1547.03 793.32C1547.88 794.386 1548.31 795.88 1548.31 797.8V813.8C1548.31 815.151 1548.38 816.466 1548.52 817.746C1548.73 819.026 1549.02 819.951 1549.37 820.52H1540.84L1540.41 819.133L1540.2 817.64C1538.85 819.062 1537.28 820.022 1535.51 820.52C1533.66 821.089 1531.77 821.373 1529.85 821.373C1528.43 821.373 1527.08 821.195 1525.8 820.84C1524.52 820.484 1523.42 819.915 1522.49 819.133C1521.5 818.422 1520.75 817.462 1520.25 816.253C1519.68 815.115 1519.4 813.764 1519.4 812.2C1519.4 810.422 1519.72 809 1520.36 807.933C1521 806.795 1521.78 805.871 1522.71 805.16C1523.7 804.449 1524.8 803.951 1526.01 803.666L1529.85 802.813L1533.59 802.386L1536.79 801.853C1537.78 801.64 1538.56 801.284 1539.13 800.786C1539.7 800.36 1539.95 799.72 1539.88 798.866C1539.88 797.942 1539.74 797.231 1539.45 796.733C1539.17 796.164 1538.74 795.738 1538.17 795.453C1537.75 795.098 1537.18 794.884 1536.47 794.813L1534.33 794.706C1532.7 794.706 1531.42 795.062 1530.49 795.773C1529.57 796.484 1529 797.658 1528.79 799.293H1520.36L1520.47 799.4ZM1539.88 805.586C1539.52 805.871 1539.06 806.12 1538.49 806.333L1536.79 806.76L1534.87 806.973L1532.84 807.293L1530.92 807.826C1530.35 807.969 1529.82 808.218 1529.32 808.573C1528.89 808.929 1528.54 809.355 1528.25 809.853C1527.97 810.351 1527.83 811.026 1527.83 811.88C1527.83 812.591 1527.97 813.195 1528.25 813.693C1528.54 814.262 1528.93 814.689 1529.43 814.973C1529.92 815.258 1530.49 815.471 1531.13 815.613L1533.05 815.72C1534.69 815.72 1535.97 815.471 1536.89 814.973C1537.82 814.404 1538.53 813.729 1539.03 812.946C1539.38 812.164 1539.6 811.382 1539.67 810.6L1539.88 808.68V805.48V805.586ZM1554.71 789.8V820.52H1563.24V804.52C1563.24 801.391 1563.74 799.151 1564.73 797.8C1565.73 796.378 1567.4 795.666 1569.75 795.666C1571.74 795.666 1573.16 796.306 1574.01 797.586C1574.72 798.795 1575.08 800.68 1575.08 803.24V820.52H1583.61V801.64C1583.61 799.791 1583.4 798.084 1582.97 796.52C1582.69 794.955 1582.12 793.64 1581.27 792.573C1580.48 791.435 1579.35 790.582 1577.85 790.013C1576.43 789.302 1574.58 788.946 1572.31 788.946C1570.53 788.946 1568.79 789.373 1567.08 790.226C1565.37 791.08 1563.99 792.395 1562.92 794.173H1562.81V789.906H1554.71V789.8ZM1610.92 800.68H1619.13C1619.06 798.689 1618.6 796.982 1617.75 795.56C1616.89 794.138 1615.83 792.929 1614.55 791.933C1613.2 790.938 1611.67 790.226 1609.96 789.8C1608.32 789.302 1606.58 789.053 1604.73 789.053C1602.24 789.053 1600.04 789.444 1598.12 790.226C1596.13 791.08 1594.49 792.253 1593.21 793.746C1591.79 795.169 1590.72 796.946 1590.01 799.08C1589.37 801.071 1589.05 803.275 1589.05 805.693C1589.05 807.969 1589.41 810.102 1590.12 812.093C1590.9 813.942 1591.97 815.542 1593.32 816.893C1594.74 818.315 1596.38 819.418 1598.23 820.2C1600.15 820.911 1602.28 821.266 1604.63 821.266C1608.68 821.266 1612.02 820.2 1614.65 818.066C1617.21 815.933 1618.78 812.84 1619.35 808.786H1611.24C1610.96 810.706 1610.24 812.235 1609.11 813.373C1608.04 814.511 1606.51 815.08 1604.52 815.08C1603.24 815.08 1602.14 814.76 1601.21 814.12C1600.29 813.551 1599.58 812.84 1599.08 811.986C1598.51 810.991 1598.12 809.924 1597.91 808.786C1597.62 807.578 1597.48 806.44 1597.48 805.373C1597.48 804.235 1597.62 803.098 1597.91 801.96C1598.12 800.751 1598.48 799.684 1598.97 798.76C1599.61 797.764 1600.4 796.946 1601.32 796.306C1602.24 795.666 1603.38 795.346 1604.73 795.346C1608.29 795.346 1610.35 797.124 1610.92 800.68ZM1644.73 801.96H1630.87L1631.29 799.826L1632.36 797.693C1633 797.053 1633.71 796.52 1634.49 796.093C1635.49 795.595 1636.66 795.346 1638.01 795.346C1640.08 795.346 1641.57 795.915 1642.49 797.053C1643.56 798.12 1644.27 799.755 1644.63 801.96H1644.73ZM1630.87 807.293H1653.16C1653.3 804.875 1653.09 802.6 1652.52 800.466C1651.95 798.262 1651.03 796.306 1649.75 794.6C1648.54 792.893 1646.97 791.542 1645.05 790.546C1643.13 789.551 1640.86 789.053 1638.23 789.053C1635.88 789.053 1633.75 789.444 1631.83 790.226C1629.91 791.08 1628.24 792.253 1626.81 793.746C1625.39 795.169 1624.32 796.875 1623.61 798.866C1622.9 800.786 1622.55 802.92 1622.55 805.266C1622.55 807.613 1622.9 809.782 1623.61 811.773C1624.32 813.764 1625.39 815.471 1626.81 816.893C1628.09 818.315 1629.73 819.418 1631.72 820.2C1633.64 820.911 1635.77 821.266 1638.12 821.266C1641.68 821.266 1644.66 820.484 1647.08 818.92C1649.57 817.355 1651.42 814.724 1652.63 811.026H1645.16C1644.88 812.022 1644.13 812.946 1642.92 813.8C1641.71 814.653 1640.25 815.08 1638.55 815.08C1636.13 815.08 1634.28 814.44 1633 813.16C1631.79 811.951 1631.08 809.995 1630.87 807.293ZM1658.39 778.066V820.52H1666.81V778.173H1658.28L1658.39 778.066Z" fill="black"/>
<path d="M723.987 484.413L731.773 463.08H731.88L739.56 484.413H723.987ZM728.573 457.427L710.653 503.293H716.947L722.067 489.427H741.48L746.493 503.293H753.213L735.293 457.427H728.573ZM756.627 470.12V503.293H762.067V488.573C762.067 486.44 762.28 484.556 762.707 482.92C763.133 481.213 763.844 479.791 764.84 478.653C765.764 477.516 766.973 476.627 768.467 475.987C770.031 475.418 771.916 475.133 774.12 475.133V469.373C771.133 469.302 768.68 469.907 766.76 471.187C764.84 472.467 763.204 474.458 761.853 477.16V470.12H756.627ZM800.253 483.56H781.16C781.231 482.28 781.516 481.071 782.013 479.933C782.511 478.796 783.151 477.8 783.933 476.947C784.716 476.093 785.676 475.418 786.813 474.92C787.951 474.422 789.231 474.173 790.653 474.173C792.076 474.173 793.32 474.422 794.387 474.92C795.524 475.418 796.52 476.093 797.373 476.947C798.227 477.729 798.867 478.725 799.293 479.933C799.862 481.071 800.182 482.28 800.253 483.56ZM805.587 492.84H800.147C799.649 494.973 798.653 496.573 797.16 497.64C795.738 498.707 793.853 499.24 791.507 499.24C789.729 499.24 788.164 498.956 786.813 498.387C785.462 497.747 784.396 496.965 783.613 496.04C782.689 494.973 782.049 493.8 781.693 492.52C781.338 491.169 781.16 489.782 781.16 488.36H806.013C806.084 486.369 805.907 484.236 805.48 481.96C805.053 479.827 804.236 477.8 803.027 475.88C801.889 473.96 800.324 472.396 798.333 471.187C796.413 469.978 793.96 469.373 790.973 469.373C788.698 469.373 786.6 469.8 784.68 470.653C782.831 471.507 781.196 472.716 779.773 474.28C778.351 475.773 777.284 477.551 776.573 479.613C775.791 481.747 775.4 484.093 775.4 486.653C775.471 489.142 775.827 491.453 776.467 493.587C777.178 495.72 778.173 497.569 779.453 499.133C780.876 500.698 782.511 501.907 784.36 502.76C786.351 503.613 788.662 504.04 791.293 504.04C795.062 504.04 798.191 503.08 800.68 501.16C803.169 499.311 804.769 496.538 805.48 492.84H805.587ZM842.6 507.773L840.68 511.827C840.04 512.965 839.329 513.853 838.547 514.493C837.836 515.205 837.018 515.738 836.093 516.093C835.169 516.449 834.102 516.627 832.893 516.627L830.973 516.52L829.16 515.987V510.973L830.76 511.507C831.4 511.72 831.933 511.827 832.36 511.827C833.498 511.827 834.422 511.542 835.133 510.973C835.844 510.476 836.413 509.729 836.84 508.733L839.08 503.08L825.96 470.12H832.147L841.747 497.32H841.96L851.24 470.12H857L842.6 507.773ZM865.533 486.76C865.533 484.769 865.818 482.991 866.387 481.427C866.956 479.862 867.702 478.547 868.627 477.48C869.551 476.413 870.618 475.596 871.827 475.027C873.178 474.458 874.564 474.173 875.987 474.173C877.409 474.173 878.724 474.458 879.933 475.027C881.213 475.596 882.316 476.413 883.24 477.48C884.236 478.547 884.947 479.862 885.373 481.427C886.013 482.991 886.333 484.769 886.333 486.76C886.333 488.751 886.049 490.529 885.48 492.093C884.982 493.658 884.271 494.973 883.347 496.04C882.351 497.107 881.213 497.889 879.933 498.387C878.724 498.956 877.409 499.24 875.987 499.24C874.564 499.24 873.213 498.956 871.933 498.387C870.653 497.889 869.587 497.107 868.733 496.04C867.738 494.973 866.956 493.658 866.387 492.093C865.889 490.529 865.64 488.751 865.64 486.76H865.533ZM859.88 486.76C859.88 489.178 860.236 491.453 860.947 493.587C861.587 495.72 862.582 497.533 863.933 499.027C865.356 500.591 867.062 501.836 869.053 502.76C871.044 503.613 873.356 504.04 875.987 504.04C878.618 504.04 880.929 503.613 882.92 502.76C884.911 501.836 886.582 500.591 887.933 499.027C889.356 497.462 890.422 495.649 891.133 493.587C891.773 491.453 892.093 489.178 892.093 486.76C892.093 484.342 891.738 482.067 891.027 479.933C890.316 477.8 889.284 475.951 887.933 474.387C886.582 472.822 884.911 471.578 882.92 470.653C880.929 469.8 878.618 469.373 875.987 469.373C873.356 469.373 871.044 469.8 869.053 470.653C866.991 471.578 865.284 472.822 863.933 474.387C862.582 475.951 861.551 477.8 860.84 479.933C860.129 482.067 859.773 484.342 859.773 486.76H859.88ZM925.907 503.293V470.227H920.36V488.893C920.36 490.316 920.147 491.702 919.72 493.053C919.364 494.262 918.796 495.329 918.013 496.253C917.16 497.249 916.093 497.996 914.813 498.493C913.676 498.991 912.253 499.24 910.547 499.24C908.413 499.24 906.778 498.636 905.64 497.427C904.431 496.289 903.827 494.689 903.827 492.627V470.227H898.387V491.987C898.387 493.765 898.564 495.4 898.92 496.893C899.276 498.316 899.916 499.596 900.84 500.733C901.693 501.8 902.867 502.618 904.36 503.187C905.782 503.756 907.596 504.04 909.8 504.04C912.218 504.04 914.351 503.578 916.2 502.653C917.978 501.658 919.436 500.129 920.573 498.067H920.68V503.4H925.907V503.293ZM955.24 492.84H949.8C949.871 494.902 950.298 496.68 951.08 498.173C951.791 499.596 952.822 500.733 954.173 501.587C955.453 502.44 956.911 503.045 958.547 503.4C960.253 503.827 962.031 504.04 963.88 504.04C965.516 504.04 967.187 503.862 968.893 503.507C970.6 503.222 972.129 502.653 973.48 501.8C974.831 501.018 975.898 499.951 976.68 498.6C977.533 497.32 977.96 495.649 977.96 493.587C977.96 492.022 977.64 490.707 977 489.64C976.431 488.573 975.613 487.685 974.547 486.973C973.551 486.262 972.413 485.693 971.133 485.267C969.853 484.84 968.538 484.485 967.187 484.2L963.24 483.347C961.96 483.062 960.822 482.707 959.827 482.28C958.76 481.853 957.907 481.356 957.267 480.787C956.556 480.076 956.2 479.293 956.2 478.44C956.2 477.587 956.449 476.876 956.947 476.307C957.373 475.809 957.907 475.382 958.547 475.027C959.258 474.742 960.04 474.529 960.893 474.387L963.347 474.173C964.271 474.173 965.16 474.28 966.013 474.493C966.867 474.636 967.684 474.92 968.467 475.347C969.178 475.773 969.747 476.378 970.173 477.16C970.671 477.871 970.956 478.725 971.027 479.72H976.467C976.396 477.729 975.969 476.058 975.187 474.707C974.476 473.356 973.516 472.289 972.307 471.507C971.098 470.725 969.676 470.191 968.04 469.907C966.476 469.551 964.769 469.373 962.92 469.373C961.498 469.373 960.004 469.551 958.44 469.907C957.018 470.262 955.702 470.831 954.493 471.613C953.356 472.325 952.396 473.285 951.613 474.493C950.902 475.702 950.547 477.125 950.547 478.76C950.547 480.893 951.08 482.565 952.147 483.773C953.213 484.982 954.529 485.942 956.093 486.653C957.729 487.293 959.507 487.791 961.427 488.147C963.276 488.502 964.982 488.929 966.547 489.427C968.182 489.853 969.533 490.422 970.6 491.133C971.667 491.845 972.2 492.911 972.2 494.333C972.2 495.329 971.951 496.182 971.453 496.893C970.956 497.533 970.28 498.031 969.427 498.387C968.716 498.742 967.862 498.956 966.867 499.027L964.2 499.24C963.062 499.24 961.996 499.133 961 498.92C959.933 498.707 958.973 498.351 958.12 497.853C957.267 497.356 956.591 496.716 956.093 495.933C955.596 495.08 955.311 494.049 955.24 492.84ZM1011.35 503.293V470.227H1005.91V488.893C1005.91 490.316 1005.69 491.702 1005.27 493.053C1004.91 494.262 1004.31 495.329 1003.45 496.253C1002.67 497.249 1001.64 497.996 1000.36 498.493C999.151 498.991 997.729 499.24 996.093 499.24C993.96 499.24 992.324 498.636 991.187 497.427C989.978 496.289 989.373 494.689 989.373 492.627V470.227H983.933V491.987C983.933 493.765 984.076 495.4 984.36 496.893C984.787 498.316 985.427 499.596 986.28 500.733C987.204 501.8 988.413 502.618 989.907 503.187C991.329 503.756 993.107 504.04 995.24 504.04C997.729 504.04 999.862 503.578 1001.64 502.653C1003.49 501.658 1004.98 500.129 1006.12 498.067H1006.23V503.4H1011.35V503.293ZM1019.45 470.12V503.293H1024.89V488.573C1024.89 486.44 1025.11 484.556 1025.53 482.92C1025.96 481.213 1026.67 479.791 1027.67 478.653C1028.59 477.516 1029.8 476.627 1031.29 475.987C1032.86 475.418 1034.74 475.133 1036.95 475.133V469.373C1033.96 469.302 1031.47 469.907 1029.48 471.187C1027.63 472.467 1026.03 474.458 1024.68 477.16H1024.57V470.12H1019.45ZM1063.08 483.56H1043.99C1044.06 482.28 1044.34 481.071 1044.84 479.933C1045.27 478.796 1045.91 477.8 1046.76 476.947C1047.54 476.093 1048.5 475.418 1049.64 474.92C1050.78 474.422 1052.06 474.173 1053.48 474.173C1054.9 474.173 1056.15 474.422 1057.21 474.92C1058.35 475.418 1059.35 476.093 1060.2 476.947C1061.05 477.729 1061.69 478.725 1062.12 479.933C1062.69 481.071 1063.01 482.28 1063.08 483.56ZM1068.41 492.84H1062.87C1062.37 494.973 1061.37 496.573 1059.88 497.64C1058.46 498.707 1056.57 499.24 1054.23 499.24C1052.45 499.24 1050.88 498.956 1049.53 498.387C1048.18 497.747 1047.12 496.965 1046.33 496.04C1045.41 494.973 1044.77 493.8 1044.41 492.52C1043.99 491.169 1043.81 489.782 1043.88 488.36H1068.73C1068.8 486.369 1068.59 484.236 1068.09 481.96C1067.67 479.827 1066.88 477.8 1065.75 475.88C1064.54 473.96 1062.97 472.396 1061.05 471.187C1059.13 469.978 1056.68 469.373 1053.69 469.373C1051.42 469.373 1049.32 469.8 1047.4 470.653C1045.55 471.507 1043.92 472.716 1042.49 474.28C1041.07 475.773 1040 477.551 1039.29 479.613C1038.51 481.747 1038.12 484.093 1038.12 486.653C1038.19 489.142 1038.55 491.453 1039.19 493.587C1039.9 495.72 1040.89 497.569 1042.17 499.133C1043.52 500.698 1045.16 501.907 1047.08 502.76C1049.07 503.613 1051.38 504.04 1054.01 504.04C1057.78 504.04 1060.91 503.08 1063.4 501.16C1065.89 499.311 1067.49 496.538 1068.2 492.84H1068.41ZM1105.43 507.773L1103.51 511.827C1102.87 512.965 1102.16 513.853 1101.37 514.493C1100.66 515.205 1099.84 515.738 1098.92 516.093C1098 516.449 1096.93 516.627 1095.72 516.627L1093.8 516.52L1091.99 515.987V510.973L1093.59 511.507C1094.23 511.72 1094.76 511.827 1095.19 511.827C1096.32 511.827 1097.25 511.542 1097.96 510.973C1098.67 510.476 1099.24 509.729 1099.67 508.733L1101.91 503.08L1088.79 470.12H1094.87L1104.57 497.32H1104.79L1114.07 470.12H1119.83L1105.43 507.773ZM1128.47 486.76C1128.47 484.769 1128.72 482.991 1129.21 481.427C1129.78 479.862 1130.53 478.547 1131.45 477.48C1132.38 476.413 1133.44 475.596 1134.65 475.027C1136 474.458 1137.39 474.173 1138.81 474.173C1140.24 474.173 1141.55 474.458 1142.76 475.027C1144.04 475.596 1145.14 476.413 1146.07 477.48C1146.99 478.547 1147.7 479.862 1148.2 481.427C1148.77 482.991 1149.05 484.769 1149.05 486.76C1149.05 488.751 1148.8 490.529 1148.31 492.093C1147.74 493.658 1147.03 494.973 1146.17 496.04C1145.18 497.107 1144.04 497.889 1142.76 498.387C1141.48 498.956 1140.16 499.24 1138.81 499.24C1137.39 499.24 1136.04 498.956 1134.76 498.387C1133.48 497.889 1132.38 497.107 1131.45 496.04C1130.53 494.973 1129.78 493.658 1129.21 492.093C1128.72 490.529 1128.47 488.751 1128.47 486.76ZM1122.71 486.76C1122.71 489.178 1123.06 491.453 1123.77 493.587C1124.41 495.72 1125.41 497.533 1126.76 499.027C1128.18 500.591 1129.89 501.836 1131.88 502.76C1133.87 503.613 1136.18 504.04 1138.81 504.04C1141.44 504.04 1143.76 503.613 1145.75 502.76C1147.74 501.836 1149.41 500.591 1150.76 499.027C1152.18 497.462 1153.21 495.649 1153.85 493.587C1154.56 491.453 1154.92 489.178 1154.92 486.76C1154.92 484.342 1154.56 482.067 1153.85 479.933C1153.14 477.8 1152.11 475.951 1150.76 474.387C1149.34 472.822 1147.67 471.578 1145.75 470.653C1143.76 469.8 1141.44 469.373 1138.81 469.373C1136.18 469.373 1133.87 469.8 1131.88 470.653C1129.82 471.578 1128.11 472.822 1126.76 474.387C1125.34 475.951 1124.31 477.8 1123.67 479.933C1122.96 482.067 1122.6 484.342 1122.6 486.76H1122.71ZM1188.73 503.293V470.227H1183.19V488.893C1183.19 490.316 1182.97 491.702 1182.55 493.053C1182.19 494.262 1181.59 495.329 1180.73 496.253C1179.95 497.249 1178.92 497.996 1177.64 498.493C1176.5 498.991 1175.08 499.24 1173.37 499.24C1171.24 499.24 1169.6 498.636 1168.47 497.427C1167.26 496.289 1166.65 494.689 1166.65 492.627V470.227H1161.21V491.987C1161.21 493.765 1161.39 495.4 1161.75 496.893C1162.1 498.316 1162.74 499.596 1163.67 500.733C1164.52 501.8 1165.69 502.618 1167.19 503.187C1168.61 503.756 1170.39 504.04 1172.52 504.04C1175.01 504.04 1177.14 503.578 1178.92 502.653C1180.77 501.658 1182.26 500.129 1183.4 498.067H1183.51V503.4H1188.63L1188.73 503.293ZM1247.61 503.293L1258.28 470.227H1252.52L1245.05 497.32L1238.01 470.12H1232.04L1225.43 497.32H1225.21L1217.75 470.12H1211.67L1222.33 503.293H1228.31L1234.92 476.947H1235.13L1241.85 503.293H1247.61ZM1292.73 503.187C1291.81 503.756 1290.53 504.04 1288.89 504.04C1287.47 504.04 1286.33 503.649 1285.48 502.867C1284.63 502.085 1284.2 500.769 1284.2 498.92C1282.78 500.769 1281.04 502.085 1278.97 502.867C1276.98 503.578 1274.85 503.933 1272.57 503.933C1271.08 503.933 1269.66 503.791 1268.31 503.507C1266.88 503.151 1265.71 502.618 1264.79 501.907C1263.79 501.196 1263.01 500.236 1262.44 499.027C1261.87 497.889 1261.59 496.467 1261.59 494.76C1261.59 492.911 1261.91 491.382 1262.55 490.173C1263.19 488.965 1264 488.005 1265 487.293C1266.07 486.511 1267.28 485.907 1268.63 485.48L1272.89 484.52L1277.05 483.88C1278.48 483.738 1279.68 483.525 1280.68 483.24C1281.68 482.956 1282.49 482.565 1283.13 482.067C1283.7 481.498 1283.99 480.716 1283.99 479.72C1283.99 478.511 1283.74 477.551 1283.24 476.84C1282.81 476.129 1282.24 475.56 1281.53 475.133C1280.82 474.778 1280.04 474.529 1279.19 474.387L1276.63 474.173C1274.28 474.173 1272.36 474.636 1270.87 475.56C1269.3 476.413 1268.45 478.049 1268.31 480.467H1262.87C1262.94 478.405 1263.36 476.662 1264.15 475.24C1264.86 473.818 1265.89 472.68 1267.24 471.827C1268.52 470.973 1269.94 470.333 1271.51 469.907C1273.21 469.551 1274.99 469.373 1276.84 469.373C1278.4 469.373 1279.9 469.48 1281.32 469.693C1282.81 469.907 1284.16 470.333 1285.37 470.973C1286.58 471.685 1287.54 472.609 1288.25 473.747C1288.96 474.956 1289.32 476.52 1289.32 478.44V495.507C1289.32 496.787 1289.39 497.747 1289.53 498.387C1289.75 498.956 1290.28 499.24 1291.13 499.24C1291.56 499.24 1292.09 499.133 1292.73 498.92V503.187ZM1283.88 486.12C1283.17 486.689 1282.28 487.08 1281.21 487.293L1277.69 487.933L1274.07 488.467C1272.79 488.609 1271.65 488.893 1270.65 489.32C1269.73 489.747 1268.95 490.351 1268.31 491.133C1267.67 491.916 1267.35 492.982 1267.35 494.333C1267.35 495.258 1267.52 496.04 1267.88 496.68C1268.24 497.32 1268.7 497.818 1269.27 498.173C1269.91 498.529 1270.62 498.813 1271.4 499.027C1272.11 499.169 1272.89 499.24 1273.75 499.24C1275.6 499.24 1277.16 499.027 1278.44 498.6C1279.72 498.031 1280.79 497.391 1281.64 496.68C1282.35 495.969 1282.92 495.151 1283.35 494.227C1283.7 493.373 1283.88 492.556 1283.88 491.773V486.12ZM1297.85 470.12V503.293H1303.29V484.52C1303.29 483.098 1303.51 481.747 1303.93 480.467C1304.36 479.187 1304.96 478.085 1305.75 477.16C1306.6 476.165 1307.6 475.453 1308.73 475.027C1310.01 474.458 1311.47 474.173 1313.11 474.173C1315.24 474.173 1316.91 474.778 1318.12 475.987C1319.26 477.196 1319.83 478.796 1319.83 480.787V503.293H1325.37V481.533C1325.37 479.685 1325.16 478.049 1324.73 476.627C1324.38 475.133 1323.77 473.853 1322.92 472.787C1322 471.72 1320.82 470.867 1319.4 470.227C1317.98 469.658 1316.16 469.373 1313.96 469.373C1308.98 469.373 1305.36 471.365 1303.08 475.347V470.12H1297.85ZM1341.27 470.12V460.2H1335.72V470.12H1330.07V474.92H1335.72V496.04C1335.72 497.605 1335.86 498.849 1336.15 499.773C1336.43 500.698 1336.89 501.409 1337.53 501.907C1338.17 502.476 1338.99 502.831 1339.99 502.973C1340.98 503.187 1342.19 503.293 1343.61 503.293H1347.88V498.6H1343.19L1341.91 498.067C1341.62 497.853 1341.41 497.569 1341.27 497.213V475.027H1347.77V470.227H1341.16L1341.27 470.12ZM1379.24 470.12V460.2H1373.91V470.12H1368.15V474.92H1373.8V496.04C1373.8 497.605 1373.98 498.849 1374.33 499.773C1374.62 500.698 1375.04 501.409 1375.61 501.907C1376.32 502.476 1377.14 502.831 1378.07 502.973C1379.06 503.187 1380.27 503.293 1381.69 503.293H1385.96V498.6H1381.27C1380.77 498.458 1380.38 498.28 1380.09 498.067C1379.74 497.853 1379.52 497.569 1379.45 497.213C1379.31 496.787 1379.24 496.253 1379.24 495.613V475.027H1385.85V470.227H1379.24V470.12ZM1395.99 486.76C1395.99 484.769 1396.24 482.991 1396.73 481.427C1397.3 479.862 1398.08 478.547 1399.08 477.48C1400 476.413 1401.07 475.596 1402.28 475.027C1403.56 474.458 1404.91 474.173 1406.33 474.173C1407.76 474.173 1409.07 474.458 1410.28 475.027C1411.63 475.596 1412.77 476.413 1413.69 477.48C1414.62 478.547 1415.33 479.862 1415.83 481.427C1416.4 482.991 1416.68 484.769 1416.68 486.76C1416.68 488.751 1416.4 490.529 1415.83 492.093C1415.33 493.658 1414.62 494.973 1413.69 496.04C1412.77 497.107 1411.63 497.889 1410.28 498.387C1409.07 498.956 1407.76 499.24 1406.33 499.24C1404.91 499.24 1403.56 498.956 1402.28 498.387C1401.07 497.889 1400 497.107 1399.08 496.04C1398.08 494.973 1397.3 493.658 1396.73 492.093C1396.24 490.529 1395.99 488.751 1395.99 486.76ZM1390.23 486.76C1390.23 489.178 1390.58 491.453 1391.29 493.587C1392 495.72 1393.04 497.533 1394.39 499.027C1395.74 500.591 1397.41 501.836 1399.4 502.76C1401.39 503.613 1403.7 504.04 1406.33 504.04C1408.96 504.04 1411.28 503.613 1413.27 502.76C1415.26 501.836 1416.96 500.591 1418.39 499.027C1419.74 497.462 1420.77 495.649 1421.48 493.587C1422.19 491.453 1422.55 489.178 1422.55 486.76C1422.55 484.342 1422.19 482.067 1421.48 479.933C1420.77 477.8 1419.7 475.951 1418.28 474.387C1416.93 472.822 1415.26 471.578 1413.27 470.653C1411.28 469.8 1408.96 469.373 1406.33 469.373C1403.7 469.373 1401.39 469.8 1399.4 470.653C1397.41 471.578 1395.74 472.822 1394.39 474.387C1392.96 475.951 1391.9 477.8 1391.19 479.933C1390.55 482.067 1390.23 484.342 1390.23 486.76ZM721 544.467V537.747H715.56V544.36H720.893L721 544.467ZM715.56 550.333V583.613H720.893V550.333H715.56ZM729.533 550.333V583.613H734.867V564.733C734.867 563.24 735.08 561.853 735.507 560.573C735.933 559.293 736.573 558.191 737.427 557.267C738.209 556.342 739.204 555.631 740.413 555.133C741.622 554.565 743.044 554.28 744.68 554.28C746.813 554.28 748.484 554.885 749.693 556.093C750.902 557.302 751.507 558.938 751.507 561V583.4H756.947V561.64C756.947 559.862 756.769 558.227 756.413 556.733C756.058 555.311 755.418 554.031 754.493 552.893C753.64 551.827 752.467 551.009 750.973 550.44C749.551 549.8 747.738 549.48 745.533 549.48C740.556 549.48 736.964 551.507 734.76 555.56H734.653V550.227H729.533V550.333ZM787.667 561H793.427C793.213 559.08 792.68 557.409 791.827 555.987C791.044 554.565 789.978 553.356 788.627 552.36C787.418 551.436 785.996 550.725 784.36 550.227C782.724 549.8 780.947 549.587 779.027 549.587C776.467 549.587 774.191 550.049 772.2 550.973C770.209 551.898 768.573 553.178 767.293 554.813C766.013 556.378 765.053 558.262 764.413 560.467C763.702 562.6 763.347 564.911 763.347 567.4C763.347 569.889 763.702 572.165 764.413 574.227C765.124 576.36 766.084 578.138 767.293 579.56C768.644 581.053 770.28 582.227 772.2 583.08C774.191 583.862 776.431 584.253 778.92 584.253C783.187 584.253 786.529 583.151 788.947 580.947C791.436 578.742 793 575.542 793.64 571.347H787.987C787.631 573.978 786.707 576.005 785.213 577.427C783.72 578.849 781.587 579.56 778.813 579.56C777.178 579.56 775.756 579.205 774.547 578.493C773.267 577.782 772.2 576.893 771.347 575.827C770.636 574.618 770.102 573.302 769.747 571.88C769.391 570.458 769.213 568.965 769.213 567.4C769.213 565.693 769.391 564.093 769.747 562.6C770.031 560.965 770.564 559.542 771.347 558.333C772.2 557.196 773.267 556.271 774.547 555.56C775.898 554.849 777.569 554.493 779.56 554.493C781.836 554.493 783.649 555.062 785 556.2C786.422 557.338 787.347 558.938 787.773 561H787.667ZM800.04 537.747V583.613H805.48V537.747H800.04ZM841.427 583.613V550.333H836.093V569.107C836.093 570.6 835.844 572.022 835.347 573.373C834.991 574.582 834.387 575.649 833.533 576.573C832.751 577.498 831.72 578.209 830.44 578.707C829.302 579.276 827.88 579.56 826.173 579.56C824.04 579.56 822.404 578.956 821.267 577.747C820.058 576.538 819.453 574.902 819.453 572.84V550.44H814.013V572.2C814.013 573.978 814.191 575.613 814.547 577.107C814.902 578.529 815.542 579.809 816.467 580.947C817.32 582.013 818.493 582.831 819.987 583.4C821.409 583.969 823.187 584.253 825.32 584.253C827.809 584.253 829.942 583.791 831.72 582.867C833.569 581.871 835.062 580.342 836.2 578.28H836.307V583.613H841.427ZM853.8 567.293C853.8 565.658 853.942 564.058 854.227 562.493C854.582 560.929 855.151 559.578 855.933 558.44C856.644 557.231 857.64 556.271 858.92 555.56C860.271 554.849 861.836 554.493 863.613 554.493C865.533 554.493 867.169 554.849 868.52 555.56C869.8 556.271 870.867 557.16 871.72 558.227C872.573 559.436 873.178 560.787 873.533 562.28C873.96 563.773 874.173 565.338 874.173 566.973C874.173 568.538 873.96 570.067 873.533 571.56C873.178 573.053 872.609 574.405 871.827 575.613C870.973 576.751 869.907 577.676 868.627 578.387C867.347 579.098 865.782 579.453 863.933 579.453C862.227 579.453 860.698 579.133 859.347 578.493C858.067 577.782 857 576.858 856.147 575.72C855.364 574.582 854.76 573.267 854.333 571.773C853.907 570.351 853.693 568.858 853.693 567.293H853.8ZM879.4 583.613V537.747H873.96V554.813H873.853C873.213 553.818 872.431 553 871.507 552.36C870.653 551.649 869.764 551.116 868.84 550.76C867.844 550.333 866.849 550.049 865.853 549.907C864.858 549.693 863.933 549.587 863.08 549.587C860.52 549.587 858.28 550.049 856.36 550.973C854.511 551.898 852.947 553.142 851.667 554.707C850.387 556.271 849.427 558.085 848.787 560.147C848.218 562.28 847.933 564.52 847.933 566.867C847.933 569.213 848.253 571.453 848.893 573.587C849.533 575.72 850.458 577.533 851.667 579.027C853.018 580.662 854.618 581.942 856.467 582.867C858.387 583.791 860.627 584.253 863.187 584.253C865.533 584.253 867.667 583.862 869.587 583.08C871.507 582.227 872.929 580.876 873.853 579.027V583.613H879.4ZM910.76 563.773H891.667C891.809 562.493 892.093 561.285 892.52 560.147C893.018 559.009 893.658 558.013 894.44 557.16C895.293 556.307 896.253 555.631 897.32 555.133C898.529 554.636 899.809 554.387 901.16 554.387C902.582 554.387 903.827 554.636 904.893 555.133C906.102 555.631 907.098 556.342 907.88 557.267C908.733 557.978 909.409 558.938 909.907 560.147C910.404 561.285 910.689 562.493 910.76 563.773ZM916.093 573.053H910.653C910.156 575.187 909.16 576.822 907.667 577.96C906.244 579.027 904.36 579.56 902.013 579.56C900.236 579.56 898.671 579.24 897.32 578.6C896.04 578.031 894.973 577.249 894.12 576.253C893.267 575.187 892.627 574.013 892.2 572.733C891.844 571.453 891.667 570.067 891.667 568.573H916.52C916.591 566.582 916.413 564.449 915.987 562.173C915.56 560.04 914.742 558.013 913.533 556.093C912.396 554.173 910.831 552.645 908.84 551.507C906.92 550.227 904.467 549.587 901.48 549.587C899.204 549.587 897.107 550.013 895.187 550.867C893.338 551.72 891.702 552.929 890.28 554.493C888.858 556.058 887.791 557.871 887.08 559.933C886.369 562.067 886.013 564.378 886.013 566.867C886.013 569.427 886.369 571.773 887.08 573.907C887.72 576.04 888.716 577.853 890.067 579.347C891.347 580.911 892.947 582.12 894.867 582.973C896.858 583.827 899.169 584.253 901.8 584.253C905.569 584.253 908.698 583.329 911.187 581.48C913.676 579.56 915.276 576.716 915.987 572.947L916.093 573.053ZM969.427 583.4C968.502 583.969 967.187 584.253 965.48 584.253C964.058 584.253 962.92 583.898 962.067 583.187C961.284 582.333 960.893 581.018 960.893 579.24C959.4 581.018 957.622 582.298 955.56 583.08C953.64 583.862 951.507 584.253 949.16 584.253C947.738 584.253 946.316 584.076 944.893 583.72C943.542 583.436 942.369 582.902 941.373 582.12C940.449 581.409 939.667 580.485 939.027 579.347C938.458 578.138 938.173 576.716 938.173 575.08C938.173 573.16 938.529 571.596 939.24 570.387C939.809 569.178 940.627 568.218 941.693 567.507C942.76 566.796 943.969 566.227 945.32 565.8C946.671 565.373 948.058 565.018 949.48 564.733L953.747 564.2L957.267 563.56C958.333 563.276 959.151 562.849 959.72 562.28C960.289 561.782 960.573 561 960.573 559.933C960.573 558.725 960.36 557.765 959.933 557.053C959.507 556.342 958.938 555.773 958.227 555.347C957.516 554.991 956.698 554.742 955.773 554.6L953.213 554.387C950.938 554.387 949.018 554.849 947.453 555.773C945.889 556.627 945.071 558.262 945 560.68H939.453C939.596 558.618 940.022 556.911 940.733 555.56C941.516 554.138 942.582 553 943.933 552.147C945.142 551.222 946.564 550.582 948.2 550.227C949.907 549.8 951.684 549.587 953.533 549.587C955.027 549.587 956.52 549.693 958.013 549.907C959.436 550.12 960.787 550.582 962.067 551.293C963.204 551.933 964.164 552.858 964.947 554.067C965.658 555.276 966.013 556.84 966.013 558.76V575.827C966.013 577.107 966.084 578.031 966.227 578.6C966.369 579.24 966.867 579.56 967.72 579.56C968.218 579.56 968.787 579.453 969.427 579.24V583.507V583.4ZM960.573 566.333C959.862 566.902 958.973 567.329 957.907 567.613L954.28 568.147L950.653 568.68C949.444 568.822 948.342 569.107 947.347 569.533C946.351 569.96 945.533 570.6 944.893 571.453C944.324 572.165 944.04 573.231 944.04 574.653C944.04 575.578 944.182 576.36 944.467 577C944.893 577.569 945.391 578.031 945.96 578.387C946.529 578.813 947.204 579.098 947.987 579.24C948.698 579.453 949.516 579.56 950.44 579.56C952.218 579.56 953.747 579.311 955.027 578.813C956.307 578.316 957.373 577.711 958.227 577C959.009 576.218 959.578 575.4 959.933 574.547C960.36 573.622 960.573 572.769 960.573 571.987V566.44V566.333ZM996.307 567.293C996.307 565.658 996.449 564.058 996.733 562.493C997.089 560.929 997.658 559.578 998.44 558.44C999.222 557.231 1000.25 556.271 1001.53 555.56C1002.81 554.849 1004.38 554.493 1006.23 554.493C1008.08 554.493 1009.68 554.849 1011.03 555.56C1012.38 556.271 1013.44 557.16 1014.23 558.227C1015.08 559.436 1015.72 560.787 1016.15 562.28C1016.5 563.773 1016.68 565.338 1016.68 566.973C1016.68 568.538 1016.5 570.067 1016.15 571.56C1015.79 573.053 1015.19 574.405 1014.33 575.613C1013.55 576.751 1012.48 577.676 1011.13 578.387C1009.92 579.098 1008.4 579.453 1006.55 579.453C1004.77 579.453 1003.24 579.133 1001.96 578.493C1000.68 577.782 999.613 576.858 998.76 575.72C997.907 574.582 997.267 573.267 996.84 571.773C996.484 570.351 996.307 568.858 996.307 567.293ZM1021.91 583.613V537.747H1016.57V554.813H1016.36C1015.79 553.818 1015.04 553 1014.12 552.36C1013.27 551.649 1012.34 551.116 1011.35 550.76C1010.35 550.333 1009.36 550.049 1008.36 549.907C1007.44 549.693 1006.55 549.587 1005.69 549.587C1003.13 549.587 1000.89 550.049 998.973 550.973C997.053 551.898 995.453 553.142 994.173 554.707C992.964 556.271 992.04 558.085 991.4 560.147C990.831 562.28 990.547 564.52 990.547 566.867C990.547 569.213 990.867 571.453 991.507 573.587C992.147 575.72 993.071 577.533 994.28 579.027C995.56 580.662 997.16 581.942 999.08 582.867C1001 583.791 1003.24 584.253 1005.8 584.253C1008.08 584.253 1010.21 583.862 1012.2 583.08C1014.05 582.227 1015.47 580.876 1016.47 579.027V583.613H1021.91ZM1036.09 544.467V537.747H1030.65V544.36H1035.99L1036.09 544.467ZM1030.65 550.333V583.613H1035.99V550.333H1030.65ZM1073.96 583.4C1073.04 583.969 1071.76 584.253 1070.12 584.253C1068.7 584.253 1067.56 583.898 1066.71 583.187C1065.85 582.333 1065.43 581.018 1065.43 579.24C1064 581.018 1062.23 582.298 1060.09 583.08C1058.17 583.862 1056.04 584.253 1053.69 584.253C1052.27 584.253 1050.85 584.076 1049.43 583.72C1048.15 583.436 1047.01 582.902 1046.01 582.12C1045.02 581.409 1044.24 580.485 1043.67 579.347C1043.1 578.138 1042.81 576.716 1042.81 575.08C1042.81 573.16 1043.13 571.596 1043.77 570.387C1044.41 569.178 1045.23 568.218 1046.23 567.507C1047.29 566.796 1048.5 566.227 1049.85 565.8L1054.12 564.733L1058.28 564.2L1061.8 563.56C1062.87 563.276 1063.68 562.849 1064.25 562.28C1064.89 561.782 1065.21 561 1065.21 559.933C1065.21 558.725 1064.96 557.765 1064.47 557.053C1064.04 556.342 1063.47 555.773 1062.76 555.347C1062.05 554.991 1061.27 554.742 1060.41 554.6L1057.85 554.387C1055.51 554.387 1053.55 554.849 1051.99 555.773C1050.49 556.627 1049.68 558.262 1049.53 560.68H1044.09C1044.16 558.618 1044.59 556.911 1045.37 555.56C1046.08 554.138 1047.12 553 1048.47 552.147C1049.75 551.222 1051.17 550.582 1052.73 550.227C1054.44 549.8 1056.22 549.587 1058.07 549.587C1059.63 549.587 1061.12 549.693 1062.55 549.907C1064.04 550.12 1065.39 550.582 1066.6 551.293C1067.81 551.933 1068.77 552.858 1069.48 554.067C1070.19 555.276 1070.55 556.84 1070.55 558.76V575.827C1070.55 577.107 1070.62 578.031 1070.76 578.6C1070.97 579.24 1071.51 579.56 1072.36 579.56C1072.79 579.56 1073.32 579.453 1073.96 579.24V583.507V583.4ZM1065.11 566.333C1064.4 566.902 1063.51 567.329 1062.44 567.613L1058.92 568.147L1055.19 568.68C1053.98 568.822 1052.91 569.107 1051.99 569.533C1050.92 569.96 1050.07 570.6 1049.43 571.453C1048.86 572.165 1048.57 573.231 1048.57 574.653C1048.57 575.578 1048.75 576.36 1049.11 577C1049.46 577.569 1049.92 578.031 1050.49 578.387C1051.06 578.813 1051.77 579.098 1052.63 579.24C1053.34 579.453 1054.12 579.56 1054.97 579.56C1056.75 579.56 1058.28 579.311 1059.56 578.813C1060.84 578.316 1061.91 577.711 1062.76 577C1063.54 576.218 1064.15 575.4 1064.57 574.547C1064.93 573.622 1065.11 572.769 1065.11 571.987V566.44V566.333ZM1079.4 537.747V583.613H1084.84V537.747H1079.4ZM1097.32 566.973C1097.32 564.982 1097.57 563.205 1098.07 561.64C1098.64 560.076 1099.38 558.76 1100.31 557.693C1101.3 556.627 1102.4 555.809 1103.61 555.24C1104.89 554.671 1106.24 554.387 1107.67 554.387C1109.09 554.387 1110.4 554.671 1111.61 555.24C1112.89 555.809 1114.03 556.627 1115.03 557.693C1115.95 558.76 1116.66 560.076 1117.16 561.64C1117.73 563.205 1118.01 564.982 1118.01 566.973C1118.01 569.036 1117.73 570.813 1117.16 572.307C1116.66 573.871 1115.95 575.222 1115.03 576.36C1114.03 577.356 1112.89 578.138 1111.61 578.707C1110.4 579.276 1109.09 579.56 1107.67 579.56C1106.24 579.56 1104.89 579.276 1103.61 578.707C1102.4 578.138 1101.34 577.356 1100.41 576.36C1099.42 575.222 1098.64 573.907 1098.07 572.413C1097.57 570.849 1097.32 569.071 1097.32 567.08V566.973ZM1091.56 566.973C1091.56 569.462 1091.92 571.738 1092.63 573.8C1093.34 575.933 1094.33 577.782 1095.61 579.347C1097.04 580.84 1098.74 582.049 1100.73 582.973C1102.72 583.827 1105.04 584.253 1107.67 584.253C1110.3 584.253 1112.61 583.827 1114.6 582.973C1116.59 582.049 1118.3 580.84 1119.72 579.347C1121.07 577.782 1122.07 575.933 1122.71 573.8C1123.42 571.667 1123.77 569.391 1123.77 566.973C1123.77 564.556 1123.42 562.28 1122.71 560.147C1122 558.013 1121 556.2 1119.72 554.707C1118.3 553.071 1116.59 551.827 1114.6 550.973C1112.61 550.049 1110.3 549.587 1107.67 549.587C1105.04 549.587 1102.72 550.049 1100.73 550.973C1098.74 551.827 1097.04 553.071 1095.61 554.707C1094.26 556.2 1093.27 558.013 1092.63 560.147C1091.92 562.28 1091.56 564.556 1091.56 566.973ZM1158.76 580.733V550.333H1153.64V555.133H1153.53C1152.54 553.285 1151.15 551.898 1149.37 550.973C1147.67 550.049 1145.75 549.587 1143.61 549.587C1140.77 549.587 1138.35 550.156 1136.36 551.293C1134.44 552.36 1132.88 553.747 1131.67 555.453C1130.46 557.089 1129.6 558.973 1129.11 561.107C1128.54 563.169 1128.25 565.16 1128.25 567.08C1128.25 569.356 1128.57 571.525 1129.21 573.587C1129.85 575.578 1130.78 577.356 1131.99 578.92C1133.27 580.413 1134.83 581.622 1136.68 582.547C1138.53 583.4 1140.66 583.827 1143.08 583.827C1145.21 583.827 1147.24 583.365 1149.16 582.44C1151.08 581.445 1152.5 579.951 1153.43 577.96H1153.64V580.093C1153.64 581.942 1153.43 583.649 1153 585.213C1152.64 586.707 1152.08 587.987 1151.29 589.053C1150.44 590.191 1149.41 591.045 1148.2 591.613C1146.99 592.325 1145.46 592.68 1143.61 592.68C1142.76 592.68 1141.84 592.538 1140.84 592.253C1139.84 592.111 1138.92 591.827 1138.07 591.4C1137.21 590.973 1136.5 590.405 1135.93 589.693C1135.36 588.982 1135.08 588.165 1135.08 587.24H1129.53C1129.68 589.018 1130.17 590.547 1131.03 591.827C1131.88 593.036 1132.95 594.031 1134.23 594.813C1135.51 595.525 1136.93 596.058 1138.49 596.413C1140.2 596.769 1141.8 596.947 1143.29 596.947C1148.63 596.947 1152.54 595.596 1155.03 592.893C1157.52 590.191 1158.76 586.138 1158.76 580.733ZM1143.4 579.133C1141.62 579.133 1140.13 578.778 1138.92 578.067C1137.71 577.285 1136.75 576.289 1136.04 575.08C1135.33 573.871 1134.83 572.52 1134.55 571.027C1134.26 569.462 1134.12 567.933 1134.12 566.44C1134.12 564.876 1134.26 563.382 1134.55 561.96C1134.97 560.538 1135.58 559.258 1136.36 558.12C1137.14 556.982 1138.14 556.093 1139.35 555.453C1140.63 554.742 1142.16 554.387 1143.93 554.387C1145.64 554.387 1147.06 554.742 1148.2 555.453C1149.41 556.165 1150.4 557.089 1151.19 558.227C1151.9 559.293 1152.43 560.538 1152.79 561.96C1153.14 563.382 1153.32 564.805 1153.32 566.227C1153.32 567.791 1153.14 569.356 1152.79 570.92C1152.43 572.485 1151.86 573.871 1151.08 575.08C1150.37 576.289 1149.34 577.285 1147.99 578.067C1146.78 578.778 1145.25 579.133 1143.4 579.133ZM1190.44 544.467V537.747H1185V544.36H1190.33L1190.44 544.467ZM1185 550.333V583.613H1190.33V550.333H1185ZM1198.97 550.333V583.613H1204.31V564.733C1204.31 563.24 1204.52 561.853 1204.95 560.573C1205.37 559.293 1206.01 558.191 1206.87 557.267C1207.65 556.342 1208.64 555.631 1209.85 555.133C1211.06 554.565 1212.48 554.28 1214.12 554.28C1216.25 554.28 1217.92 554.885 1219.13 556.093C1220.34 557.302 1220.95 558.938 1220.95 561V583.4H1226.39V561.64C1226.39 559.862 1226.21 558.227 1225.85 556.733C1225.5 555.311 1224.86 554.031 1223.93 552.893C1223.08 551.827 1221.91 551.009 1220.41 550.44C1218.99 549.8 1217.18 549.48 1214.97 549.48C1210 549.48 1206.4 551.507 1204.2 555.56H1204.09V550.227H1198.97V550.333ZM1265.53 587.987L1263.61 592.147C1262.97 593.213 1262.26 594.102 1261.48 594.813C1260.77 595.525 1259.95 596.022 1259.03 596.307C1258.1 596.662 1257.04 596.84 1255.83 596.84L1253.91 596.733C1253.27 596.662 1252.66 596.52 1252.09 596.307V591.293L1253.69 591.827L1255.29 592.04C1256.43 592.04 1257.36 591.756 1258.07 591.187C1258.78 590.689 1259.35 589.978 1259.77 589.053L1262.01 583.4L1248.89 550.333H1255.08L1264.68 577.533H1264.89L1274.17 550.333H1279.93L1265.53 587.987ZM1288.57 566.973C1288.57 564.982 1288.82 563.205 1289.32 561.64C1289.89 560.076 1290.64 558.76 1291.56 557.693C1292.48 556.627 1293.55 555.809 1294.76 555.24C1296.11 554.671 1297.5 554.387 1298.92 554.387C1300.34 554.387 1301.66 554.671 1302.87 555.24C1304.15 555.809 1305.25 556.627 1306.17 557.693C1307.17 558.76 1307.88 560.076 1308.31 561.64C1308.95 563.205 1309.27 564.982 1309.27 566.973C1309.27 569.036 1308.98 570.813 1308.41 572.307C1307.92 573.871 1307.2 575.222 1306.28 576.36C1305.28 577.356 1304.15 578.138 1302.87 578.707C1301.66 579.276 1300.34 579.56 1298.92 579.56C1297.5 579.56 1296.15 579.276 1294.87 578.707C1293.59 578.138 1292.52 577.356 1291.67 576.36C1290.67 575.222 1289.89 573.907 1289.32 572.413C1288.82 570.849 1288.57 569.071 1288.57 567.08V566.973ZM1282.81 566.973C1282.81 569.462 1283.17 571.738 1283.88 573.8C1284.52 575.933 1285.52 577.782 1286.87 579.347C1288.29 580.84 1290 582.049 1291.99 582.973C1293.98 583.827 1296.29 584.253 1298.92 584.253C1301.55 584.253 1303.86 583.827 1305.85 582.973C1307.84 582.049 1309.52 580.84 1310.87 579.347C1312.29 577.782 1313.36 575.933 1314.07 573.8C1314.71 571.667 1315.03 569.391 1315.03 566.973C1315.03 564.556 1314.67 562.28 1313.96 560.147C1313.25 558.013 1312.22 556.2 1310.87 554.707C1309.52 553.071 1307.84 551.827 1305.85 550.973C1303.86 550.049 1301.55 549.587 1298.92 549.587C1296.29 549.587 1293.98 550.049 1291.99 550.973C1289.92 551.827 1288.22 553.071 1286.87 554.707C1285.44 556.2 1284.41 558.013 1283.77 560.147C1283.06 562.28 1282.71 564.556 1282.71 566.973H1282.81ZM1348.73 583.613V550.333H1343.4V569.107C1343.4 570.6 1343.15 572.022 1342.65 573.373C1342.3 574.582 1341.69 575.649 1340.84 576.573C1340.06 577.498 1339.06 578.209 1337.85 578.707C1336.64 579.276 1335.22 579.56 1333.59 579.56C1331.45 579.56 1329.78 578.956 1328.57 577.747C1327.36 576.538 1326.76 574.902 1326.76 572.84V550.44H1321.32V572.2C1321.32 573.978 1321.5 575.613 1321.85 577.107C1322.21 578.529 1322.85 579.809 1323.77 580.947C1324.63 582.013 1325.8 582.831 1327.29 583.4C1328.72 583.969 1330.53 584.253 1332.73 584.253C1335.15 584.253 1337.28 583.791 1339.13 582.867C1340.91 581.871 1342.37 580.342 1343.51 578.28H1343.61V583.613H1348.73ZM1356.84 550.333V583.613H1362.28V568.787C1362.28 566.653 1362.49 564.769 1362.92 563.133C1363.35 561.498 1364.06 560.076 1365.05 558.867C1365.98 557.729 1367.19 556.876 1368.68 556.307C1370.24 555.667 1372.13 555.347 1374.33 555.347V549.587C1371.35 549.516 1368.89 550.12 1366.97 551.4C1365.05 552.68 1363.42 554.671 1362.07 557.373V550.333H1356.84ZM1396.52 550.333V596.2H1401.85V579.133H1402.07C1402.64 580.129 1403.35 580.947 1404.2 581.587C1405.12 582.298 1406.08 582.831 1407.08 583.187L1410.07 584.04L1412.84 584.253C1415.33 584.253 1417.53 583.791 1419.45 582.867C1421.37 582.013 1422.94 580.805 1424.15 579.24C1425.43 577.676 1426.39 575.827 1427.03 573.693C1427.67 571.56 1427.99 569.356 1427.99 567.08C1427.99 564.733 1427.63 562.493 1426.92 560.36C1426.35 558.227 1425.39 556.378 1424.04 554.813C1422.83 553.249 1421.27 551.969 1419.35 550.973C1417.43 550.049 1415.19 549.587 1412.63 549.587C1410.35 549.587 1408.22 550.013 1406.23 550.867C1404.38 551.72 1402.99 553.036 1402.07 554.813H1401.96V550.333H1396.52ZM1422.12 566.653C1422.12 568.289 1421.98 569.889 1421.69 571.453C1421.34 572.947 1420.77 574.298 1419.99 575.507C1419.28 576.716 1418.24 577.676 1416.89 578.387C1415.68 579.098 1414.12 579.453 1412.2 579.453C1410.35 579.453 1408.75 579.133 1407.4 578.493C1406.05 577.782 1404.98 576.822 1404.2 575.613C1403.35 574.476 1402.71 573.16 1402.28 571.667C1401.92 570.173 1401.75 568.609 1401.75 566.973C1401.75 565.409 1401.92 563.88 1402.28 562.387C1402.64 560.893 1403.24 559.578 1404.09 558.44C1404.88 557.231 1405.94 556.271 1407.29 555.56C1408.5 554.849 1410.03 554.493 1411.88 554.493C1413.66 554.493 1415.19 554.813 1416.47 555.453C1417.75 556.165 1418.81 557.089 1419.67 558.227C1420.52 559.365 1421.12 560.68 1421.48 562.173C1421.91 563.596 1422.12 565.089 1422.12 566.653ZM1463.72 583.4C1462.72 583.969 1461.41 584.253 1459.77 584.253C1458.35 584.253 1457.21 583.898 1456.36 583.187C1455.58 582.333 1455.19 581.018 1455.19 579.24C1453.69 581.018 1451.92 582.298 1449.85 583.08C1447.93 583.862 1445.8 584.253 1443.45 584.253C1442.03 584.253 1440.61 584.076 1439.19 583.72C1437.84 583.436 1436.66 582.902 1435.67 582.12C1434.67 581.409 1433.89 580.485 1433.32 579.347C1432.75 578.138 1432.47 576.716 1432.47 575.08C1432.47 573.16 1432.82 571.596 1433.53 570.387C1434.1 569.178 1434.92 568.218 1435.99 567.507C1437.05 566.796 1438.23 566.227 1439.51 565.8L1443.77 564.733L1448.04 564.2L1451.56 563.56C1452.56 563.276 1453.37 562.849 1454.01 562.28C1454.58 561.782 1454.87 561 1454.87 559.933C1454.87 558.725 1454.65 557.765 1454.23 557.053C1453.8 556.342 1453.2 555.773 1452.41 555.347C1451.7 554.991 1450.92 554.742 1450.07 554.6L1447.51 554.387C1445.23 554.387 1443.31 554.849 1441.75 555.773C1440.18 556.627 1439.33 558.262 1439.19 560.68H1433.85C1433.85 558.618 1434.24 556.911 1435.03 555.56C1435.81 554.138 1436.88 553 1438.23 552.147C1439.44 551.222 1440.86 550.582 1442.49 550.227C1444.2 549.8 1445.98 549.587 1447.83 549.587C1449.32 549.587 1450.81 549.693 1452.31 549.907C1453.73 550.12 1455.08 550.582 1456.36 551.293C1457.5 551.933 1458.46 552.858 1459.24 554.067C1459.95 555.276 1460.31 556.84 1460.31 558.76V575.827C1460.31 577.107 1460.38 578.031 1460.52 578.6C1460.66 579.24 1461.16 579.56 1462.01 579.56C1462.51 579.56 1463.08 579.453 1463.72 579.24V583.507V583.4ZM1454.87 566.333C1454.16 566.902 1453.23 567.329 1452.09 567.613L1448.57 568.147L1444.95 568.68C1443.74 568.822 1442.64 569.107 1441.64 569.533C1440.64 569.96 1439.83 570.6 1439.19 571.453C1438.55 572.165 1438.23 573.231 1438.23 574.653C1438.23 575.578 1438.4 576.36 1438.76 577C1439.19 577.569 1439.65 578.031 1440.15 578.387C1440.79 578.813 1441.5 579.098 1442.28 579.24C1442.99 579.453 1443.81 579.56 1444.73 579.56C1446.51 579.56 1448.04 579.311 1449.32 578.813C1450.6 578.316 1451.67 577.711 1452.52 577C1453.23 576.218 1453.8 575.4 1454.23 574.547C1454.65 573.622 1454.87 572.769 1454.87 571.987V566.44V566.333ZM1476.31 550.333V540.413H1470.97V550.333H1465.21V555.133H1470.87V576.467C1470.87 577.96 1471.01 579.169 1471.29 580.093C1471.65 581.089 1472.11 581.8 1472.68 582.227C1473.32 582.796 1474.14 583.187 1475.13 583.4C1476.13 583.613 1477.34 583.72 1478.76 583.72H1483.03V578.6H1478.33C1477.84 578.529 1477.44 578.387 1477.16 578.173C1476.8 577.96 1476.56 577.64 1476.41 577.213V555.133H1482.92V550.333H1476.31ZM1496.68 550.333V540.413H1491.24V550.333H1485.59V555.133H1491.24V576.467C1491.24 577.96 1491.38 579.169 1491.67 580.093C1491.95 581.089 1492.38 581.8 1492.95 582.227C1493.66 582.796 1494.48 583.187 1495.4 583.4C1496.47 583.613 1497.71 583.72 1499.13 583.72H1503.29V578.6H1498.6C1498.1 578.529 1497.71 578.387 1497.43 578.173C1497.14 577.96 1496.93 577.64 1496.79 577.213L1496.68 575.72V555.133H1503.29V550.333H1496.68ZM1532.41 563.773H1513.32C1513.46 562.493 1513.75 561.285 1514.17 560.147C1514.67 559.009 1515.31 558.013 1516.09 557.16C1516.95 556.307 1517.91 555.631 1518.97 555.133C1520.18 554.636 1521.5 554.387 1522.92 554.387C1524.27 554.387 1525.48 554.636 1526.55 555.133C1527.76 555.631 1528.75 556.342 1529.53 557.267C1530.39 557.978 1531.06 558.938 1531.56 560.147C1532.06 561.285 1532.34 562.493 1532.41 563.773ZM1537.75 573.053H1532.31C1531.81 575.187 1530.81 576.822 1529.32 577.96C1527.9 579.027 1526.01 579.56 1523.67 579.56C1521.89 579.56 1520.32 579.24 1518.97 578.6C1517.69 578.031 1516.63 577.249 1515.77 576.253C1514.92 575.187 1514.28 574.013 1513.85 572.733C1513.5 571.453 1513.32 570.067 1513.32 568.573H1538.17C1538.32 566.582 1538.14 564.449 1537.64 562.173C1537.21 560.04 1536.4 558.013 1535.19 556.093C1534.05 554.173 1532.48 552.645 1530.49 551.507C1528.57 550.227 1526.16 549.587 1523.24 549.587C1520.96 549.587 1518.83 550.013 1516.84 550.867C1514.99 551.72 1513.36 552.929 1511.93 554.493C1510.58 556.058 1509.52 557.871 1508.73 559.933C1508.02 562.067 1507.67 564.378 1507.67 566.867C1507.67 569.427 1508.02 571.773 1508.73 573.907C1509.44 576.04 1510.44 577.853 1511.72 579.347C1513 580.911 1514.64 582.12 1516.63 582.973C1518.55 583.827 1520.86 584.253 1523.56 584.253C1527.33 584.253 1530.42 583.329 1532.84 581.48C1535.33 579.56 1536.96 576.716 1537.75 572.947V573.053ZM1543.72 550.333V583.613H1549.05V568.787C1549.05 566.653 1549.3 564.769 1549.8 563.133C1550.23 561.498 1550.94 560.076 1551.93 558.867C1552.79 557.729 1554 556.876 1555.56 556.307C1557.12 555.667 1558.97 555.347 1561.11 555.347V549.587C1558.19 549.516 1555.77 550.12 1553.85 551.4C1551.93 552.68 1550.3 554.671 1548.95 557.373H1548.84V550.333H1543.72ZM1566.55 550.333V583.613H1571.88V564.733C1571.88 563.24 1572.09 561.853 1572.52 560.573C1572.95 559.293 1573.59 558.191 1574.44 557.267C1575.22 556.342 1576.22 555.631 1577.43 555.133C1578.64 554.565 1580.06 554.28 1581.69 554.28C1583.83 554.28 1585.5 554.885 1586.71 556.093C1587.92 557.302 1588.52 558.938 1588.52 561V583.4H1593.96V561.64C1593.96 559.862 1593.78 558.227 1593.43 556.733C1593.07 555.311 1592.43 554.031 1591.51 552.893C1590.65 551.827 1589.48 551.009 1587.99 550.44C1586.56 549.8 1584.79 549.48 1582.65 549.48C1577.68 549.48 1574.05 551.507 1571.77 555.56H1571.67V550.227H1566.55V550.333ZM715.56 618.067V663.827H720.893V617.96H715.56V618.067ZM735.293 624.68V617.96H729.853V624.68H735.187H735.293ZM729.853 630.653V663.72H735.187V630.653H729.853ZM743.933 618.067V663.827H749.48V659.347C750.191 660.342 750.938 661.196 751.72 661.907C752.644 662.547 753.604 663.045 754.6 663.4C755.524 663.827 756.484 664.111 757.48 664.253L760.253 664.467C762.813 664.467 765.018 664.04 766.867 663.187C768.787 662.262 770.387 661.018 771.667 659.453C772.947 657.889 773.871 656.076 774.44 654.013C775.151 651.88 775.507 649.64 775.507 647.293C775.507 644.947 775.151 642.742 774.44 640.68C773.8 638.547 772.84 636.698 771.56 635.133C770.351 633.498 768.787 632.218 766.867 631.293C764.947 630.298 762.707 629.8 760.147 629.8C757.871 629.8 755.738 630.227 753.747 631.08C751.827 631.933 750.404 633.285 749.48 635.133V618.067H743.933ZM769.64 646.867C769.64 648.502 769.462 650.102 769.107 651.667C768.751 653.231 768.218 654.618 767.507 655.827C766.724 656.965 765.658 657.925 764.307 658.707C763.098 659.418 761.569 659.773 759.72 659.773C757.8 659.773 756.2 659.418 754.92 658.707C753.569 657.996 752.467 657.071 751.613 655.933C750.831 654.796 750.227 653.445 749.8 651.88C749.444 650.387 749.267 648.822 749.267 647.187C749.267 645.622 749.444 644.093 749.8 642.6C750.156 641.178 750.724 639.862 751.507 638.653C752.36 637.445 753.427 636.485 754.707 635.773C755.987 635.062 757.551 634.707 759.4 634.707C761.107 634.707 762.636 635.062 763.987 635.773C765.267 636.413 766.333 637.302 767.187 638.44C768.04 639.578 768.644 640.893 769 642.387C769.427 643.809 769.64 645.338 769.64 646.973V646.867ZM781.587 630.653V663.72H787.027V649C787.027 646.867 787.24 644.982 787.667 643.347C788.093 641.711 788.804 640.289 789.8 639.08C790.724 637.942 791.933 637.089 793.427 636.52C794.991 635.951 796.876 635.667 799.08 635.667V629.8C796.093 629.8 793.64 630.405 791.72 631.613C789.8 632.893 788.164 634.885 786.813 637.587H786.707V630.653H781.587ZM832.573 663.72C831.649 664.218 830.369 664.467 828.733 664.467C827.311 664.467 826.173 664.111 825.32 663.4C824.467 662.547 824.04 661.231 824.04 659.453C822.618 661.231 820.876 662.547 818.813 663.4C816.822 664.111 814.689 664.467 812.413 664.467C810.92 664.467 809.498 664.325 808.147 664.04C806.724 663.685 805.551 663.151 804.627 662.44C803.631 661.729 802.849 660.769 802.28 659.56C801.711 658.351 801.427 656.929 801.427 655.293C801.427 653.373 801.747 651.809 802.387 650.6C803.027 649.462 803.844 648.502 804.84 647.72C805.907 647.009 807.116 646.44 808.467 646.013L812.733 645.053L816.893 644.413C818.316 644.271 819.524 644.058 820.52 643.773C821.516 643.489 822.298 643.098 822.867 642.6C823.507 642.031 823.827 641.213 823.827 640.147C823.827 638.938 823.578 637.978 823.08 637.267C822.653 636.556 822.084 636.022 821.373 635.667C820.662 635.24 819.88 634.956 819.027 634.813L816.467 634.707C814.12 634.707 812.2 635.133 810.707 635.987C809.142 636.84 808.289 638.511 808.147 641H802.707C802.778 638.867 803.204 637.089 803.987 635.667C804.698 634.316 805.729 633.213 807.08 632.36C808.36 631.436 809.782 630.796 811.347 630.44C813.053 630.013 814.831 629.8 816.68 629.8C818.244 629.8 819.738 629.907 821.16 630.12C822.653 630.333 824.004 630.796 825.213 631.507C826.422 632.218 827.382 633.142 828.093 634.28C828.804 635.489 829.16 637.053 829.16 638.973V656.04C829.16 657.32 829.231 658.245 829.373 658.813C829.587 659.453 830.12 659.773 830.973 659.773C831.4 659.773 831.933 659.667 832.573 659.453V663.72ZM823.72 646.653C823.009 647.151 822.12 647.542 821.053 647.827L817.533 648.36L813.907 648.893C812.627 649.107 811.489 649.427 810.493 649.853C809.498 650.28 808.68 650.885 808.04 651.667C807.471 652.378 807.187 653.445 807.187 654.867C807.187 655.791 807.364 656.573 807.72 657.213C808.076 657.782 808.538 658.28 809.107 658.707C809.676 659.062 810.387 659.347 811.24 659.56C811.951 659.702 812.733 659.773 813.587 659.773C815.364 659.773 816.929 659.525 818.28 659.027C819.56 658.529 820.591 657.925 821.373 657.213C822.156 656.431 822.76 655.613 823.187 654.76C823.542 653.836 823.72 652.982 823.72 652.2V646.653ZM837.48 630.653V663.72H842.92V649C842.92 646.867 843.133 644.982 843.56 643.347C843.987 641.711 844.698 640.289 845.693 639.08C846.618 637.942 847.827 637.089 849.32 636.52C850.884 635.951 852.769 635.667 854.973 635.667V629.8C851.987 629.8 849.533 630.405 847.613 631.613C845.693 632.893 844.058 634.885 842.707 637.587V630.653H837.48ZM872.147 668.2C871.507 669.836 870.867 671.222 870.227 672.36C869.658 673.498 868.947 674.387 868.093 675.027C867.382 675.738 866.564 676.271 865.64 676.627C864.787 676.911 863.72 677.053 862.44 677.053H860.627L858.707 676.52V671.507L860.307 672.04L862.013 672.253C863.08 672.253 863.969 671.969 864.68 671.4C865.462 670.902 866.067 670.191 866.493 669.267L868.627 663.613L855.507 630.547H861.693L871.4 657.747H871.507L880.787 630.653H886.653L872.147 668.2ZM901.16 656.68V663.827H908.2V656.68H901.16ZM890.707 632.253H896.04C896.04 630.831 896.218 629.445 896.573 628.093C896.929 626.813 897.498 625.711 898.28 624.787C898.991 623.862 899.916 623.116 901.053 622.547C902.191 621.978 903.507 621.693 905 621.693C907.347 621.693 909.16 622.369 910.44 623.72C911.862 625 912.644 626.813 912.787 629.16C912.858 630.796 912.68 632.147 912.253 633.213C911.756 634.351 911.116 635.418 910.333 636.413L907.773 638.973C906.849 639.756 905.96 640.645 905.107 641.64C904.253 642.636 903.542 643.773 902.973 645.053C902.404 646.333 902.084 647.862 902.013 649.64V652.627H907.453V650.173C907.453 649.036 907.596 648.04 907.88 647.187C908.236 646.262 908.662 645.445 909.16 644.733L910.973 642.6L913.107 640.68L915.027 638.547C915.738 637.836 916.342 637.018 916.84 636.093C917.338 635.24 917.729 634.316 918.013 633.32C918.369 632.253 918.547 631.045 918.547 629.693C918.547 627.631 918.191 625.853 917.48 624.36C916.911 622.725 916.022 621.373 914.813 620.307C913.604 619.169 912.182 618.316 910.547 617.747C908.911 617.178 907.062 616.893 905 616.893C902.796 616.893 900.804 617.249 899.027 617.96C897.178 618.813 895.649 619.916 894.44 621.267C893.231 622.689 892.271 624.325 891.56 626.173C890.849 628.093 890.564 630.12 890.707 632.253Z" fill="black"/>
<path d="M513.64 257.747H470.973V897.747H513.64M470.973 577.747H342.973" stroke="black" stroke-width="5.33333"/>
<path d="M83.24 606.547C78.12 606.547 73.6044 605.516 69.6933 603.453C65.7822 601.462 62.76 598.618 60.6267 594.92C58.4933 591.222 57.4267 586.956 57.4267 582.12V578.28C57.4267 577.853 57.5333 577.498 57.7467 577.213C58.1022 576.858 58.5289 576.68 59.0267 576.68H74.28C74.7778 576.68 75.1333 576.858 75.3467 577.213C75.7022 577.498 75.88 577.853 75.88 578.28V581.267C75.88 583.969 76.5911 586.173 78.0133 587.88C79.4356 589.587 81.2133 590.44 83.3467 590.44C85.48 590.44 87.2578 589.622 88.68 587.987C90.1022 586.422 90.8133 584.36 90.8133 581.8C90.8133 579.098 89.9244 576.822 88.1467 574.973C86.3689 572.982 82.92 570.138 77.8 566.44C73.32 563.24 69.7289 560.396 67.0267 557.907C64.1822 555.418 61.8 552.36 59.88 548.733C57.96 545.036 57 540.769 57 535.933C57 528.467 59.3467 522.422 64.04 517.8C68.7333 513.32 74.9556 511.08 82.7067 511.08C90.5289 511.08 96.7867 513.427 101.48 518.12C106.316 522.884 108.733 529.071 108.733 536.68V539.88C108.733 540.307 108.556 540.698 108.2 541.053C107.916 541.338 107.56 541.48 107.133 541.48H91.7733C91.3467 541.48 90.9556 541.338 90.6 541.053C90.3156 540.698 90.1733 540.342 90.1733 539.987V536.253C90.1733 533.551 89.4622 531.418 88.04 529.853C86.6889 528.076 84.9111 527.187 82.7067 527.187C80.5733 527.187 78.8311 528.005 77.48 529.64C76.2 531.133 75.56 533.267 75.56 536.04C75.56 538.671 76.3778 541.018 78.0133 543.08C79.72 545.142 83.0622 547.987 88.04 551.613C93.5867 555.738 97.7111 559.08 100.413 561.64C103.258 564.129 105.462 566.938 107.027 570.067C108.591 573.053 109.373 576.68 109.373 580.947C109.373 588.769 106.991 594.991 102.227 599.613C97.3911 604.236 91.0622 606.547 83.24 606.547ZM148.84 548.52C148.84 549.018 148.662 549.445 148.307 549.8C148.022 550.013 147.667 550.12 147.24 550.12H139.773C139.347 550.12 139.133 550.369 139.133 550.867V582.547C139.133 585.107 139.631 586.885 140.627 587.88C141.551 588.876 142.973 589.338 144.893 589.267H145.96C146.387 589.267 146.742 589.445 147.027 589.8C147.382 590.013 147.56 590.369 147.56 590.867V603.88C147.56 604.307 147.382 604.698 147.027 605.053C146.742 605.338 146.387 605.48 145.96 605.48H140.627C134.084 605.48 129.178 604.413 125.907 602.28C122.636 600.076 121 595.916 121 589.8V550.867C121 550.369 120.787 550.12 120.36 550.12H115.88C115.453 550.12 115.062 550.013 114.707 549.8C114.422 549.445 114.28 549.018 114.28 548.52V538.6C114.28 538.102 114.422 537.747 114.707 537.533C115.062 537.178 115.453 537 115.88 537H120.36C120.787 537 121 536.751 121 536.253V521.533C121 521.036 121.142 520.68 121.427 520.467C121.782 520.111 122.138 519.933 122.493 519.933H137.427C137.924 519.933 138.28 520.111 138.493 520.467C138.92 520.68 139.133 521.036 139.133 521.533V536.253C139.133 536.751 139.347 537 139.773 537H147.24C147.667 537 148.022 537.178 148.307 537.533C148.662 537.747 148.84 538.102 148.84 538.6V548.52ZM181.48 535.933C189.018 535.933 195.169 537.96 199.933 542.013C204.627 546.138 206.973 551.507 206.973 558.12V603.987C206.973 604.342 206.796 604.698 206.44 605.053C206.156 605.338 205.8 605.48 205.373 605.48H189.8C189.302 605.48 188.876 605.338 188.52 605.053C188.307 604.698 188.2 604.342 188.2 603.987V601C188.2 600.716 188.093 600.538 187.88 600.467C187.738 600.325 187.56 600.396 187.347 600.68C184.431 604.449 179.916 606.405 173.8 606.547C168.609 606.547 164.093 605.125 160.253 602.28C156.556 599.436 154.707 594.031 154.707 586.067C154.707 577.747 156.982 572.058 161.533 569C166.156 565.871 172.769 564.307 181.373 564.307H187.453C187.951 564.307 188.2 564.093 188.2 563.667V560.253C188.2 557.907 187.489 555.951 186.067 554.387C184.858 552.822 183.293 552.04 181.373 552.04C179.88 552.04 178.6 552.538 177.533 553.533C176.538 554.387 175.898 555.667 175.613 557.373C175.542 558.44 174.973 558.973 173.907 558.973L157.907 558.867C156.84 558.867 156.307 558.333 156.307 557.267C156.733 550.725 159.258 545.569 163.88 541.8C168.502 537.889 174.369 535.933 181.48 535.933ZM180.2 592.04C182.191 592.04 183.969 591.365 185.533 590.013C187.311 588.591 188.2 586.742 188.2 584.467V578.067C188.2 577.711 187.951 577.533 187.453 577.533H182.013C179.596 577.533 177.64 578.245 176.147 579.667C174.724 580.947 174.013 582.796 174.013 585.213C174.013 587.418 174.547 589.125 175.613 590.333C176.751 591.471 178.28 592.04 180.2 592.04ZM240.573 606.547C232.751 606.547 226.564 604.556 222.013 600.573C217.604 596.591 215.4 591.116 215.4 584.147V558.333C215.4 551.578 217.604 546.138 222.013 542.013C226.564 537.96 232.751 535.933 240.573 535.933C248.396 535.933 254.547 537.925 259.027 541.907C263.507 545.889 265.747 551.08 265.747 557.48V559.933C265.747 560.36 265.569 560.716 265.213 561C265 561.356 264.644 561.533 264.147 561.533L248.573 562.173C247.507 562.173 246.973 561.64 246.973 560.573V558.973C246.973 556.982 246.369 555.347 245.16 554.067C243.951 552.645 242.422 551.933 240.573 551.933C238.653 551.933 237.089 552.645 235.88 554.067C234.742 555.489 234.173 557.373 234.173 559.72V582.653C234.173 585 234.742 586.885 235.88 588.307C237.089 589.729 238.653 590.44 240.573 590.44C242.422 590.44 243.951 589.765 245.16 588.413C246.369 586.991 246.973 585.356 246.973 583.507V581.8C246.973 581.302 247.116 580.947 247.4 580.733C247.756 580.378 248.147 580.2 248.573 580.2H264.147C264.644 580.2 265 580.413 265.213 580.84C265.569 581.125 265.747 581.48 265.747 581.907V585C265.747 591.542 263.507 596.769 259.027 600.68C254.547 604.591 248.396 606.547 240.573 606.547ZM275.667 605.48C275.24 605.48 274.849 605.338 274.493 605.053C274.209 604.698 274.067 604.342 274.067 603.987V513.747C274.067 513.32 274.209 512.965 274.493 512.68C274.849 512.325 275.24 512.147 275.667 512.147H291.24C291.738 512.147 292.093 512.325 292.307 512.68C292.662 512.965 292.84 513.32 292.84 513.747V557.907C292.84 558.262 292.947 558.476 293.16 558.547C293.302 558.547 293.48 558.404 293.693 558.12L305.213 538.067C305.64 537.356 306.351 537 307.347 537H323.347C323.916 537 324.271 537.178 324.413 537.533C324.698 537.889 324.698 538.316 324.413 538.813L309.907 561.213C309.764 561.569 309.729 561.889 309.8 562.173L326.12 603.667V604.307C326.12 605.089 325.658 605.48 324.733 605.48H308.627C307.702 605.48 307.098 605.053 306.813 604.2L298.28 577.747C298.28 577.462 298.173 577.32 297.96 577.32C297.747 577.32 297.604 577.427 297.533 577.64L293.16 584.573L292.84 585.32V603.88C292.84 604.307 292.662 604.698 292.307 605.053C292.093 605.338 291.738 605.48 291.24 605.48H275.667Z" fill="black"/>
<path d="M1793.64 343.08L1878.97 599.08M1878.97 599.08L1793.64 812.413M1878.97 599.08H1964.31" stroke="black" stroke-width="5.33333"/>
<path d="M2025 643.133C2016.96 643.133 2010.49 640.787 2005.59 636.093C2000.75 631.258 1998.33 624.858 1998.33 616.893V573.693C1998.33 565.8 2000.75 559.471 2005.59 554.707C2010.49 550.013 2016.93 547.667 2024.89 547.667C2033 547.667 2039.44 550.013 2044.2 554.707C2049.18 559.4 2051.67 565.729 2051.67 573.693V575.186C2051.67 575.613 2051.45 575.969 2051.03 576.253C2050.74 576.538 2050.39 576.68 2049.96 576.68L2034.39 577.426C2033.32 577.426 2032.79 576.929 2032.79 575.933V572.413C2032.79 569.853 2032.08 567.791 2030.65 566.226C2029.23 564.591 2027.31 563.773 2024.89 563.773C2022.62 563.773 2020.77 564.591 2019.35 566.226C2017.92 567.791 2017.21 569.889 2017.21 572.52V618.386C2017.21 621.018 2017.92 623.151 2019.35 624.786C2020.77 626.209 2022.62 626.92 2024.89 626.92C2027.31 626.92 2029.23 626.209 2030.65 624.786C2032.08 623.151 2032.79 621.018 2032.79 618.386V614.867C2032.79 614.44 2032.93 614.084 2033.21 613.8C2033.57 613.444 2033.96 613.267 2034.39 613.267L2049.96 613.906C2050.39 613.906 2050.74 614.084 2051.03 614.44C2051.38 614.724 2051.56 615.08 2051.56 615.506V616.893C2051.56 624.858 2049.11 631.258 2044.2 636.093C2039.36 640.787 2032.96 643.133 2025 643.133ZM2061.69 642.067C2061.27 642.067 2060.88 641.924 2060.52 641.64C2060.24 641.284 2060.09 640.893 2060.09 640.467V550.333C2060.09 549.907 2060.24 549.551 2060.52 549.267C2060.88 548.911 2061.27 548.733 2061.69 548.733H2077.27C2077.76 548.733 2078.12 548.911 2078.33 549.267C2078.69 549.551 2078.87 549.907 2078.87 550.333V640.467C2078.87 640.893 2078.69 641.284 2078.33 641.64C2078.12 641.924 2077.76 642.067 2077.27 642.067H2061.69ZM2119.19 575.186C2119.19 574.689 2119.33 574.333 2119.61 574.12C2119.97 573.764 2120.32 573.586 2120.68 573.586H2136.36C2136.79 573.586 2137.14 573.764 2137.43 574.12C2137.78 574.333 2137.96 574.689 2137.96 575.186V640.467C2137.96 640.893 2137.78 641.284 2137.43 641.64C2137.14 641.924 2136.79 642.067 2136.36 642.067H2120.79C2120.36 642.067 2119.97 641.924 2119.61 641.64C2119.33 641.284 2119.19 640.893 2119.19 640.467V638.227C2119.19 637.942 2119.08 637.764 2118.87 637.693C2118.72 637.622 2118.55 637.693 2118.33 637.906C2117.05 639.755 2115.38 641.107 2113.32 641.96C2111.33 642.671 2109.02 643.027 2106.39 643.027C2101.05 643.027 2096.64 641.427 2093.16 638.227C2089.68 634.955 2087.93 629.942 2087.93 623.186V575.186C2087.93 574.689 2088.08 574.333 2088.36 574.12C2088.72 573.693 2089.11 573.48 2089.53 573.48H2105.21C2105.64 573.48 2106 573.693 2106.28 574.12C2106.64 574.333 2106.81 574.689 2106.81 575.186V618.92C2106.81 621.551 2107.28 623.578 2108.2 625C2109.27 626.351 2110.8 627.027 2112.79 627.027C2114.71 627.027 2116.27 626.28 2117.48 624.786C2118.62 623.222 2119.19 621.16 2119.19 618.6V575.08V575.186ZM2170.81 643.027C2163.28 643.027 2157.23 641.249 2152.68 637.693C2148.2 633.995 2145.96 629.124 2145.96 623.08V622.227C2145.96 621.729 2146.1 621.373 2146.39 621.16C2146.74 620.804 2147.13 620.627 2147.56 620.627H2162.28C2162.71 620.627 2163.06 620.804 2163.35 621.16C2163.7 621.373 2163.88 621.729 2163.88 622.227V622.547C2163.88 624.467 2164.56 626.031 2165.91 627.24C2167.19 628.378 2168.82 628.947 2170.81 628.947C2172.59 628.947 2173.98 628.484 2174.97 627.56C2176.04 626.493 2176.57 625.142 2176.57 623.506C2176.57 621.586 2175.72 620.093 2174.01 619.027C2172.31 617.818 2170.39 616.858 2168.25 616.147L2163.99 614.547C2159.08 612.769 2154.96 610.351 2151.61 607.293C2148.34 604.093 2146.71 599.507 2146.71 593.533C2146.71 587.062 2148.84 581.942 2153.11 578.173C2157.37 574.475 2163.06 572.626 2170.17 572.626C2177.5 572.626 2183.29 574.582 2187.56 578.493C2191.97 582.404 2194.17 587.667 2194.17 594.28C2194.17 594.778 2194 595.204 2193.64 595.56C2193.36 595.773 2193 595.88 2192.57 595.88H2178.28C2177.85 595.88 2177.46 595.773 2177.11 595.56C2176.82 595.204 2176.68 594.778 2176.68 594.28V593.213C2176.68 591.435 2176.11 590.013 2174.97 588.947C2173.91 587.809 2172.48 587.24 2170.71 587.24C2168.79 587.24 2167.29 587.88 2166.23 589.16C2165.16 590.298 2164.63 591.649 2164.63 593.213C2164.63 595.347 2165.52 597.053 2167.29 598.333C2169.21 599.471 2172.06 600.751 2175.83 602.173C2179.6 603.595 2182.8 605.053 2185.43 606.547C2188.27 607.969 2190.65 610.102 2192.57 612.947C2194.49 615.578 2195.45 618.92 2195.45 622.973C2195.45 629.089 2193.18 633.995 2188.63 637.693C2184.22 641.249 2178.28 643.027 2170.81 643.027ZM2234.07 585.107C2234.07 585.533 2233.89 585.924 2233.53 586.28C2233.25 586.564 2232.89 586.707 2232.47 586.707H2225C2224.5 586.707 2224.25 586.92 2224.25 587.347V619.133C2224.25 621.693 2224.75 623.471 2225.75 624.467C2226.74 625.462 2228.2 625.889 2230.12 625.747H2231.08C2231.51 625.747 2231.86 625.924 2232.15 626.28C2232.5 626.564 2232.68 626.92 2232.68 627.347V640.467C2232.68 640.893 2232.5 641.284 2232.15 641.64C2231.86 641.924 2231.51 642.067 2231.08 642.067H2225.75C2219.28 642.067 2214.37 641 2211.03 638.867C2207.76 636.662 2206.12 632.467 2206.12 626.28V587.347C2206.12 586.92 2205.91 586.707 2205.48 586.707H2201.11C2200.68 586.707 2200.29 586.564 2199.93 586.28C2199.65 585.924 2199.51 585.569 2199.51 585.213V575.08C2199.51 574.653 2199.65 574.298 2199.93 574.013C2200.29 573.658 2200.64 573.48 2201 573.48H2205.48C2205.91 573.48 2206.12 573.267 2206.12 572.84V558.013C2206.12 557.587 2206.26 557.231 2206.55 556.947C2206.9 556.591 2207.29 556.413 2207.72 556.413H2222.65C2223.15 556.413 2223.51 556.591 2223.72 556.947C2224.08 557.231 2224.25 557.587 2224.25 558.013V572.947C2224.25 573.302 2224.5 573.48 2225 573.48H2232.47C2232.89 573.48 2233.25 573.658 2233.53 574.013C2233.89 574.298 2234.07 574.653 2234.07 575.08V585.107ZM2291.35 612.093C2291.35 612.52 2291.17 612.911 2290.81 613.267C2290.53 613.551 2290.17 613.693 2289.75 613.693H2260.41C2259.99 613.693 2259.77 613.907 2259.77 614.333V619.24C2259.77 621.444 2260.34 623.329 2261.48 624.893C2262.76 626.315 2264.32 627.027 2266.17 627.027C2267.81 627.027 2269.16 626.493 2270.23 625.427C2271.29 624.218 2272 622.795 2272.36 621.16C2272.64 620.235 2273.25 619.773 2274.17 619.773L2289.43 620.627C2289.92 620.627 2290.28 620.804 2290.49 621.16C2290.85 621.373 2290.99 621.764 2290.92 622.333C2290.28 629.16 2287.9 634.351 2283.77 637.906C2279.65 641.391 2273.78 643.133 2266.17 643.133C2258.21 643.133 2252.02 641.178 2247.61 637.267C2243.13 633.284 2240.89 627.773 2240.89 620.733V594.813C2240.89 588.058 2243.13 582.653 2247.61 578.6C2252.16 574.475 2258.35 572.413 2266.17 572.413C2274 572.413 2280.11 574.475 2284.52 578.6C2289.07 582.653 2291.35 588.058 2291.35 594.813V612.093ZM2266.17 588.626C2264.25 588.626 2262.69 589.338 2261.48 590.76C2260.34 592.182 2259.77 593.995 2259.77 596.2V601.427C2259.77 601.853 2259.99 602.067 2260.41 602.067H2271.93C2272.36 602.067 2272.57 601.853 2272.57 601.427V596.2C2272.57 593.995 2271.93 592.182 2270.65 590.76C2269.52 589.338 2268.02 588.626 2266.17 588.626ZM2330.6 572.733C2333.02 572.733 2334.9 573.195 2336.25 574.12C2336.96 574.546 2337.21 575.187 2337 576.04L2334.44 591.72C2334.44 592.644 2333.84 593 2332.63 592.786C2331.63 592.431 2330.42 592.253 2329 592.253C2327.65 592.253 2326.51 592.431 2325.59 592.786C2323.45 593.142 2321.78 594.386 2320.57 596.52C2319.36 598.511 2318.76 600.893 2318.76 603.667V640.36C2318.76 640.787 2318.58 641.178 2318.23 641.533C2317.94 641.818 2317.59 641.96 2317.16 641.96H2301.59C2301.09 641.96 2300.66 641.818 2300.31 641.533C2300.09 641.178 2299.99 640.787 2299.99 640.36V575.186C2299.99 574.689 2300.09 574.333 2300.31 574.12C2300.66 573.693 2301.09 573.48 2301.59 573.48H2317.16C2317.59 573.48 2317.94 573.693 2318.23 574.12C2318.58 574.333 2318.76 574.689 2318.76 575.186V580.307L2318.87 580.947C2319.08 580.947 2319.26 580.84 2319.4 580.626C2321.82 575.364 2325.55 572.733 2330.6 572.733Z" fill="black"/>
<path d="M1110.97 897.747V1025.75" stroke="black" stroke-width="5.33333"/>
<path d="M1081.11 1107.03C1081.11 1115.28 1078.62 1121.6 1073.64 1126.01C1068.66 1130.49 1062.23 1132.73 1054.33 1132.73H1029.16C1028.66 1132.73 1028.24 1132.59 1027.88 1132.31C1027.67 1131.95 1027.56 1131.56 1027.56 1131.13V1041C1027.56 1040.57 1027.67 1040.22 1027.88 1039.93C1028.24 1039.58 1028.66 1039.4 1029.16 1039.4H1051.35C1060.24 1039.4 1067.17 1041.53 1072.15 1045.8C1077.27 1050.07 1079.83 1056.43 1079.83 1064.89C1079.83 1073.64 1076.8 1080.04 1070.76 1084.09C1070.4 1084.31 1070.33 1084.56 1070.55 1084.84C1077.66 1089.82 1081.21 1097.21 1081.21 1107.03H1081.11ZM1046.97 1055.51C1046.55 1055.51 1046.33 1055.72 1046.33 1056.15V1077.16C1046.33 1077.59 1046.55 1077.8 1046.97 1077.8H1051.77C1054.83 1077.8 1057.18 1076.88 1058.81 1075.03C1060.52 1073.04 1061.37 1070.3 1061.37 1066.81C1061.37 1063.26 1060.52 1060.48 1058.81 1058.49C1057.25 1056.5 1054.9 1055.51 1051.77 1055.51H1046.97ZM1052.84 1116.41C1055.76 1116.41 1058.07 1115.35 1059.77 1113.21C1061.48 1111.08 1062.33 1108.06 1062.33 1104.15C1062.33 1100.24 1061.44 1097.14 1059.67 1094.87C1057.96 1092.52 1055.68 1091.35 1052.84 1091.35H1046.87C1046.44 1091.35 1046.23 1091.6 1046.23 1092.09V1115.77C1046.23 1116.2 1046.44 1116.41 1046.87 1116.41H1052.73H1052.84ZM1113.85 1133.8C1106.03 1133.8 1099.81 1131.81 1095.19 1127.83C1090.78 1123.84 1088.57 1118.37 1088.57 1111.4V1085.48C1088.57 1078.72 1090.85 1073.32 1095.4 1069.27C1099.88 1065.14 1106.03 1063.08 1113.85 1063.08C1121.82 1063.08 1128.04 1065.14 1132.52 1069.27C1137.07 1073.39 1139.35 1078.83 1139.35 1085.59V1111.4C1139.35 1118.37 1137.07 1123.84 1132.52 1127.83C1128.11 1131.81 1121.89 1133.8 1113.85 1133.8ZM1113.85 1117.48C1115.84 1117.48 1117.44 1116.77 1118.65 1115.35C1119.93 1113.92 1120.57 1112.15 1120.57 1110.01V1086.87C1120.57 1084.66 1119.93 1082.85 1118.65 1081.43C1117.44 1080 1115.84 1079.29 1113.85 1079.29C1111.93 1079.29 1110.33 1080 1109.05 1081.43C1107.92 1082.85 1107.35 1084.66 1107.35 1086.87V1109.91C1107.35 1112.11 1107.92 1113.92 1109.05 1115.35C1110.33 1116.77 1111.93 1117.48 1113.85 1117.48ZM1144.15 1132.73C1143.51 1132.73 1143.04 1132.59 1142.76 1132.31C1142.62 1131.95 1142.69 1131.45 1142.97 1130.81L1158.12 1098.81V1098.07L1142.97 1066.07C1142.76 1065.71 1142.65 1065.43 1142.65 1065.21C1142.65 1064.5 1143.15 1064.15 1144.15 1064.15H1161.21C1162.07 1064.15 1162.67 1064.57 1163.03 1065.43L1169.64 1080.47C1169.85 1081.04 1170.1 1081.04 1170.39 1080.47L1176.89 1065.43C1177.25 1064.64 1177.89 1064.25 1178.81 1064.25H1195.77C1196.34 1064.25 1196.7 1064.43 1196.84 1064.79C1197.2 1065 1197.2 1065.43 1196.84 1066.07L1181.69 1098.07C1181.62 1098.35 1181.62 1098.64 1181.69 1098.92L1196.95 1130.92L1197.16 1131.67C1197.16 1132.38 1196.7 1132.73 1195.77 1132.73H1178.71C1177.78 1132.73 1177.18 1132.34 1176.89 1131.56L1170.39 1115.99C1170.1 1115.28 1169.85 1115.28 1169.64 1115.99L1163.03 1131.56C1162.81 1132.34 1162.21 1132.73 1161.21 1132.73H1144.15Z" fill="black"/>
<path d="M709.907 430.546V387.88H1605.91V430.546M1196.31 385.746V172.413" stroke="black" stroke-width="5.33333"/>
<path d="M1090.17 152.467C1082.21 152.467 1075.81 150.12 1070.97 145.427C1066.14 140.591 1063.72 134.191 1063.72 126.227V83.0267C1063.72 75.1333 1066.1 68.8044 1070.87 64.04C1075.77 59.3467 1082.21 57 1090.17 57C1098.28 57 1104.75 59.3467 1109.59 64.04C1114.42 68.8044 1116.84 75.1333 1116.84 83.0267V84.52C1116.84 84.9467 1116.66 85.3022 1116.31 85.5867C1116.09 85.8711 1115.74 86.0133 1115.24 86.0133L1099.67 86.76C1098.6 86.76 1098.07 86.2622 1098.07 85.2667V81.7467C1098.07 79.1867 1097.36 77.1244 1095.93 75.56C1094.51 73.9244 1092.59 73.1067 1090.17 73.1067C1087.9 73.1067 1086.05 73.9244 1084.63 75.56C1083.2 77.1244 1082.49 79.2222 1082.49 81.8533V127.72C1082.49 130.351 1083.2 132.484 1084.63 134.12C1086.05 135.542 1087.9 136.253 1090.17 136.253C1092.59 136.253 1094.51 135.542 1095.93 134.12C1097.36 132.484 1098.07 130.351 1098.07 127.72V124.2C1098.07 123.773 1098.21 123.418 1098.49 123.133C1098.85 122.778 1099.24 122.6 1099.67 122.6L1115.24 123.24C1115.74 123.24 1116.09 123.418 1116.31 123.773C1116.66 124.058 1116.84 124.413 1116.84 124.84V126.333C1116.84 134.298 1114.42 140.698 1109.59 145.533C1104.61 150.227 1098.14 152.573 1090.17 152.573V152.467ZM1174.65 121.427C1174.65 121.853 1174.48 122.244 1174.12 122.6C1173.84 122.884 1173.48 123.027 1173.05 123.027H1143.72C1143.22 123.027 1142.97 123.24 1142.97 123.667V128.467C1142.97 130.671 1143.58 132.556 1144.79 134.12C1146 135.542 1147.52 136.253 1149.37 136.253C1151.08 136.253 1152.5 135.72 1153.64 134.653C1154.64 133.444 1155.35 132.022 1155.77 130.387C1155.99 129.462 1156.52 129 1157.37 129L1172.73 129.853C1173.16 129.853 1173.52 130.031 1173.8 130.387C1174.16 130.6 1174.3 130.956 1174.23 131.453C1173.59 138.351 1171.17 143.578 1166.97 147.133C1162.92 150.618 1157.05 152.36 1149.37 152.36C1141.55 152.36 1135.4 150.404 1130.92 146.493C1126.44 142.511 1124.2 137 1124.2 129.96V104.147C1124.2 97.3911 1126.44 91.9867 1130.92 87.9333C1135.4 83.8089 1141.55 81.7467 1149.37 81.7467C1157.2 81.7467 1163.35 83.8089 1167.83 87.9333C1172.38 91.9867 1174.65 97.3911 1174.65 104.147V121.427ZM1149.37 97.96C1147.52 97.96 1146 98.6711 1144.79 100.093C1143.58 101.516 1142.97 103.329 1142.97 105.533V110.76C1142.97 111.187 1143.22 111.4 1143.72 111.4H1155.13C1155.56 111.4 1155.77 111.187 1155.77 110.76V105.533C1155.77 103.329 1155.17 101.516 1153.96 100.093C1152.82 98.6711 1151.29 97.96 1149.37 97.96ZM1215.08 81.8533C1221.12 81.8533 1225.68 83.8444 1228.73 87.8267C1231.72 91.8089 1233.21 97.3911 1233.21 104.573V149.8C1233.21 150.227 1233.04 150.618 1232.68 150.973C1232.4 151.258 1232.04 151.4 1231.61 151.4H1216.04C1215.61 151.4 1215.22 151.258 1214.87 150.973C1214.58 150.618 1214.44 150.227 1214.44 149.8V106.067C1214.44 103.507 1213.91 101.516 1212.84 100.093C1211.84 98.6711 1210.39 97.96 1208.47 97.96C1206.33 97.96 1204.73 98.7067 1203.67 100.2C1202.6 101.622 1202.07 103.684 1202.07 106.387V149.8C1202.07 150.227 1201.89 150.618 1201.53 150.973C1201.25 151.258 1200.89 151.4 1200.47 151.4H1184.79C1184.36 151.4 1183.97 151.258 1183.61 150.973C1183.33 150.618 1183.19 150.227 1183.19 149.8V84.4133C1183.19 83.9867 1183.33 83.6311 1183.61 83.3467C1183.97 83.0622 1184.36 82.92 1184.79 82.92H1200.47C1200.89 82.92 1201.25 83.0622 1201.53 83.3467C1201.89 83.6311 1202.07 83.9867 1202.07 84.4133V86.9733C1202.07 87.2578 1202.14 87.4 1202.28 87.4C1202.56 87.4 1202.88 87.2222 1203.24 86.8667C1206.08 83.4533 1210.03 81.7467 1215.08 81.7467V81.8533ZM1273.75 94.44C1273.75 94.8667 1273.57 95.2578 1273.21 95.6133C1273 95.8978 1272.64 96.04 1272.15 96.04H1264.68C1264.25 96.04 1264.04 96.2533 1264.04 96.68V128.467C1264.04 131.027 1264.54 132.804 1265.53 133.8C1266.53 134.796 1267.99 135.222 1269.91 135.08H1270.87C1271.29 135.08 1271.65 135.258 1271.93 135.613C1272.29 135.898 1272.47 136.253 1272.47 136.68V149.8C1272.47 150.227 1272.29 150.618 1271.93 150.973C1271.65 151.258 1271.29 151.4 1270.87 151.4H1265.53C1259.06 151.4 1254.16 150.333 1250.81 148.2C1247.54 145.996 1245.91 141.8 1245.91 135.613V96.68C1245.91 96.2533 1245.69 96.04 1245.27 96.04H1240.89C1240.4 96.04 1239.97 95.8978 1239.61 95.6133C1239.4 95.2578 1239.29 94.9022 1239.29 94.5467V84.4133C1239.29 83.9867 1239.4 83.6311 1239.61 83.3467C1239.97 82.9911 1240.4 82.8133 1240.89 82.8133H1245.16C1245.66 82.8133 1245.91 82.6 1245.91 82.1733V67.3467C1245.91 66.92 1246.05 66.5644 1246.33 66.28C1246.69 65.9244 1247.08 65.7467 1247.51 65.7467H1262.44C1262.87 65.7467 1263.22 65.9244 1263.51 66.28C1263.86 66.5644 1264.04 66.92 1264.04 67.3467V82.28C1264.04 82.6356 1264.25 82.8133 1264.68 82.8133H1272.15C1272.64 82.8133 1273 82.9911 1273.21 83.3467C1273.57 83.6311 1273.75 83.9867 1273.75 84.4133V94.44ZM1331.13 121.427C1331.13 121.853 1330.96 122.244 1330.6 122.6C1330.32 122.884 1329.96 123.027 1329.53 123.027H1300.2C1299.77 123.027 1299.56 123.24 1299.56 123.667V128.467C1299.56 130.671 1300.13 132.556 1301.27 134.12C1302.48 135.542 1304.04 136.253 1305.96 136.253C1307.6 136.253 1308.95 135.72 1310.01 134.653C1311.08 133.444 1311.79 132.022 1312.15 130.387C1312.43 129.462 1313.04 129 1313.96 129L1329.21 129.853C1329.71 129.853 1330.07 130.031 1330.28 130.387C1330.64 130.6 1330.78 130.956 1330.71 131.453C1330.07 138.351 1327.68 143.578 1323.56 147.133C1319.44 150.618 1313.57 152.36 1305.96 152.36C1298 152.36 1291.81 150.404 1287.4 146.493C1282.92 142.511 1280.68 137 1280.68 129.96V104.147C1280.68 97.3911 1282.92 91.9867 1287.4 87.9333C1291.95 83.8089 1298.14 81.7467 1305.96 81.7467C1313.78 81.7467 1319.9 83.8089 1324.31 87.9333C1328.86 91.9867 1331.13 97.3911 1331.13 104.147V121.427ZM1305.96 97.96C1304.04 97.96 1302.48 98.6711 1301.27 100.093C1300.13 101.516 1299.56 103.329 1299.56 105.533V110.76C1299.56 111.187 1299.77 111.4 1300.2 111.4H1311.61C1312.11 111.4 1312.36 111.187 1312.36 110.76V105.533C1312.36 103.329 1311.72 101.516 1310.44 100.093C1309.3 98.6711 1307.81 97.96 1305.96 97.96ZM1370.39 82.0667C1372.8 82.0667 1374.69 82.5289 1376.04 83.4533C1376.75 83.88 1377 84.52 1376.79 85.3733L1374.23 100.947C1374.23 101.942 1373.62 102.298 1372.41 102.013C1371.42 101.658 1370.21 101.48 1368.79 101.48C1367.44 101.48 1366.3 101.658 1365.37 102.013C1363.24 102.369 1361.57 103.613 1360.36 105.747C1359.15 107.88 1358.55 110.298 1358.55 113V149.693C1358.55 150.12 1358.37 150.511 1358.01 150.867C1357.73 151.151 1357.37 151.293 1356.95 151.293H1341.27C1340.77 151.293 1340.34 151.151 1339.99 150.867C1339.77 150.511 1339.67 150.12 1339.67 149.693V84.4133C1339.67 83.9867 1339.77 83.6311 1339.99 83.3467C1340.34 83.0622 1340.77 82.92 1341.27 82.92H1356.84C1357.27 82.92 1357.62 83.0622 1357.91 83.3467C1358.26 83.6311 1358.44 83.9867 1358.44 84.4133V89.7467L1358.55 90.3867C1358.76 90.3867 1358.94 90.2444 1359.08 89.96C1361.5 84.6978 1365.23 82.0667 1370.28 82.0667H1370.39Z" fill="black"/>
</g>
<defs>
<clipPath id="clip0_2112_83">
<rect width="2280" height="1076.8" fill="white" transform="translate(57 57)"/>
</clipPath>
</defs>
</svg>
