<svg width="2786" height="1428" viewBox="0 0 2786 1428" fill="none" xmlns="http://www.w3.org/2000/svg">
<rect width="2786" height="1428" fill="white"/>
<g clip-path="url(#clip0_2112_85)">
<path d="M556.805 61.333H1748.45V1134.16H556.805V61.333Z" stroke="black" stroke-width="10.6664" stroke-linecap="round" stroke-linejoin="round"/>
<path d="M1429.21 986.643H1703.44V1092.45H1429.32L1429.21 986.643Z" fill="black" stroke="black" stroke-width="8.63978" stroke-linecap="round" stroke-linejoin="round"/>
<path d="M512.112 59.1997H470.513V1134.59H512.112M469.98 815.661H341.983" stroke="black" stroke-width="5.3332"/>
<path d="M82.2565 844.46C77.1366 844.46 72.6212 843.393 68.7102 841.26C64.7992 839.127 61.777 836.282 59.6438 832.727C57.5105 829.029 56.4438 824.763 56.4438 819.927V816.194C56.4438 815.696 56.5505 815.341 56.7638 815.127C57.1194 814.772 57.546 814.594 58.0438 814.594H73.2967C73.7945 814.594 74.1501 814.772 74.3634 815.127C74.7189 815.341 74.8967 815.696 74.8967 816.194V819.074C74.8967 821.847 75.6078 824.087 77.03 825.794C78.4522 827.5 80.2299 828.318 82.3632 828.247C84.4965 828.176 86.2742 827.394 87.6964 825.9C89.1186 824.407 89.8297 822.309 89.8297 819.607C89.8297 816.976 88.9408 814.701 87.1631 812.781C85.3853 810.861 81.9365 808.016 76.8167 804.248C72.3368 801.048 68.7457 798.203 66.0436 795.715C63.3414 793.226 60.9593 790.204 58.8971 786.648C56.8349 783.093 55.875 778.826 56.0172 773.848C56.0172 766.311 58.3638 760.267 63.057 755.716C67.7502 751.165 73.9723 748.925 81.7232 748.996C89.5452 748.996 95.8028 751.342 100.496 756.036C105.331 760.729 107.749 766.915 107.749 774.595V777.795C107.749 778.222 107.571 778.577 107.216 778.862C106.931 779.217 106.576 779.395 106.149 779.395H90.7896C90.363 779.395 89.9719 779.253 89.6163 778.968C89.3319 778.613 89.1897 778.222 89.1897 777.795V774.168C89.1897 771.395 88.4786 769.226 87.0564 767.662C85.7053 765.955 83.9276 765.102 81.7232 765.102C79.5899 765.102 77.8477 765.884 76.4967 767.449C75.2167 769.013 74.5767 771.146 74.5767 773.848C74.5767 776.551 75.3945 778.933 77.03 780.995C78.6655 783.057 82.0076 785.902 87.0564 789.528C92.6029 793.581 96.7273 796.888 99.4294 799.448C102.274 801.937 104.478 804.781 106.043 807.981C107.607 810.968 108.389 814.594 108.389 818.861C108.389 826.683 106.007 832.905 101.243 837.527C96.4784 842.149 90.1497 844.46 82.2565 844.46ZM147.855 786.435C147.855 786.861 147.677 787.253 147.322 787.608C147.037 787.893 146.682 788.035 146.255 788.035H138.788C138.362 788.035 138.148 788.248 138.148 788.675V820.461C138.148 823.021 138.646 824.798 139.642 825.794C140.637 826.789 142.059 827.216 143.908 827.074H144.975C145.402 827.074 145.757 827.252 146.042 827.607C146.397 827.892 146.575 828.247 146.575 828.674V841.793C146.575 842.22 146.397 842.576 146.042 842.86C145.757 843.216 145.402 843.393 144.975 843.393H139.642C133.1 843.393 128.193 842.327 124.922 840.193C121.651 837.918 120.016 833.723 120.016 827.607V788.781C120.016 788.355 119.802 788.141 119.376 788.141H114.896C114.469 788.141 114.078 787.999 113.722 787.715C113.438 787.359 113.296 786.968 113.296 786.542V776.515C113.296 776.088 113.438 775.733 113.722 775.448C114.078 775.093 114.469 774.915 114.896 774.915H119.376C119.802 774.915 120.016 774.702 120.016 774.275V759.449C120.016 759.022 120.158 758.667 120.442 758.382C120.798 758.027 121.153 757.849 121.509 757.849H136.442C136.94 757.849 137.295 758.027 137.508 758.382C137.935 758.667 138.148 759.022 138.148 759.449V774.275C138.148 774.702 138.362 774.915 138.788 774.915H146.255C146.682 774.915 147.037 775.093 147.322 775.448C147.677 775.733 147.855 776.088 147.855 776.515V786.542V786.435ZM180.494 773.848C188.032 773.848 194.183 775.875 198.947 779.928C203.711 783.982 206.058 789.315 205.987 795.928V841.793C205.987 842.22 205.809 842.576 205.453 842.86C205.169 843.216 204.813 843.393 204.387 843.393H188.814C188.316 843.393 187.889 843.251 187.534 842.967C187.321 842.611 187.214 842.22 187.214 841.793V838.807C187.214 838.522 187.107 838.345 186.894 838.274C186.681 838.202 186.503 838.309 186.361 838.594C183.445 842.291 178.93 844.247 172.814 844.46C167.623 844.46 163.108 843.038 159.268 840.193C155.57 837.349 153.721 831.909 153.721 823.874C153.721 815.625 155.997 809.936 160.548 806.808C165.17 803.679 171.783 802.114 180.387 802.114H186.467C186.965 802.114 187.214 801.901 187.214 801.474V798.168C187.214 795.75 186.503 793.795 185.081 792.301C183.872 790.666 182.307 789.848 180.387 789.848C178.894 789.848 177.614 790.346 176.547 791.341C175.552 792.266 174.912 793.546 174.628 795.181C174.556 796.248 173.988 796.781 172.921 796.781H156.921C155.855 796.781 155.321 796.212 155.321 795.075C155.748 788.604 158.272 783.448 162.894 779.608C167.517 775.697 173.383 773.742 180.494 773.742V773.848ZM179.214 829.847C181.205 829.847 182.983 829.207 184.547 827.927C186.325 826.505 187.214 824.621 187.214 822.274V815.981C187.214 815.554 186.965 815.341 186.467 815.341H181.027C178.61 815.341 176.654 816.052 175.161 817.474C173.739 818.825 173.028 820.71 173.028 823.127C173.028 825.261 173.561 826.932 174.628 828.14C175.765 829.278 177.294 829.847 179.214 829.847ZM239.586 844.46C231.764 844.46 225.577 842.433 221.026 838.38C216.618 834.398 214.413 828.958 214.413 822.061V796.141C214.413 789.386 216.618 783.982 221.026 779.928C225.577 775.804 231.764 773.742 239.586 773.742C247.408 773.742 253.559 775.733 258.039 779.715C262.519 783.768 264.759 788.995 264.759 795.395V797.741C264.759 798.168 264.581 798.559 264.225 798.915C264.012 799.199 263.656 799.341 263.159 799.341L247.586 799.981C246.519 799.981 245.986 799.448 245.986 798.381V796.781C245.986 794.861 245.381 793.226 244.172 791.875C242.964 790.524 241.435 789.848 239.586 789.848C237.666 789.848 236.102 790.559 234.893 791.981C233.684 793.404 233.115 795.288 233.186 797.635V820.567C233.186 822.843 233.755 824.692 234.893 826.114C236.03 827.536 237.595 828.247 239.586 828.247C241.435 828.247 242.964 827.607 244.172 826.327C245.381 824.905 245.986 823.234 245.986 821.314V819.714C245.986 819.287 246.128 818.932 246.412 818.647C246.768 818.292 247.159 818.114 247.586 818.114L263.159 818.221C263.656 818.221 264.012 818.398 264.225 818.754C264.581 819.038 264.759 819.394 264.759 819.821V823.021C264.759 829.563 262.519 834.789 258.039 838.7C253.559 842.611 247.408 844.567 239.586 844.567V844.46ZM274.678 843.393C274.252 843.393 273.861 843.251 273.505 842.967C273.221 842.611 273.078 842.22 273.078 841.793V751.662C273.078 751.165 273.221 750.809 273.505 750.596C273.861 750.24 274.252 750.062 274.678 750.062H290.251C290.749 750.062 291.105 750.24 291.318 750.596C291.673 750.809 291.851 751.165 291.851 751.662V795.715C291.851 796.07 291.958 796.319 292.171 796.461C292.313 796.461 292.491 796.319 292.705 796.035L304.224 775.875C304.651 775.164 305.362 774.808 306.358 774.808H322.357C322.926 774.808 323.282 774.986 323.424 775.342C323.708 775.697 323.708 776.16 323.424 776.728L308.917 799.128C308.775 799.483 308.74 799.768 308.811 799.981L325.13 841.58V842.113C325.13 842.967 324.668 843.393 323.744 843.393H307.637C306.713 843.393 306.109 842.931 305.824 842.007L297.291 815.661C297.291 815.376 297.184 815.234 296.971 815.234C296.758 815.163 296.616 815.234 296.544 815.447L292.171 822.381C291.958 822.736 291.851 823.021 291.851 823.234V841.793C291.851 842.22 291.673 842.576 291.318 842.86C291.105 843.216 290.749 843.393 290.251 843.393H274.678Z" fill="black"/>
<path d="M1835.71 1039.66H2369.24" stroke="black" stroke-width="5.3332"/>
<path d="M2417.98 1088.19C2409.95 1088.19 2403.48 1085.84 2398.57 1081.15C2393.81 1076.38 2391.42 1069.98 2391.42 1061.95V1018.75C2391.42 1010.86 2393.81 1004.56 2398.57 999.87C2403.55 995.105 2410.02 992.723 2417.98 992.723C2426.02 992.723 2432.42 995.105 2437.18 999.87C2442.16 1004.56 2444.65 1010.86 2444.65 1018.75V1020.24C2444.65 1020.67 2444.47 1021.06 2444.12 1021.42C2443.83 1021.7 2443.48 1021.84 2443.05 1021.84L2427.37 1022.48C2426.3 1022.48 2425.77 1021.98 2425.77 1020.99V1017.58C2425.77 1015.02 2425.06 1012.92 2423.64 1011.28C2422.21 1009.65 2420.33 1008.86 2417.98 1008.94C2415.64 1008.94 2413.75 1009.72 2412.33 1011.28C2410.91 1012.85 2410.2 1014.94 2410.2 1017.58V1063.55C2410.2 1066.11 2410.91 1068.21 2412.33 1069.84C2413.75 1071.33 2415.64 1072.08 2417.98 1072.08C2420.33 1072.08 2422.21 1071.33 2423.64 1069.84C2425.06 1068.21 2425.77 1066.11 2425.77 1063.55V1059.92C2425.77 1059.49 2425.91 1059.14 2426.2 1058.85C2426.55 1058.5 2426.94 1058.32 2427.37 1058.32L2443.05 1059.07C2443.48 1059.07 2443.83 1059.25 2444.12 1059.6C2444.47 1059.81 2444.65 1060.17 2444.65 1060.67V1061.95C2444.65 1069.98 2442.16 1076.38 2437.18 1081.15C2432.35 1085.84 2425.95 1088.19 2417.98 1088.19ZM2454.68 1087.12C2454.25 1087.12 2453.89 1087.01 2453.61 1086.8C2453.25 1086.45 2453.08 1086.02 2453.08 1085.52V995.39C2453.08 994.963 2453.22 994.608 2453.5 994.323C2453.86 993.968 2454.25 993.79 2454.68 993.79H2470.36C2470.78 993.79 2471.14 993.968 2471.42 994.323C2471.78 994.608 2471.96 994.963 2471.96 995.39V1085.52C2471.96 1086.02 2471.78 1086.45 2471.42 1086.8C2471.14 1087.01 2470.78 1087.12 2470.36 1087.12H2454.68ZM2512.17 1020.24C2512.17 1019.82 2512.31 1019.46 2512.59 1019.18C2512.95 1018.82 2513.34 1018.64 2513.77 1018.64H2529.34C2529.84 1018.64 2530.19 1018.82 2530.41 1019.18C2530.76 1019.46 2530.94 1019.82 2530.94 1020.24V1085.52C2530.94 1086.02 2530.76 1086.45 2530.41 1086.8C2530.19 1087.01 2529.84 1087.12 2529.34 1087.12H2513.77C2513.34 1087.12 2512.95 1087.01 2512.59 1086.8C2512.31 1086.45 2512.17 1086.02 2512.17 1085.52V1083.39C2512.17 1083.03 2512.1 1082.82 2511.95 1082.75C2511.81 1082.68 2511.63 1082.78 2511.42 1083.07C2510.07 1084.92 2508.36 1086.23 2506.3 1087.01C2504.38 1087.73 2502.07 1088.08 2499.37 1088.08C2494.04 1088.08 2489.63 1086.48 2486.14 1083.28C2482.73 1080.01 2481.02 1075 2481.02 1068.24V1020.24C2481.02 1019.82 2481.13 1019.46 2481.34 1019.18C2481.7 1018.82 2482.12 1018.64 2482.62 1018.64H2498.2C2498.62 1018.64 2498.98 1018.82 2499.26 1019.18C2499.62 1019.46 2499.8 1019.82 2499.8 1020.24V1063.97C2499.8 1066.53 2500.29 1068.53 2501.29 1069.95C2502.36 1071.37 2503.85 1072.08 2505.77 1072.08C2507.69 1072.08 2509.25 1071.3 2510.46 1069.73C2511.67 1068.17 2512.24 1066.11 2512.17 1063.55V1020.24ZM2563.79 1088.08C2556.26 1088.08 2550.21 1086.3 2545.66 1082.75C2541.25 1079.12 2539.05 1074.29 2539.05 1068.24V1067.28C2539.05 1066.85 2539.19 1066.5 2539.47 1066.21C2539.83 1065.86 2540.19 1065.68 2540.54 1065.68H2555.26C2555.76 1065.68 2556.11 1065.86 2556.33 1066.21C2556.68 1066.5 2556.86 1066.85 2556.86 1067.28V1067.71C2556.86 1069.56 2557.57 1071.12 2558.99 1072.4C2560.27 1073.54 2561.87 1074.11 2563.79 1074.11C2565.57 1074.11 2566.99 1073.61 2568.06 1072.61C2569.06 1071.55 2569.55 1070.23 2569.55 1068.67C2569.55 1066.68 2568.7 1065.15 2566.99 1064.08C2565.36 1062.94 2563.47 1062.02 2561.34 1061.31L2557.07 1059.71C2552.1 1057.93 2547.94 1055.48 2544.59 1052.35C2541.32 1049.15 2539.69 1044.56 2539.69 1038.59C2539.69 1032.19 2541.82 1027.1 2546.09 1023.34C2550.35 1019.57 2556.04 1017.68 2563.15 1017.68C2570.55 1017.68 2576.38 1019.64 2580.65 1023.55C2584.98 1027.46 2587.15 1032.76 2587.15 1039.44C2587.15 1039.87 2586.98 1040.26 2586.62 1040.62C2586.34 1040.9 2585.98 1041.04 2585.55 1041.04H2571.26C2570.83 1041.04 2570.48 1040.9 2570.19 1040.62C2569.84 1040.26 2569.66 1039.87 2569.66 1039.44V1038.38C2569.66 1036.6 2569.09 1035.18 2567.95 1034.11C2566.89 1032.97 2565.46 1032.4 2563.69 1032.4C2561.84 1032.4 2560.38 1033.01 2559.31 1034.22C2558.25 1035.35 2557.71 1036.74 2557.71 1038.38C2557.71 1040.51 2558.6 1042.18 2560.38 1043.39C2562.23 1044.6 2565.04 1045.91 2568.81 1047.34C2572.58 1048.76 2575.78 1050.18 2578.41 1051.6C2581.25 1053.02 2583.63 1055.16 2585.55 1058C2587.54 1060.63 2588.54 1064.01 2588.54 1068.13C2588.54 1074.25 2586.26 1079.12 2581.71 1082.75C2577.23 1086.3 2571.26 1088.08 2563.79 1088.08ZM2627.05 1030.27C2627.05 1030.7 2626.87 1031.05 2626.51 1031.34C2626.23 1031.69 2625.87 1031.87 2625.45 1031.87H2617.98C2617.55 1031.87 2617.34 1032.08 2617.34 1032.51V1064.19C2617.34 1066.82 2617.8 1068.6 2618.73 1069.52C2619.65 1070.45 2621.14 1070.91 2623.21 1070.91H2624.06C2624.56 1070.91 2624.91 1071.09 2625.13 1071.44C2625.48 1071.73 2625.66 1072.08 2625.66 1072.51V1085.52C2625.66 1086.02 2625.48 1086.45 2625.13 1086.8C2624.91 1087.01 2624.56 1087.12 2624.06 1087.12H2618.73C2612.33 1087.12 2607.45 1086.05 2604.11 1083.92C2600.84 1081.79 2599.21 1077.63 2599.21 1071.44V1032.51C2599.21 1032.08 2598.96 1031.87 2598.46 1031.87H2594.19C2593.7 1031.87 2593.27 1031.73 2592.91 1031.44C2592.63 1031.09 2592.49 1030.7 2592.49 1030.27V1020.24C2592.49 1019.82 2592.63 1019.46 2592.91 1019.18C2593.27 1018.82 2593.66 1018.64 2594.09 1018.64H2598.46C2598.96 1018.64 2599.21 1018.43 2599.21 1018V1003.07C2599.21 1002.71 2599.31 1002.36 2599.53 1002C2599.88 1001.72 2600.31 1001.58 2600.81 1001.58H2615.74C2616.17 1001.58 2616.52 1001.75 2616.81 1002.11C2617.16 1002.39 2617.34 1002.75 2617.34 1003.18V1018C2617.34 1018.43 2617.55 1018.64 2617.98 1018.64H2625.45C2625.87 1018.64 2626.23 1018.82 2626.51 1019.18C2626.87 1019.46 2627.05 1019.82 2627.05 1020.24V1030.27ZM2684.32 1057.15C2684.32 1057.57 2684.15 1057.97 2683.79 1058.32C2683.58 1058.61 2683.22 1058.75 2682.72 1058.75H2653.39C2652.96 1058.75 2652.75 1058.96 2652.75 1059.39V1064.4C2652.75 1066.53 2653.32 1068.38 2654.46 1069.95C2655.74 1071.37 2657.3 1072.08 2659.15 1072.08C2660.86 1072.08 2662.24 1071.55 2663.31 1070.48C2664.38 1069.34 2665.09 1067.92 2665.44 1066.21C2665.73 1065.36 2666.3 1064.93 2667.15 1064.93L2682.51 1065.68C2682.94 1065.68 2683.29 1065.86 2683.58 1066.21C2683.93 1066.5 2684.07 1066.89 2684 1067.39C2683.29 1074.29 2680.88 1079.51 2676.75 1083.07C2672.7 1086.48 2666.83 1088.19 2659.15 1088.19C2651.26 1088.19 2645.07 1086.23 2640.59 1082.32C2636.18 1078.34 2633.98 1072.83 2633.98 1065.79V1039.98C2633.98 1033.22 2636.18 1027.78 2640.59 1023.66C2645.14 1019.6 2651.33 1017.58 2659.15 1017.58C2666.97 1017.58 2673.12 1019.6 2677.6 1023.66C2682.08 1027.78 2684.32 1033.22 2684.32 1039.98V1057.15ZM2659.15 1033.68C2657.3 1033.68 2655.74 1034.39 2654.46 1035.82C2653.32 1037.24 2652.75 1039.05 2652.75 1041.26V1046.59C2652.75 1046.94 2652.96 1047.12 2653.39 1047.12H2664.91C2665.34 1047.12 2665.55 1046.91 2665.55 1046.48V1041.26C2665.55 1039.12 2664.95 1037.34 2663.74 1035.92C2662.53 1034.5 2661 1033.79 2659.15 1033.79V1033.68ZM2723.68 1017.79C2726.03 1017.79 2727.88 1018.25 2729.23 1019.18C2729.94 1019.6 2730.22 1020.28 2730.08 1021.2L2727.52 1036.78C2727.45 1037.77 2726.81 1038.13 2725.6 1037.84C2724.68 1037.49 2723.51 1037.31 2722.08 1037.31C2720.66 1037.31 2719.49 1037.49 2718.56 1037.84C2716.5 1038.2 2714.87 1039.44 2713.66 1041.58C2712.38 1043.64 2711.74 1046.02 2711.74 1048.72V1085.41C2711.74 1085.84 2711.56 1086.23 2711.2 1086.59C2710.99 1086.87 2710.63 1087.01 2710.14 1087.01H2694.56C2694.14 1087.01 2693.75 1086.87 2693.39 1086.59C2693.11 1086.23 2692.96 1085.88 2692.96 1085.52V1020.24C2692.96 1019.82 2693.11 1019.46 2693.39 1019.18C2693.75 1018.82 2694.14 1018.64 2694.56 1018.64H2710.14C2710.63 1018.64 2710.99 1018.82 2711.2 1019.18C2711.56 1019.46 2711.74 1019.82 2711.74 1020.24V1025.47C2711.74 1025.82 2711.81 1026.04 2711.95 1026.11C2712.09 1026.11 2712.27 1025.97 2712.48 1025.68C2714.83 1020.42 2718.56 1017.79 2723.68 1017.79Z" fill="black"/>
<path d="M1109.96 1135.65V1263.65" stroke="black" stroke-width="5.3332"/>
<path d="M1080.1 1344.82C1080.1 1353.07 1077.61 1359.43 1072.63 1363.91C1067.65 1368.39 1061.22 1370.6 1053.33 1370.53H1028.15C1027.65 1370.53 1027.23 1370.42 1026.87 1370.21C1026.66 1369.85 1026.55 1369.42 1026.55 1368.93V1278.8C1026.55 1278.37 1026.66 1278.01 1026.87 1277.73C1027.23 1277.37 1027.65 1277.2 1028.15 1277.2H1050.34C1059.23 1277.2 1066.16 1279.33 1071.14 1283.6C1076.26 1287.86 1078.82 1294.26 1078.82 1302.8C1078.82 1311.54 1075.8 1317.94 1069.75 1321.99C1069.4 1322.21 1069.32 1322.46 1069.54 1322.74C1076.65 1327.72 1080.2 1335.08 1080.2 1344.82H1080.1ZM1045.97 1293.41C1045.54 1293.41 1045.33 1293.62 1045.33 1294.05V1314.95C1045.33 1315.38 1045.54 1315.59 1045.97 1315.59H1050.77C1053.82 1315.59 1056.17 1314.67 1057.81 1312.82C1059.51 1310.9 1060.37 1308.2 1060.37 1304.72C1060.37 1301.09 1059.51 1298.28 1057.81 1296.29C1056.24 1294.37 1053.89 1293.41 1050.77 1293.41H1045.97ZM1051.83 1354.31C1054.75 1354.31 1057.06 1353.25 1058.77 1351.11C1060.47 1348.98 1061.33 1345.96 1061.33 1342.05C1061.33 1338.14 1060.47 1335.01 1058.77 1332.66C1057.06 1330.31 1054.78 1329.18 1051.94 1329.25H1045.97C1045.54 1329.25 1045.33 1329.46 1045.33 1329.89V1353.67C1045.33 1354.1 1045.54 1354.31 1045.97 1354.31H1051.83ZM1112.84 1371.7C1105.02 1371.7 1098.8 1369.67 1094.18 1365.62C1089.77 1361.64 1087.56 1356.2 1087.56 1349.3V1323.38C1087.56 1316.63 1089.84 1311.19 1094.39 1307.06C1098.94 1302.94 1105.09 1300.91 1112.84 1300.98C1120.81 1300.98 1127.03 1303.04 1131.51 1307.17C1135.99 1311.29 1138.27 1316.7 1138.34 1323.38V1349.3C1138.34 1356.2 1136.06 1361.64 1131.51 1365.62C1127.1 1369.67 1120.88 1371.7 1112.84 1371.7ZM1112.84 1355.38C1114.83 1355.38 1116.43 1354.67 1117.64 1353.25C1118.85 1351.82 1119.49 1350.01 1119.56 1347.81V1324.77C1119.56 1322.49 1118.92 1320.64 1117.64 1319.22C1116.36 1317.8 1114.76 1317.09 1112.84 1317.09C1110.92 1317.09 1109.32 1317.8 1108.04 1319.22C1106.91 1320.64 1106.34 1322.49 1106.34 1324.77V1347.81C1106.34 1350.01 1106.91 1351.82 1108.04 1353.25C1109.32 1354.67 1110.92 1355.38 1112.84 1355.38ZM1143.14 1370.63C1142.5 1370.63 1142.03 1370.49 1141.75 1370.21C1141.61 1369.85 1141.68 1369.35 1141.96 1368.71L1157.11 1336.71C1157.18 1336.43 1157.18 1336.15 1157.11 1335.86L1141.96 1303.86L1141.64 1303.12C1141.64 1302.4 1142.14 1302.05 1143.14 1302.05H1160.2C1161.06 1302.05 1161.66 1302.44 1162.02 1303.22L1168.63 1318.37C1168.84 1318.87 1169.09 1318.87 1169.38 1318.37L1175.88 1303.22C1176.24 1302.44 1176.88 1302.05 1177.8 1302.05H1194.76C1195.33 1302.05 1195.69 1302.23 1195.83 1302.58C1196.18 1302.87 1196.18 1303.33 1195.83 1303.97L1180.68 1335.97V1336.71L1195.94 1368.71L1196.15 1369.57C1196.15 1370.28 1195.69 1370.63 1194.76 1370.63H1177.7C1176.77 1370.63 1176.17 1370.21 1175.88 1369.35L1169.38 1353.78C1169.09 1353.07 1168.84 1353.07 1168.63 1353.78L1162.02 1369.35C1161.8 1370.21 1161.2 1370.63 1160.2 1370.63H1143.14Z" fill="black"/>
<path d="M597.977 794.328H1707.28V922.325H597.977V794.328Z" stroke="black" stroke-width="5.3332" stroke-linecap="round" stroke-linejoin="round"/>
<path d="M638.509 715.397H645.976C645.62 712.339 644.731 709.708 643.309 707.503C641.958 705.157 640.251 703.201 638.189 701.637C636.127 700.144 633.78 699.006 631.149 698.224C628.518 697.441 625.709 697.05 622.723 697.05C618.456 697.05 614.616 697.833 611.203 699.397C607.861 700.89 605.052 703.023 602.777 705.797C600.643 708.428 598.972 711.557 597.763 715.183C596.555 718.739 595.95 722.614 595.95 726.81C595.95 730.934 596.484 734.774 597.55 738.329C598.688 741.885 600.323 745.014 602.457 747.716C604.59 750.418 607.328 752.48 610.67 753.902C613.941 755.395 617.745 756.142 622.083 756.142C629.336 756.142 635.025 754.151 639.149 750.169C643.416 746.258 645.904 740.747 646.616 733.636H639.149C638.936 735.912 638.438 738.045 637.656 740.036C636.874 742.027 635.771 743.805 634.349 745.369C632.927 746.791 631.256 747.893 629.336 748.676C627.416 749.458 625.212 749.849 622.723 749.849C619.381 749.849 616.501 749.245 614.083 748.036C611.665 746.827 609.639 745.12 608.003 742.916C606.51 740.783 605.372 738.294 604.59 735.449C603.879 732.534 603.523 729.476 603.523 726.276C603.523 723.29 603.879 720.445 604.59 717.743C605.301 715.041 606.439 712.588 608.003 710.383C609.639 708.25 611.63 706.543 613.976 705.263C616.394 703.983 619.31 703.343 622.723 703.343C626.634 703.343 630.012 704.339 632.856 706.33C635.771 708.321 637.656 711.343 638.509 715.397ZM659.735 734.383C659.735 731.965 660.091 729.832 660.802 727.983C661.513 725.992 662.402 724.321 663.468 722.97C664.535 721.619 665.886 720.623 667.522 719.983C669.157 719.272 670.828 718.916 672.535 718.916C674.242 718.916 675.877 719.272 677.441 719.983C679.006 720.694 680.392 721.69 681.601 722.97C682.81 724.25 683.699 725.885 684.268 727.876C684.979 729.796 685.335 732 685.335 734.489C685.335 736.978 684.979 739.183 684.268 741.102C683.628 743.022 682.739 744.622 681.601 745.902C680.392 747.182 679.006 748.178 677.441 748.889C675.948 749.6 674.313 749.956 672.535 749.956C670.757 749.956 669.086 749.6 667.522 748.889C666.028 748.178 664.677 747.182 663.468 745.902C662.331 744.622 661.442 743.022 660.802 741.102C660.091 739.183 659.735 736.978 659.735 734.489V734.383ZM652.695 734.383C652.695 737.44 653.122 740.285 653.975 742.916C654.829 745.547 656.073 747.787 657.709 749.636C659.415 751.556 661.513 753.084 664.002 754.222C666.491 755.218 669.335 755.715 672.535 755.715C675.806 755.715 678.65 755.218 681.068 754.222C683.557 753.084 685.655 751.556 687.361 749.636C689.068 747.716 690.348 745.44 691.201 742.809C691.983 740.249 692.374 737.476 692.374 734.489C692.374 731.503 691.983 728.694 691.201 726.063C690.348 723.432 689.068 721.156 687.361 719.236C685.655 717.316 683.557 715.788 681.068 714.65C678.65 713.583 675.806 713.05 672.535 713.05C669.335 713.05 666.491 713.583 664.002 714.65C661.513 715.716 659.415 717.245 657.709 719.236C656.073 721.156 654.829 723.432 653.975 726.063C653.122 728.623 652.695 731.432 652.695 734.489V734.383ZM700.268 713.903V754.862H706.987V731.716C706.987 729.867 707.201 728.196 707.627 726.703C708.196 725.138 708.978 723.752 709.974 722.543C710.969 721.334 712.214 720.445 713.707 719.876C715.2 719.236 716.978 718.916 719.04 718.916C721.6 718.916 723.627 719.663 725.12 721.156C726.614 722.65 727.36 724.641 727.36 727.13V754.862H734.08V727.983C734.08 725.778 733.831 723.752 733.333 721.903C732.978 720.054 732.231 718.49 731.093 717.21C729.956 715.93 728.534 714.863 726.827 714.01C725.12 713.157 722.845 712.801 720 712.943C713.956 712.943 709.512 715.432 706.667 720.41H706.561V714.01H700.161L700.268 713.903ZM747.093 719.876V754.862H753.813V719.876H761.706V713.903H753.813V708.25C753.813 706.472 754.24 705.263 755.093 704.623C756.017 703.912 757.297 703.557 758.933 703.557L760.853 703.77C761.564 703.841 762.204 703.983 762.773 704.197V698.33C762.062 698.117 761.315 697.975 760.533 697.904L758.399 697.69C754.702 697.69 751.857 698.579 749.866 700.357C748.017 701.992 747.093 704.481 747.093 707.823V713.903H740.16V719.876H747.093ZM774.932 706.65V698.33H768.213V706.543H774.932V706.65ZM768.213 713.903V754.862H774.932V713.903H768.213ZM785.172 713.903V754.862H791.892V736.729C791.892 734.027 792.176 731.681 792.745 729.689C793.243 727.627 794.061 725.885 795.198 724.463C796.336 723.041 797.865 721.974 799.785 721.263C801.705 720.552 804.016 720.196 806.718 720.196V712.943C803.092 712.872 800.069 713.619 797.652 715.183C795.305 716.819 793.314 719.308 791.679 722.65H791.465V713.903H785.172ZM811.838 713.903V754.862H818.558V729.369C818.558 728.587 818.736 727.627 819.091 726.49C819.518 725.281 820.158 724.107 821.011 722.97C821.936 721.832 823.073 720.872 824.424 720.09C825.847 719.379 827.553 719.023 829.544 719.023C831.038 719.023 832.282 719.236 833.278 719.663C834.273 720.09 835.055 720.73 835.624 721.583C836.193 722.294 836.584 723.218 836.797 724.356C837.082 725.494 837.224 726.738 837.224 728.089V754.862H843.944V729.369C843.944 726.241 844.904 723.716 846.824 721.796C848.744 719.876 851.339 718.916 854.61 718.916C856.246 718.916 857.561 719.165 858.557 719.663C859.624 720.161 860.441 720.801 861.01 721.583C861.579 722.436 861.97 723.396 862.183 724.463C862.397 725.601 862.503 726.81 862.503 728.089V754.862H869.223V724.89C869.223 722.756 868.868 720.979 868.157 719.556C867.588 717.992 866.699 716.712 865.49 715.716C864.281 714.792 862.859 714.117 861.223 713.69C859.588 713.192 857.739 712.943 855.677 712.943C852.975 712.943 850.486 713.583 848.21 714.863C846.006 716.072 844.228 717.779 842.877 719.983C842.024 717.423 840.566 715.645 838.504 714.65C836.442 713.654 834.131 713.085 831.571 712.943C825.882 712.943 821.473 715.29 818.345 719.983H818.238V713.903H811.838ZM901.649 713.903V770.435H908.369V749.422H908.582C909.293 750.631 910.182 751.662 911.249 752.516C912.315 753.298 913.453 753.938 914.662 754.435L918.395 755.502L921.809 755.715C924.866 755.715 927.568 755.182 929.915 754.116C932.262 752.978 934.217 751.449 935.782 749.529C937.346 747.609 938.519 745.369 939.301 742.809C940.013 740.178 940.368 737.405 940.368 734.489C940.368 731.574 940.013 728.836 939.301 726.276C938.448 723.716 937.239 721.441 935.675 719.45C934.182 717.459 932.226 715.894 929.808 714.756C927.533 713.548 924.795 712.943 921.595 712.943C918.751 712.943 916.155 713.477 913.809 714.543C911.391 715.539 909.613 717.174 908.476 719.45V713.903H901.649ZM933.328 734.063C933.328 736.054 933.115 738.009 932.688 739.929C932.262 741.849 931.551 743.52 930.555 744.942C929.56 746.365 928.315 747.573 926.822 748.569C925.329 749.422 923.409 749.849 921.062 749.849C918.715 749.849 916.724 749.458 915.089 748.676C913.453 747.751 912.102 746.578 911.036 745.156C910.04 743.734 909.329 742.098 908.902 740.249C908.404 738.329 908.156 736.374 908.156 734.383C908.156 732.463 908.369 730.578 908.796 728.73C909.222 726.881 909.933 725.245 910.929 723.823C911.996 722.401 913.311 721.227 914.875 720.303C916.44 719.379 918.36 718.916 920.635 718.916C922.769 718.916 924.653 719.343 926.289 720.196C927.924 721.05 929.239 722.187 930.235 723.61C931.302 725.032 932.084 726.667 932.582 728.516C933.079 730.294 933.328 732.143 933.328 734.063ZM984.527 754.649C983.389 755.36 981.789 755.715 979.727 755.715C977.949 755.715 976.527 755.253 975.461 754.329C974.465 753.333 973.967 751.733 973.967 749.529C972.118 751.662 969.985 753.262 967.567 754.329C965.079 755.253 962.412 755.715 959.568 755.715C957.719 755.715 955.941 755.502 954.234 755.076C952.67 754.649 951.248 754.009 949.968 753.156C948.759 752.231 947.799 751.058 947.088 749.636C946.377 748.213 946.021 746.436 946.021 744.302C946.021 742.027 946.412 740.143 947.195 738.649C948.048 737.227 949.115 736.054 950.395 735.129C951.675 734.134 953.132 733.423 954.768 732.996L959.888 731.716C961.737 731.361 963.514 731.112 965.221 730.969C966.856 730.756 968.279 730.507 969.487 730.223C970.838 729.796 971.87 729.263 972.581 728.623C973.292 727.912 973.647 726.952 973.647 725.743C973.647 724.321 973.363 723.147 972.794 722.223C972.296 721.299 971.585 720.587 970.661 720.09C969.807 719.663 968.847 719.343 967.781 719.13L964.581 718.916C961.736 718.916 959.354 719.485 957.434 720.623C955.514 721.69 954.483 723.716 954.341 726.703H947.728C947.87 724.143 948.403 722.01 949.328 720.303C950.252 718.596 951.532 717.174 953.168 716.036C954.732 714.97 956.51 714.188 958.501 713.69C960.634 713.192 962.839 712.943 965.114 712.943C966.963 712.943 968.776 713.085 970.554 713.37C972.403 713.654 974.074 714.223 975.567 715.077C976.989 715.788 978.163 716.925 979.087 718.49C980.012 720.054 980.474 721.974 980.474 724.25V745.262C980.474 746.898 980.545 748.071 980.687 748.782C980.9 749.493 981.54 749.849 982.607 749.849C983.176 749.849 983.887 749.742 984.74 749.529V754.755L984.527 754.649ZM973.647 733.743C972.794 734.383 971.656 734.845 970.234 735.129L965.967 735.876L961.381 736.516C959.888 736.729 958.537 737.085 957.328 737.583C956.119 738.151 955.123 738.934 954.341 739.929C953.63 740.854 953.274 742.169 953.274 743.876C953.274 745.014 953.452 745.973 953.808 746.756C954.306 747.467 954.874 748.071 955.514 748.569C956.225 748.996 957.079 749.351 958.074 749.636L961.061 749.849C963.336 749.849 965.256 749.565 966.821 748.996C968.385 748.356 969.665 747.609 970.661 746.756C971.656 745.76 972.403 744.765 972.901 743.769C973.398 742.631 973.647 741.565 973.647 740.569V733.743ZM994.873 741.956H988.26C988.402 744.516 988.936 746.685 989.86 748.462C990.856 750.24 992.136 751.662 993.7 752.729C995.264 753.796 997.078 754.578 999.14 755.076C1001.2 755.502 1003.34 755.715 1005.54 755.715C1007.67 755.715 1009.77 755.502 1011.83 755.076C1013.97 754.72 1015.82 754.044 1017.38 753.049C1019.09 752.053 1020.44 750.738 1021.43 749.102C1022.5 747.467 1023.03 745.405 1023.03 742.916C1023.03 740.996 1022.68 739.36 1021.97 738.009C1021.18 736.729 1020.12 735.663 1018.77 734.809C1017.63 733.885 1016.21 733.174 1014.5 732.676C1012.94 732.107 1011.34 731.645 1009.7 731.289L1004.9 730.223C1003.34 729.867 1001.91 729.441 1000.63 728.943C999.353 728.445 998.287 727.841 997.433 727.13C996.722 726.276 996.367 725.281 996.367 724.143C996.367 723.076 996.616 722.223 997.113 721.583C997.611 720.872 998.287 720.374 999.14 720.09C999.993 719.663 1000.92 719.343 1001.91 719.13L1005.01 718.916C1006.14 718.916 1007.21 719.059 1008.21 719.343C1009.34 719.556 1010.38 719.912 1011.3 720.41C1012.15 720.979 1012.86 721.69 1013.43 722.543C1014.07 723.396 1014.43 724.463 1014.5 725.743H1021.22C1021.08 723.325 1020.54 721.299 1019.62 719.663C1018.77 717.956 1017.56 716.641 1015.99 715.716C1014.57 714.721 1012.86 714.01 1010.87 713.583C1008.88 713.157 1006.75 712.943 1004.47 712.943C1002.62 712.943 1000.81 713.192 999.033 713.69C997.184 714.117 995.513 714.828 994.02 715.823C992.598 716.676 991.425 717.85 990.5 719.343C989.576 720.765 989.114 722.543 989.114 724.676C989.114 727.307 989.789 729.369 991.14 730.863C992.491 732.356 994.127 733.494 996.047 734.276C998.038 735.058 1000.17 735.698 1002.45 736.196C1004.86 736.623 1007.03 737.12 1008.95 737.689C1010.94 738.258 1012.62 738.969 1013.97 739.823C1015.32 740.676 1015.96 741.991 1015.89 743.769C1015.89 745.049 1015.57 746.116 1014.93 746.969C1014.36 747.751 1013.54 748.356 1012.47 748.782C1011.55 749.209 1010.48 749.493 1009.27 749.636C1008.06 749.778 1007 749.849 1006.07 749.849C1004.65 749.849 1003.3 749.742 1002.02 749.529C1000.74 749.245 999.567 748.818 998.5 748.249C997.504 747.538 996.687 746.72 996.047 745.796C995.407 744.729 995.051 743.449 994.98 741.956H994.873ZM1034.34 741.956H1027.73C1027.8 744.516 1028.33 746.685 1029.33 748.462C1030.25 750.24 1031.49 751.662 1033.06 752.729C1034.69 753.796 1036.54 754.578 1038.61 755.076C1040.67 755.502 1042.8 755.715 1045.01 755.715C1047.14 755.715 1049.2 755.502 1051.19 755.076C1053.33 754.72 1055.21 754.044 1056.85 753.049C1058.55 752.053 1059.9 750.738 1060.9 749.102C1061.97 747.467 1062.5 745.405 1062.5 742.916C1062.5 740.996 1062.11 739.36 1061.33 738.009C1060.61 736.729 1059.62 735.663 1058.34 734.809C1057.06 733.885 1055.64 733.174 1054.07 732.676C1052.44 732.107 1050.77 731.645 1049.06 731.289L1044.37 730.223C1042.8 729.867 1041.38 729.441 1040.1 728.943C1038.82 728.445 1037.75 727.841 1036.9 727.13C1036.12 726.276 1035.73 725.281 1035.73 724.143C1035.73 723.076 1035.97 722.223 1036.47 721.583C1037.04 720.872 1037.75 720.374 1038.61 720.09C1039.46 719.663 1040.38 719.343 1041.38 719.13L1044.47 718.916C1045.54 718.916 1046.61 719.059 1047.67 719.343C1048.81 719.556 1049.81 719.912 1050.66 720.41C1051.58 720.979 1052.33 721.69 1052.9 722.543C1053.47 723.396 1053.82 724.463 1053.97 725.743H1060.69C1060.54 723.325 1060.01 721.299 1059.09 719.663C1058.16 717.956 1056.95 716.641 1055.46 715.716C1053.97 714.721 1052.26 714.01 1050.34 713.583C1048.35 713.157 1046.21 712.943 1043.94 712.943C1042.09 712.943 1040.24 713.192 1038.39 713.69C1036.61 714.117 1034.98 714.828 1033.49 715.823C1032.06 716.676 1030.89 717.85 1029.97 719.343C1029.04 720.765 1028.58 722.543 1028.58 724.676C1028.58 727.307 1029.25 729.369 1030.61 730.863C1031.96 732.356 1033.59 733.494 1035.51 734.276C1037.5 735.058 1039.64 735.698 1041.91 736.196C1044.26 736.623 1046.39 737.12 1048.31 737.689C1050.37 738.258 1052.08 738.969 1053.43 739.823C1054.78 740.676 1055.42 741.991 1055.35 743.769C1055.35 745.049 1055.03 746.116 1054.39 746.969C1053.75 747.751 1052.93 748.356 1051.94 748.782C1051.01 749.209 1049.95 749.493 1048.74 749.636C1047.53 749.778 1046.46 749.849 1045.54 749.849C1044.12 749.849 1042.73 749.742 1041.38 749.529C1040.17 749.245 1039.03 748.818 1037.97 748.249C1036.97 747.538 1036.15 746.72 1035.51 745.796C1034.8 744.729 1034.45 743.449 1034.45 741.956H1034.34ZM1110.18 754.862L1123.3 713.903H1116.26L1107.08 747.396H1106.98L1098.44 713.903H1090.98L1082.76 747.396H1082.66L1073.38 713.903H1065.91L1079.14 754.862H1086.39L1094.6 722.33H1094.82L1103.03 754.862H1110.18ZM1134.6 734.383C1134.6 731.965 1134.92 729.832 1135.56 727.983C1136.27 725.992 1137.2 724.321 1138.34 722.97C1139.47 721.619 1140.83 720.623 1142.39 719.983C1143.95 719.272 1145.59 718.916 1147.3 718.916C1149 718.916 1150.64 719.272 1152.2 719.983C1153.84 720.694 1155.22 721.69 1156.36 722.97C1157.5 724.25 1158.39 725.885 1159.03 727.876C1159.74 729.796 1160.1 732 1160.1 734.489C1160.1 736.978 1159.74 739.183 1159.03 741.102C1158.39 743.022 1157.5 744.622 1156.36 745.902C1155.22 747.182 1153.84 748.178 1152.2 748.889C1150.71 749.6 1149.07 749.956 1147.3 749.956C1145.59 749.956 1143.95 749.6 1142.39 748.889C1140.83 748.178 1139.47 747.182 1138.34 745.902C1137.13 744.622 1136.2 743.022 1135.56 741.102C1134.85 739.183 1134.5 736.978 1134.5 734.489L1134.6 734.383ZM1127.46 734.383C1127.46 737.44 1127.88 740.285 1128.74 742.916C1129.59 745.547 1130.83 747.787 1132.47 749.636C1134.18 751.556 1136.31 753.084 1138.87 754.222C1141.29 755.218 1144.13 755.715 1147.4 755.715C1150.6 755.715 1153.45 755.218 1155.94 754.222C1158.35 753.084 1160.42 751.556 1162.12 749.636C1163.83 747.716 1165.11 745.44 1165.96 742.809C1166.82 740.249 1167.24 737.476 1167.24 734.489C1167.24 731.503 1166.82 728.694 1165.96 726.063C1165.11 723.432 1163.83 721.156 1162.12 719.236C1160.42 717.316 1158.32 715.788 1155.83 714.65C1153.41 713.583 1150.57 713.05 1147.3 713.05C1144.1 713.05 1141.25 713.583 1138.76 714.65C1136.27 715.716 1134.18 717.245 1132.47 719.236C1130.83 721.156 1129.59 723.432 1128.74 726.063C1127.88 728.623 1127.46 731.432 1127.46 734.489V734.383ZM1174.71 713.903V754.862H1181.54V736.729C1181.54 734.027 1181.78 731.681 1182.28 729.689C1182.78 727.627 1183.63 725.885 1184.84 724.463C1186.05 723.041 1187.58 721.974 1189.43 721.263C1191.28 720.552 1193.55 720.196 1196.25 720.196V712.943C1192.7 712.872 1189.71 713.619 1187.3 715.183C1184.88 716.819 1182.85 719.308 1181.22 722.65H1181.11V713.903H1174.71ZM1205 734.809C1205 732.747 1205.21 730.792 1205.64 728.943C1206.07 727.094 1206.78 725.387 1207.77 723.823C1208.7 722.401 1209.94 721.227 1211.51 720.303C1213.07 719.379 1214.99 718.916 1217.27 718.916C1219.61 718.916 1221.61 719.379 1223.24 720.303C1224.88 721.156 1226.19 722.294 1227.19 723.716C1228.25 725.138 1229.04 726.81 1229.53 728.73C1229.96 730.578 1230.17 732.498 1230.17 734.489C1230.17 736.338 1229.96 738.187 1229.53 740.036C1229.11 741.885 1228.4 743.556 1227.4 745.049C1226.41 746.471 1225.09 747.645 1223.45 748.569C1221.82 749.493 1219.9 749.92 1217.69 749.849C1215.56 749.849 1213.68 749.458 1212.04 748.676C1210.41 747.822 1209.09 746.685 1208.09 745.262C1207.03 743.84 1206.25 742.205 1205.75 740.356C1205.25 738.507 1205 736.658 1205 734.809ZM1236.68 754.862V698.33H1229.96V719.45H1229.85C1229.14 718.241 1228.22 717.21 1227.08 716.356C1226.01 715.574 1224.88 714.934 1223.67 714.437C1222.46 713.868 1221.25 713.512 1220.04 713.37C1218.83 713.157 1217.69 713.05 1216.63 713.05C1213.5 713.05 1210.73 713.619 1208.31 714.756C1206.03 715.823 1204.11 717.352 1202.55 719.343C1200.98 721.263 1199.81 723.503 1199.03 726.063C1198.32 728.623 1197.96 731.361 1197.96 734.276C1197.96 737.192 1198.32 739.929 1199.03 742.489C1199.74 745.049 1200.91 747.325 1202.55 749.316C1204.18 751.307 1206.14 752.871 1208.41 754.009C1210.83 755.147 1213.61 755.715 1216.73 755.715C1219.58 755.715 1222.21 755.218 1224.63 754.222C1227.05 753.227 1228.79 751.591 1229.85 749.316H1229.96V754.862H1236.68Z" fill="black"/>
<path d="M597.977 492.576H1707.28V620.572H597.977V492.576Z" stroke="black" stroke-width="5.3332" stroke-linecap="round" stroke-linejoin="round"/>
<path d="M606.297 423.777V402.978H621.016C625.283 402.978 628.412 403.867 630.403 405.644C632.394 407.422 633.389 409.982 633.389 413.324C633.389 416.666 632.394 419.262 630.403 421.111C628.412 422.888 625.283 423.742 621.016 423.671H606.403L606.297 423.777ZM598.83 396.685V453.216H606.297V430.07H623.576C629.265 430.07 633.532 428.648 636.376 425.804C639.363 422.746 640.856 418.586 640.856 413.324C640.856 408.062 639.398 403.973 636.483 401.058C633.567 398.142 629.265 396.685 623.576 396.685H598.724H598.83ZM685.335 453.003C684.126 453.714 682.49 454.07 680.428 454.07C678.722 454.07 677.299 453.572 676.162 452.576C675.237 451.581 674.775 449.981 674.775 447.777C672.926 449.981 670.757 451.581 668.269 452.576C665.851 453.572 663.22 454.07 660.375 454.07C658.527 454.07 656.749 453.856 655.042 453.43C653.407 453.003 651.984 452.328 650.776 451.403C649.567 450.55 648.571 449.412 647.789 447.99C647.078 446.497 646.722 444.719 646.722 442.657C646.722 440.31 647.149 438.426 648.002 437.004C648.713 435.51 649.745 434.301 651.096 433.377C652.376 432.453 653.833 431.741 655.469 431.244C657.175 430.746 658.918 430.355 660.695 430.07L665.922 429.217C667.557 429.075 669.015 428.826 670.295 428.47C671.575 428.115 672.571 427.617 673.282 426.977C673.993 426.266 674.348 425.271 674.348 423.991C674.348 422.568 674.1 421.395 673.602 420.471C673.033 419.546 672.322 418.835 671.468 418.337C670.615 417.911 669.62 417.626 668.482 417.484L665.282 417.271C662.438 417.271 660.091 417.804 658.242 418.871C656.322 419.937 655.256 421.964 655.042 424.951H648.322C648.465 422.462 648.998 420.328 649.922 418.551C650.918 416.844 652.198 415.422 653.762 414.284C655.327 413.217 657.104 412.471 659.095 412.044C661.229 411.546 663.433 411.298 665.709 411.298C667.557 411.298 669.371 411.44 671.148 411.724C672.997 411.938 674.668 412.471 676.162 413.324C677.584 414.106 678.757 415.244 679.682 416.737C680.606 418.231 681.068 420.151 681.068 422.497V443.617C681.068 445.181 681.139 446.354 681.282 447.137C681.495 447.848 682.135 448.203 683.202 448.203C683.77 448.203 684.481 448.061 685.335 447.777V453.11V453.003ZM674.348 431.99C673.495 432.701 672.393 433.199 671.042 433.484L666.669 434.23L662.189 434.764C660.624 434.977 659.238 435.332 658.029 435.83C656.82 436.399 655.824 437.181 655.042 438.177C654.331 439.172 653.976 440.488 653.976 442.123C653.976 443.261 654.153 444.221 654.509 445.003C655.007 445.714 655.611 446.319 656.322 446.817C657.033 447.314 657.851 447.67 658.775 447.883C659.7 448.097 660.731 448.203 661.869 448.203C664.002 448.203 665.886 447.919 667.522 447.35C669.086 446.639 670.366 445.857 671.362 445.003C672.428 444.079 673.175 443.083 673.602 442.017C674.1 440.879 674.348 439.848 674.348 438.924V431.99ZM695.681 440.31H688.961C689.032 442.799 689.566 444.932 690.561 446.71C691.486 448.488 692.73 449.91 694.295 450.977C695.859 452.043 697.672 452.825 699.734 453.323C701.868 453.821 704.037 454.07 706.241 454.07C708.374 454.07 710.436 453.856 712.427 453.43C714.561 453.074 716.445 452.363 718.081 451.297C719.787 450.301 721.138 448.985 722.134 447.35C723.2 445.714 723.734 443.688 723.734 441.27C723.734 439.279 723.307 437.608 722.454 436.257C721.743 434.977 720.747 433.91 719.467 433.057C718.258 432.133 716.836 431.421 715.201 430.924L710.294 429.537L705.601 428.47C703.965 428.186 702.543 427.795 701.334 427.297C700.054 426.728 698.988 426.088 698.134 425.377C697.352 424.595 696.961 423.635 696.961 422.497C696.961 421.431 697.21 420.577 697.708 419.937C698.277 419.226 698.988 418.693 699.841 418.337C700.623 417.911 701.512 417.626 702.508 417.484L705.708 417.271C706.774 417.271 707.841 417.377 708.907 417.591C709.974 417.804 710.97 418.16 711.894 418.657C712.819 419.226 713.53 419.937 714.027 420.791C714.667 421.715 715.023 422.817 715.094 424.097H721.921C721.707 421.608 721.174 419.546 720.321 417.911C719.396 416.204 718.187 414.889 716.694 413.964C715.201 412.969 713.459 412.258 711.467 411.831C709.548 411.475 707.414 411.298 705.068 411.298C703.29 411.298 701.477 411.546 699.628 412.044C697.85 412.471 696.214 413.146 694.721 414.071C693.299 414.924 692.09 416.097 691.095 417.591C690.241 419.084 689.815 420.862 689.815 422.924C689.815 425.555 690.455 427.617 691.735 429.11C693.015 430.604 694.65 431.777 696.641 432.63C698.703 433.341 700.872 433.946 703.148 434.444C705.494 434.87 707.628 435.404 709.548 436.044C711.61 436.541 713.281 437.252 714.561 438.177C715.841 439.101 716.516 440.417 716.587 442.123C716.587 443.332 716.232 444.399 715.521 445.323C714.952 446.034 714.17 446.603 713.174 447.03C712.179 447.457 711.112 447.777 709.974 447.99C708.836 448.203 707.734 448.274 706.668 448.203C705.245 448.203 703.894 448.061 702.614 447.777C701.334 447.492 700.161 447.066 699.094 446.497C698.099 445.857 697.281 445.039 696.641 444.043C696.072 442.977 695.717 441.732 695.575 440.31H695.681ZM735.147 440.31H728.32C728.463 442.799 728.996 444.932 729.92 446.71C730.916 448.488 732.196 449.91 733.76 450.977C735.325 452.043 737.138 452.825 739.2 453.323C741.333 453.821 743.502 454.07 745.707 454.07C747.769 454.07 749.831 453.856 751.893 453.43C754.026 453.074 755.911 452.363 757.546 451.297C759.182 450.301 760.497 448.985 761.493 447.35C762.56 445.714 763.093 443.688 763.093 441.27C763.093 439.279 762.737 437.608 762.026 436.257C761.244 434.977 760.213 433.91 758.933 433.057C757.724 432.133 756.302 431.421 754.666 430.924L749.76 429.537L744.96 428.47C743.396 428.186 741.973 427.795 740.693 427.297C739.413 426.728 738.347 426.088 737.493 425.377C736.782 424.595 736.427 423.635 736.427 422.497C736.427 421.431 736.676 420.577 737.173 419.937C737.671 419.226 738.382 418.693 739.307 418.337C740.089 417.911 740.978 417.626 741.973 417.484L745.067 417.271C746.204 417.271 747.271 417.377 748.267 417.591C749.404 417.804 750.435 418.16 751.36 418.657C752.213 419.226 752.924 419.937 753.493 420.791C754.133 421.715 754.489 422.817 754.56 424.097H761.28C761.137 421.608 760.604 419.546 759.68 417.911C758.826 416.204 757.617 414.889 756.053 413.964C754.631 412.969 752.924 412.258 750.933 411.831C749.013 411.475 746.88 411.298 744.533 411.298C742.756 411.298 740.942 411.546 739.093 412.044C737.245 412.471 735.609 413.146 734.187 414.071C732.765 414.924 731.556 416.097 730.56 417.591C729.707 419.084 729.28 420.862 729.28 422.924C729.28 425.555 729.92 427.617 731.2 429.11C732.48 430.604 734.116 431.777 736.107 432.63C738.098 433.341 740.267 433.946 742.613 434.444C744.96 434.87 747.093 435.404 749.013 436.044C751.004 436.541 752.675 437.252 754.026 438.177C755.377 439.101 756.017 440.417 755.946 442.123C755.946 443.332 755.662 444.399 755.093 445.323C754.382 446.034 753.564 446.603 752.64 447.03C751.644 447.457 750.578 447.777 749.44 447.99C748.302 448.203 747.2 448.274 746.133 448.203C744.711 448.203 743.36 448.061 742.08 447.777C740.8 447.492 739.627 447.066 738.56 446.497C737.565 445.857 736.747 445.039 736.107 444.043C735.467 442.977 735.111 441.732 735.04 440.31H735.147ZM810.985 453.216L823.998 412.258H817.065L807.892 445.75H807.678L799.145 412.258H791.785L783.572 445.75H783.359L774.186 412.258H766.719L779.839 453.216H787.092L795.305 420.577H795.519L803.838 453.216H810.985ZM835.304 432.737C835.304 430.248 835.66 428.044 836.371 426.124C837.011 424.204 837.9 422.568 839.038 421.217C840.175 419.866 841.526 418.871 843.091 418.231C844.655 417.52 846.326 417.164 848.104 417.164C849.882 417.164 851.517 417.52 853.011 418.231C854.575 418.942 855.926 419.937 857.064 421.217C858.202 422.497 859.126 424.133 859.837 426.124C860.548 428.044 860.904 430.248 860.904 432.737C860.904 435.226 860.548 437.43 859.837 439.35C859.126 441.27 858.202 442.906 857.064 444.257C855.926 445.537 854.575 446.497 853.011 447.137C851.446 447.848 849.811 448.203 848.104 448.203C846.326 448.203 844.655 447.848 843.091 447.137C841.526 446.426 840.175 445.466 839.038 444.257C837.9 442.906 836.975 441.27 836.264 439.35C835.624 437.43 835.304 435.226 835.304 432.737ZM828.158 432.737C828.158 435.724 828.584 438.532 829.438 441.163C830.291 443.795 831.571 446.07 833.278 447.99C834.984 449.839 837.082 451.332 839.571 452.47C841.989 453.536 844.833 454.07 848.104 454.07C851.375 454.07 854.219 453.536 856.637 452.47C859.126 451.332 861.224 449.839 862.93 447.99C864.566 445.999 865.81 443.723 866.664 441.163C867.517 438.532 867.944 435.724 867.944 432.737C867.944 429.75 867.517 426.942 866.664 424.311C865.81 421.679 864.566 419.44 862.93 417.591C861.224 415.6 859.09 414.071 856.53 413.004C854.184 411.866 851.339 411.298 847.997 411.298C844.797 411.298 841.953 411.866 839.464 413.004C836.975 414.142 834.913 415.671 833.278 417.591C831.571 419.44 830.291 421.679 829.438 424.311C828.584 426.942 828.158 429.786 828.158 432.844V432.737ZM875.517 412.258V453.216H882.236V434.977C882.236 432.346 882.485 430.035 882.983 428.044C883.552 425.91 884.405 424.133 885.543 422.711C886.681 421.288 888.21 420.222 890.13 419.511C892.05 418.8 894.361 418.444 897.063 418.444V411.191C893.436 411.049 890.414 411.76 887.996 413.324C885.65 414.96 883.659 417.448 882.023 420.791H881.81V412.258H875.41H875.517ZM905.809 433.057C905.809 431.066 906.023 429.11 906.449 427.19C906.876 425.271 907.551 423.599 908.476 422.177C909.4 420.755 910.68 419.546 912.316 418.551C913.951 417.555 915.871 417.129 918.076 417.271C920.351 417.271 922.307 417.697 923.942 418.551C925.578 419.404 926.929 420.542 927.995 421.964C928.991 423.386 929.737 425.057 930.235 426.977C930.733 428.826 930.982 430.746 930.982 432.737C930.982 434.657 930.733 436.541 930.235 438.39C929.809 440.239 929.097 441.91 928.102 443.403C927.106 444.826 925.826 445.963 924.262 446.817C922.698 447.67 920.742 448.132 918.396 448.203C916.262 448.203 914.378 447.777 912.742 446.923C911.178 446.07 909.862 444.932 908.796 443.51C907.8 442.088 907.018 440.488 906.449 438.71C906.023 436.861 905.809 434.977 905.809 433.057ZM937.488 453.216V396.685H930.662V417.591H930.449C929.737 416.382 928.813 415.386 927.675 414.604C926.609 413.751 925.471 413.075 924.262 412.577C923.053 412.08 921.844 411.724 920.635 411.511C919.427 411.298 918.289 411.191 917.222 411.191C914.093 411.191 911.356 411.76 909.009 412.898C906.663 414.035 904.707 415.564 903.143 417.484C901.578 419.404 900.405 421.644 899.623 424.204C898.912 426.835 898.556 429.608 898.556 432.524C898.556 435.439 898.947 438.177 899.729 440.737C900.512 443.297 901.685 445.572 903.249 447.563C904.814 449.483 906.769 451.012 909.116 452.15C911.462 453.359 914.236 453.963 917.436 453.963C920.28 453.963 922.875 453.465 925.222 452.47C927.569 451.474 929.346 449.839 930.555 447.563V453.11H937.382L937.488 453.216Z" fill="black"/>
<path d="M597.977 203.089H1707.28V331.086H597.977V203.089Z" stroke="black" stroke-width="5.3332" stroke-linecap="round" stroke-linejoin="round"/>
<path d="M598.83 107.199V163.731H638.082V157.331H606.297V137.811H635.629V131.411H606.403V113.599H637.869V107.199H598.83ZM646.082 122.772V163.624H652.802V138.131C652.802 137.42 652.98 136.46 653.335 135.251C653.762 134.042 654.402 132.869 655.255 131.731C656.18 130.665 657.317 129.74 658.669 128.958C660.091 128.105 661.762 127.678 663.682 127.678C665.246 127.678 666.491 127.927 667.415 128.425C668.411 128.852 669.228 129.491 669.868 130.345C670.437 131.127 670.793 132.087 670.935 133.225C671.219 134.291 671.362 135.5 671.362 136.851V163.624H678.188V138.131C678.188 135.002 679.113 132.514 680.961 130.665C682.81 128.816 685.441 127.82 688.854 127.678C690.49 127.678 691.806 127.927 692.801 128.425C693.868 128.923 694.685 129.598 695.254 130.451C695.823 131.163 696.214 132.087 696.428 133.225C696.641 134.362 696.748 135.571 696.748 136.851V163.624H703.467V133.651C703.467 131.518 703.112 129.74 702.401 128.318C701.832 126.754 700.908 125.509 699.628 124.585C698.49 123.589 697.068 122.878 695.361 122.452C693.725 122.025 691.877 121.812 689.814 121.812C687.183 121.812 684.695 122.416 682.348 123.625C680.215 124.834 678.437 126.54 677.015 128.745C676.161 126.185 674.739 124.407 672.748 123.412C670.757 122.416 668.446 121.883 665.815 121.812C660.055 121.812 655.646 124.123 652.589 128.745H652.375V122.772H645.976H646.082ZM749.973 163.517C748.764 164.228 747.129 164.584 745.066 164.584C743.36 164.584 741.938 164.086 740.8 163.091C739.875 162.095 739.413 160.495 739.413 158.291C737.564 160.495 735.395 162.095 732.907 163.091C730.489 164.086 727.858 164.584 725.014 164.584C723.165 164.584 721.387 164.371 719.68 163.944C718.045 163.517 716.623 162.842 715.414 161.917C714.205 160.993 713.209 159.82 712.427 158.397C711.716 156.975 711.361 155.198 711.361 153.064C711.361 150.789 711.787 148.904 712.641 147.411C713.423 145.989 714.454 144.816 715.734 143.891C717.014 142.896 718.471 142.185 720.107 141.758C721.814 141.26 723.556 140.869 725.334 140.585C727.182 140.158 728.925 139.873 730.56 139.731L734.933 138.985C736.213 138.629 737.209 138.131 737.92 137.491C738.631 136.78 738.987 135.785 738.987 134.505C738.987 133.083 738.738 131.909 738.24 130.985C737.671 130.06 736.96 129.349 736.107 128.852C735.253 128.425 734.258 128.14 733.12 127.998C732.053 127.785 730.987 127.678 729.92 127.678C727.076 127.678 724.729 128.247 722.88 129.385C720.96 130.451 719.894 132.478 719.68 135.465H713.067C713.138 132.905 713.636 130.771 714.561 129.065C715.485 127.358 716.765 125.936 718.4 124.798C719.965 123.732 721.743 122.949 723.734 122.452C725.867 122.025 728.071 121.812 730.347 121.812C732.196 121.812 734.009 121.918 735.787 122.132C737.635 122.416 739.307 122.985 740.8 123.838C742.222 124.621 743.431 125.758 744.426 127.252C745.28 128.674 745.706 130.594 745.706 133.011V154.131C745.706 155.695 745.777 156.833 745.92 157.544C746.133 158.255 746.773 158.611 747.84 158.611C748.408 158.611 749.12 158.504 749.973 158.291V163.517ZM738.987 142.398C738.133 143.109 737.031 143.607 735.68 143.891L731.307 144.531L726.827 145.171C725.262 145.384 723.876 145.74 722.667 146.238C721.458 146.807 720.463 147.589 719.68 148.584C718.969 149.509 718.614 150.824 718.614 152.531C718.614 153.669 718.792 154.629 719.147 155.411C719.645 156.122 720.249 156.726 720.96 157.224C721.671 157.722 722.525 158.077 723.52 158.291C724.516 158.504 725.511 158.611 726.507 158.611C728.64 158.611 730.525 158.291 732.16 157.651C733.724 157.082 735.04 156.335 736.107 155.411C737.102 154.486 737.813 153.491 738.24 152.424C738.738 151.287 738.987 150.22 738.987 149.224V142.398ZM763.306 115.305V107.199H756.586V115.412H763.306V115.305ZM756.586 122.772V163.624H763.306V122.772H756.586ZM774.186 107.199V163.731H780.905V107.199H774.186Z" fill="black"/>
<path d="M1472.94 1045.42H1463.66C1463.66 1048.12 1464.16 1050.43 1465.15 1052.35C1466.15 1054.34 1467.5 1055.94 1469.21 1057.15C1470.91 1058.43 1472.91 1059.35 1475.18 1059.92C1477.46 1060.49 1479.77 1060.77 1482.11 1060.77C1485.1 1060.77 1487.7 1060.42 1489.9 1059.71C1492.18 1059.07 1494.06 1058.14 1495.55 1056.93C1497.12 1055.65 1498.29 1054.16 1499.07 1052.45C1499.86 1050.75 1500.21 1048.9 1500.14 1046.91C1500.14 1044.49 1499.64 1042.5 1498.65 1040.94C1497.65 1039.37 1496.44 1038.13 1495.02 1037.2C1493.6 1036.28 1492.18 1035.6 1490.75 1035.18L1487.34 1034.32L1480.73 1032.62C1479.02 1032.12 1477.71 1031.66 1476.78 1031.23C1475.79 1030.8 1475.15 1030.3 1474.86 1029.74C1474.51 1029.24 1474.33 1028.56 1474.33 1027.71C1474.33 1026.78 1474.54 1026 1474.97 1025.36C1475.39 1024.79 1475.89 1024.3 1476.46 1023.87C1477.17 1023.44 1477.88 1023.16 1478.59 1023.02L1480.94 1022.8C1482.08 1022.8 1483.15 1022.91 1484.14 1023.12C1485.14 1023.34 1486.03 1023.69 1486.81 1024.19C1487.59 1024.62 1488.19 1025.26 1488.62 1026.11C1489.12 1026.96 1489.4 1028.03 1489.47 1029.31H1498.75C1498.75 1026.82 1498.26 1024.69 1497.26 1022.91C1496.34 1021.13 1495.06 1019.71 1493.42 1018.64C1491.86 1017.5 1490.01 1016.69 1487.87 1016.19C1485.74 1015.62 1483.57 1015.34 1481.37 1015.34C1479.45 1015.34 1477.49 1015.62 1475.5 1016.19C1473.58 1016.69 1471.84 1017.47 1470.27 1018.54C1468.71 1019.67 1467.47 1021.1 1466.54 1022.8C1465.62 1024.37 1465.15 1026.25 1465.15 1028.46C1465.15 1030.45 1465.51 1032.15 1466.22 1033.58C1466.93 1035 1467.93 1036.17 1469.21 1037.1C1470.49 1038.02 1471.87 1038.8 1473.37 1039.44C1474.86 1040.01 1476.43 1040.47 1478.06 1040.83L1482.75 1042.11C1484.32 1042.46 1485.71 1042.89 1486.91 1043.39C1488.12 1043.89 1489.08 1044.49 1489.79 1045.2C1490.58 1045.91 1490.97 1046.87 1490.97 1048.08C1490.97 1049.15 1490.68 1050.04 1490.11 1050.75C1489.55 1051.46 1488.83 1052.03 1487.98 1052.45C1487.13 1052.81 1486.2 1053.09 1485.21 1053.31L1482.54 1053.41C1481.26 1053.41 1480.05 1053.27 1478.91 1052.99C1477.71 1052.7 1476.64 1052.24 1475.71 1051.6C1474.86 1050.96 1474.19 1050.14 1473.69 1049.15C1473.19 1048.15 1472.94 1046.91 1472.94 1045.42ZM1534.38 1059.81V1028.35H1525.85V1044.88C1525.85 1048.08 1525.31 1050.39 1524.25 1051.81C1523.18 1053.24 1521.47 1053.95 1519.13 1053.95C1516.99 1053.95 1515.57 1053.31 1514.86 1052.03C1514.01 1050.68 1513.58 1048.72 1513.58 1046.16V1028.35H1504.94V1047.76C1504.94 1049.68 1505.12 1051.46 1505.47 1053.09C1505.83 1054.66 1506.43 1056.01 1507.29 1057.15C1508.14 1058.29 1509.28 1059.14 1510.7 1059.71C1512.19 1060.35 1514.11 1060.67 1516.46 1060.67C1518.24 1060.67 1520.02 1060.24 1521.79 1059.39C1523.57 1058.53 1524.99 1057.22 1526.06 1055.44H1526.27V1059.81H1534.49H1534.38ZM1564.14 1044.14C1564.14 1045.42 1564 1046.66 1563.71 1047.87C1563.43 1049.15 1562.97 1050.22 1562.33 1051.07C1561.76 1052.06 1561.01 1052.85 1560.09 1053.41C1559.16 1053.91 1558.06 1054.16 1556.78 1054.16C1555.5 1054.16 1554.43 1053.91 1553.58 1053.41C1552.58 1052.85 1551.77 1052.1 1551.13 1051.18C1550.56 1050.25 1550.13 1049.18 1549.85 1047.98C1549.56 1046.7 1549.42 1045.42 1549.42 1044.14C1549.42 1042.78 1549.56 1041.5 1549.85 1040.3C1550.13 1039.09 1550.56 1038.02 1551.13 1037.1C1551.77 1036.17 1552.55 1035.46 1553.47 1034.96C1554.4 1034.32 1555.46 1034 1556.67 1034C1558.09 1034 1559.23 1034.29 1560.09 1034.86C1561.01 1035.42 1561.76 1036.14 1562.33 1036.99C1562.97 1037.98 1563.43 1039.09 1563.71 1040.3C1564 1041.5 1564.14 1042.78 1564.14 1044.14ZM1541.1 1016.4V1059.81H1549.31V1055.87C1550.31 1057.57 1551.73 1058.78 1553.58 1059.49C1555.43 1060.21 1557.49 1060.56 1559.77 1060.56C1561.33 1060.56 1562.89 1060.28 1564.46 1059.71C1566.02 1059.14 1567.41 1058.14 1568.62 1056.72C1569.83 1055.3 1570.82 1053.59 1571.61 1051.6C1572.32 1049.47 1572.67 1046.98 1572.67 1044.14C1572.67 1041.29 1572.32 1038.8 1571.61 1036.67C1570.89 1034.54 1569.9 1032.79 1568.62 1031.44C1567.34 1030.16 1565.92 1029.17 1564.35 1028.46C1562.93 1027.82 1561.4 1027.5 1559.77 1027.5C1557.77 1027.5 1555.89 1027.89 1554.11 1028.67C1552.33 1029.38 1550.91 1030.55 1549.85 1032.19H1549.74V1016.4H1541.1ZM1578.54 1028.35V1059.81H1587.07V1041.68C1587.07 1040.05 1587.32 1038.77 1587.82 1037.84C1588.25 1036.92 1588.78 1036.21 1589.42 1035.71C1590.06 1035.14 1590.7 1034.78 1591.34 1034.64C1592.05 1034.43 1592.62 1034.32 1593.05 1034.32C1594.4 1034.32 1595.43 1034.57 1596.14 1035.07C1596.85 1035.5 1597.35 1036.1 1597.63 1036.88C1597.92 1037.66 1598.09 1038.52 1598.16 1039.44V1059.81H1606.91V1042.32L1607.02 1039.44C1607.23 1038.45 1607.52 1037.59 1607.87 1036.88C1608.37 1036.17 1608.97 1035.57 1609.68 1035.07C1610.4 1034.57 1611.39 1034.32 1612.67 1034.32C1613.95 1034.32 1614.91 1034.54 1615.55 1034.96C1616.26 1035.39 1616.8 1035.92 1617.15 1036.56C1617.51 1037.27 1617.72 1038.09 1617.79 1039.02L1617.9 1042V1059.81H1626.54V1038.8C1626.54 1036.74 1626.25 1035 1625.68 1033.58C1625.12 1032.15 1624.33 1030.98 1623.34 1030.06C1622.34 1029.2 1621.13 1028.56 1619.71 1028.14C1618.29 1027.71 1616.76 1027.5 1615.12 1027.5C1612.92 1027.5 1611 1028.03 1609.36 1029.1C1607.8 1030.16 1606.56 1031.37 1605.63 1032.72C1604.78 1030.8 1603.5 1029.45 1601.79 1028.67C1600.16 1027.96 1598.38 1027.6 1596.46 1027.6C1594.32 1027.6 1592.48 1028.03 1590.91 1028.88C1589.28 1029.74 1587.89 1030.98 1586.75 1032.62V1028.35H1578.54ZM1642.32 1023.44V1016.4H1633.68V1023.55H1642.22L1642.32 1023.44ZM1633.68 1028.35V1059.81H1642.22V1028.35H1633.68ZM1660.03 1028.35V1018.96H1651.5V1028.35H1646.16V1034.22H1651.5V1052.77C1651.5 1054.34 1651.75 1055.58 1652.24 1056.51C1652.74 1057.43 1653.45 1058.21 1654.38 1058.85C1655.3 1059.35 1656.37 1059.71 1657.58 1059.92C1658.71 1060.06 1659.96 1060.13 1661.31 1060.13H1663.98C1664.9 1060.13 1665.72 1060.03 1666.43 1059.81V1053.31L1665.15 1053.41H1663.66C1662.23 1053.41 1661.27 1053.2 1660.78 1052.77C1660.28 1052.28 1660.03 1051.32 1660.03 1049.9V1034.11H1666.43V1028.24H1660.03V1028.35Z" fill="white"/>
<path d="M1793.15 975.763H1835.28V1103.65H1792.61M1792.61 389.005H1835.28V623.666H1792.61M1835.28 517.002H2378.31" stroke="black" stroke-width="5.3332"/>
<path d="M2424.38 557.747C2419.26 557.747 2414.78 556.752 2410.94 554.761C2407.03 552.698 2404.05 549.854 2401.98 546.228C2399.85 542.601 2398.78 538.405 2398.78 533.641V529.801C2398.78 529.375 2398.93 529.019 2399.21 528.735C2399.57 528.379 2399.92 528.201 2400.28 528.201H2415.53C2415.96 528.201 2416.31 528.379 2416.6 528.735C2416.95 529.019 2417.13 529.375 2417.13 529.801V532.681C2417.13 535.454 2417.84 537.659 2419.26 539.294C2420.69 540.93 2422.43 541.783 2424.49 541.854C2426.55 541.925 2428.33 541.108 2429.82 539.401C2431.32 537.694 2432.03 535.632 2431.96 533.215C2431.96 530.583 2431.03 528.344 2429.18 526.495C2427.48 524.575 2424.06 521.766 2418.94 518.068C2414.54 514.939 2410.98 512.131 2408.28 509.642C2405.58 507.153 2403.23 504.131 2401.24 500.575C2399.32 497.02 2398.36 492.824 2398.36 487.989C2398.36 480.523 2400.7 474.549 2405.4 470.069C2410.02 465.59 2416.17 463.35 2423.85 463.35C2431.53 463.35 2437.72 465.696 2442.41 470.389C2447.17 475.012 2449.56 481.127 2449.56 488.736V491.936C2449.56 492.291 2449.38 492.647 2449.02 493.002C2448.74 493.287 2448.38 493.429 2447.96 493.429H2432.81C2432.38 493.429 2431.99 493.287 2431.64 493.002C2431.35 492.647 2431.21 492.291 2431.21 491.936V488.309C2431.21 485.607 2430.5 483.474 2429.08 481.909C2427.8 480.203 2426.02 479.349 2423.74 479.349C2421.68 479.349 2420.01 480.131 2418.73 481.696C2417.38 483.189 2416.7 485.322 2416.7 488.096C2416.7 490.727 2417.56 493.038 2419.26 495.029C2420.97 497.02 2424.24 499.829 2429.08 503.455C2434.55 507.508 2438.64 510.815 2441.34 513.375C2444.19 515.793 2446.32 518.566 2447.74 521.695C2449.38 524.681 2450.2 528.237 2450.2 532.361C2450.2 540.183 2447.81 546.37 2443.05 550.921C2438.29 555.472 2432.06 557.747 2424.38 557.747ZM2489.02 500.469C2489.02 500.895 2488.88 501.251 2488.6 501.535C2488.31 501.82 2487.96 501.962 2487.53 501.962H2480.06C2479.71 501.962 2479.53 502.211 2479.53 502.709V534.068C2479.53 536.628 2479.99 538.406 2480.92 539.401C2481.91 540.325 2483.37 540.717 2485.29 540.574H2486.25C2486.68 540.574 2487.03 540.752 2487.32 541.108C2487.67 541.392 2487.85 541.748 2487.85 542.174V555.187C2487.85 555.685 2487.67 556.112 2487.32 556.467C2487.03 556.681 2486.68 556.787 2486.25 556.787H2480.92C2474.52 556.787 2469.68 555.721 2466.41 553.587C2463.21 551.454 2461.61 547.33 2461.61 541.214V502.815C2461.61 502.318 2461.36 502.069 2460.86 502.069H2456.6C2456.17 502.069 2455.78 501.962 2455.42 501.749C2455.14 501.393 2455 501.002 2455 500.575V490.656C2455 490.229 2455.14 489.873 2455.42 489.589C2455.78 489.233 2456.13 489.056 2456.49 489.056H2460.86C2461.36 489.056 2461.61 488.842 2461.61 488.416V473.803C2461.61 473.376 2461.72 473.02 2461.93 472.736C2462.29 472.381 2462.68 472.203 2463.1 472.203H2477.93C2478.36 472.203 2478.71 472.381 2479 472.736C2479.35 473.02 2479.53 473.376 2479.53 473.803V488.416C2479.53 488.842 2479.74 489.056 2480.17 489.056H2487.64C2487.99 489.056 2488.31 489.233 2488.6 489.589C2488.95 489.873 2489.13 490.229 2489.13 490.656V500.575L2489.02 500.469ZM2521.45 487.989C2528.91 487.989 2534.96 489.98 2539.58 493.962C2544.2 497.944 2546.55 503.278 2546.62 509.962V555.081C2546.62 555.578 2546.44 556.005 2546.09 556.361C2545.8 556.574 2545.45 556.681 2545.02 556.681H2529.55C2529.13 556.681 2528.77 556.574 2528.49 556.361C2528.13 556.005 2527.95 555.578 2527.95 555.081V552.201C2527.95 551.916 2527.88 551.739 2527.74 551.667C2527.53 551.596 2527.35 551.703 2527.21 551.987C2524.36 555.685 2519.88 557.605 2513.77 557.747C2508.65 557.747 2504.2 556.325 2500.44 553.481C2496.74 550.707 2494.89 545.374 2494.89 537.481C2494.89 529.303 2497.13 523.686 2501.61 520.628C2506.23 517.499 2512.77 515.935 2521.23 515.935H2527.31C2527.74 515.935 2527.95 515.722 2527.95 515.295V512.095C2527.95 509.677 2527.31 507.722 2526.03 506.229C2524.83 504.664 2523.23 503.882 2521.23 503.882C2519.81 503.882 2518.57 504.344 2517.5 505.269C2516.51 506.193 2515.87 507.473 2515.58 509.108C2515.51 510.175 2514.94 510.708 2513.87 510.708L2498.09 510.602C2497.02 510.602 2496.49 510.068 2496.49 509.002C2496.92 502.602 2499.4 497.518 2503.95 493.749C2508.58 489.838 2514.41 487.882 2521.45 487.882V487.989ZM2520.06 543.454C2522.12 543.454 2523.9 542.743 2525.39 541.321C2527.1 539.97 2527.95 538.157 2527.95 535.881V529.695C2527.95 529.268 2527.74 529.055 2527.31 529.055H2521.98C2519.56 529.055 2517.61 529.766 2516.11 531.188C2514.69 532.468 2513.98 534.281 2513.98 536.628C2513.98 538.832 2514.51 540.503 2515.58 541.641C2516.72 542.779 2518.21 543.348 2520.06 543.348V543.454ZM2579.79 557.747C2572.11 557.747 2566.03 555.756 2561.55 551.774C2557.14 547.863 2554.94 542.494 2554.94 535.668V510.068C2554.94 503.384 2557.14 498.015 2561.55 493.962C2566.03 489.909 2572.11 487.882 2579.79 487.882C2587.47 487.882 2593.52 489.873 2597.93 493.856C2602.48 497.767 2604.75 502.886 2604.75 509.215V511.668C2604.75 512.095 2604.57 512.451 2604.22 512.735C2603.93 513.019 2603.58 513.162 2603.15 513.162L2587.69 513.908C2586.69 513.908 2586.19 513.375 2586.19 512.308V510.708C2586.19 508.788 2585.55 507.153 2584.27 505.802C2583.14 504.522 2581.64 503.882 2579.79 503.882C2577.87 503.882 2576.34 504.593 2575.21 506.015C2574.07 507.437 2573.5 509.251 2573.5 511.455V534.174C2573.5 536.45 2574.07 538.299 2575.21 539.721C2576.34 541.143 2577.87 541.854 2579.79 541.854C2581.64 541.854 2583.14 541.179 2584.27 539.828C2585.55 538.405 2586.19 536.77 2586.19 534.921V533.215C2586.19 532.788 2586.3 532.432 2586.51 532.148C2586.87 531.792 2587.26 531.615 2587.69 531.615L2603.15 531.828C2603.58 531.828 2603.93 532.006 2604.22 532.361C2604.57 532.575 2604.75 532.93 2604.75 533.428V536.414C2604.75 542.885 2602.51 548.076 2598.03 551.987C2593.62 555.827 2587.58 557.747 2579.9 557.747H2579.79ZM2614.57 556.681C2614.14 556.681 2613.75 556.538 2613.39 556.254C2613.11 555.969 2612.97 555.614 2612.97 555.187V466.016C2612.97 465.59 2613.11 465.234 2613.39 464.95C2613.75 464.594 2614.14 464.416 2614.57 464.416H2630.03C2630.46 464.416 2630.81 464.594 2631.1 464.95C2631.38 465.234 2631.53 465.59 2631.53 466.016V509.748C2631.53 510.033 2631.63 510.211 2631.84 510.282C2631.99 510.282 2632.16 510.175 2632.38 509.962L2643.79 490.016C2644.15 489.305 2644.82 488.949 2645.82 488.949H2661.6C2662.24 488.949 2662.64 489.127 2662.78 489.482C2663.06 489.838 2663.03 490.264 2662.67 490.762L2648.48 512.948C2648.27 513.304 2648.2 513.624 2648.27 513.908L2664.38 554.867L2664.48 555.507C2664.48 556.289 2664.02 556.681 2663.1 556.681H2647.1C2646.24 556.681 2645.68 556.254 2645.39 555.401L2636.96 529.268C2636.89 528.984 2636.75 528.841 2636.54 528.841C2636.4 528.841 2636.29 528.948 2636.22 529.161L2631.84 535.988C2631.63 536.343 2631.53 536.628 2631.53 536.841V555.081C2631.53 555.578 2631.35 555.969 2630.99 556.254C2630.78 556.538 2630.42 556.681 2629.93 556.681H2614.57Z" fill="black"/>
<path d="M2442.52 400.631H2436.33C2435.19 402.338 2434.2 404.151 2433.34 406.071C2432.49 408.062 2431.78 410.124 2431.21 412.258C2430.64 414.391 2430.21 416.524 2429.93 418.658C2429.65 420.791 2429.5 422.817 2429.5 424.737C2429.5 428.791 2430.11 432.808 2431.32 436.79C2432.53 440.701 2434.2 444.435 2436.33 447.99H2442.52C2440.53 444.221 2439.1 440.346 2438.25 436.364C2437.33 432.382 2436.86 428.328 2436.86 424.204C2436.86 420.08 2437.33 416.062 2438.25 412.151C2439.1 408.169 2440.53 404.329 2442.52 400.631ZM2444.97 411.831V438.604H2452.44V424.524C2452.44 421.822 2452.86 419.866 2453.72 418.658C2454.64 417.449 2456.06 416.844 2457.98 416.844C2459.83 416.844 2461.08 417.413 2461.72 418.551C2462.43 419.618 2462.78 421.253 2462.78 423.457V438.604H2470.25V422.071C2470.25 420.435 2470.07 418.942 2469.72 417.591C2469.43 416.169 2468.93 415.031 2468.22 414.178C2467.51 413.182 2466.52 412.435 2465.24 411.938C2463.96 411.369 2462.32 411.084 2460.33 411.084C2458.77 411.084 2457.27 411.44 2455.85 412.151C2454.36 412.862 2453.11 414 2452.12 415.564H2452.01V411.831H2444.97ZM2493.93 422.284H2481.88C2481.88 421.786 2481.98 421.217 2482.2 420.577C2482.41 419.866 2482.76 419.226 2483.26 418.658C2483.69 418.089 2484.29 417.626 2485.08 417.271C2485.86 416.844 2486.85 416.631 2488.06 416.631C2489.84 416.631 2491.16 417.093 2492.01 418.018C2492.93 419.013 2493.57 420.435 2493.93 422.284ZM2481.88 426.977H2501.29C2501.43 424.844 2501.25 422.853 2500.76 421.004C2500.26 419.084 2499.44 417.378 2498.3 415.884C2497.24 414.462 2495.88 413.289 2494.25 412.364C2492.54 411.511 2490.55 411.084 2488.28 411.084C2486.14 411.084 2484.26 411.44 2482.62 412.151C2480.99 412.862 2479.56 413.858 2478.36 415.138C2477.15 416.418 2476.19 417.911 2475.48 419.618C2474.84 421.324 2474.52 423.209 2474.52 425.271C2474.52 427.333 2474.84 429.217 2475.48 430.924C2476.19 432.631 2477.11 434.124 2478.25 435.404C2479.39 436.684 2480.81 437.644 2482.52 438.284C2484.22 438.995 2486.14 439.35 2488.28 439.35C2491.26 439.35 2493.86 438.639 2496.06 437.217C2498.2 435.795 2499.76 433.484 2500.76 430.284H2494.36C2494.07 431.137 2493.4 431.955 2492.33 432.737C2491.26 433.448 2489.98 433.804 2488.49 433.804C2486.36 433.804 2484.76 433.271 2483.69 432.204C2482.62 431.137 2482.02 429.395 2481.88 426.977ZM2511.42 429.857H2504.38C2504.38 431.706 2504.74 433.235 2505.45 434.444C2506.23 435.582 2507.19 436.506 2508.33 437.217C2509.54 437.928 2510.89 438.461 2512.38 438.817C2513.8 439.101 2515.33 439.244 2516.97 439.244C2518.46 439.244 2519.95 439.101 2521.45 438.817C2522.87 438.533 2524.19 438.035 2525.39 437.324C2526.53 436.613 2527.42 435.653 2528.06 434.444C2528.77 433.235 2529.13 431.742 2529.13 429.964C2529.13 428.755 2528.91 427.724 2528.49 426.871C2527.99 426.017 2527.35 425.306 2526.57 424.737C2525.79 424.169 2524.86 423.706 2523.79 423.351C2522.8 422.995 2521.73 422.711 2520.59 422.497L2517.61 421.751L2514.94 421.111C2514.23 420.826 2513.59 420.471 2513.02 420.044C2512.52 419.689 2512.28 419.155 2512.28 418.444C2512.28 417.946 2512.42 417.52 2512.7 417.164C2512.99 416.809 2513.34 416.56 2513.77 416.418C2514.12 416.204 2514.55 416.098 2515.05 416.098L2516.43 415.991C2517.71 415.991 2518.85 416.24 2519.85 416.738C2520.84 417.235 2521.38 418.195 2521.45 419.618H2528.49C2528.35 417.982 2527.92 416.631 2527.21 415.564C2526.5 414.427 2525.61 413.538 2524.54 412.898C2523.47 412.187 2522.23 411.724 2520.81 411.511C2519.46 411.227 2518.03 411.084 2516.54 411.084C2515.05 411.084 2513.63 411.227 2512.28 411.511C2510.92 411.724 2509.71 412.151 2508.65 412.791C2507.51 413.502 2506.62 414.391 2505.98 415.458C2505.27 416.524 2504.92 417.946 2504.92 419.724C2504.92 420.862 2505.16 421.857 2505.66 422.711C2506.16 423.493 2506.8 424.169 2507.58 424.737C2508.36 425.235 2509.25 425.662 2510.25 426.017L2513.45 426.871C2516.08 427.368 2518.14 427.902 2519.63 428.471C2521.06 429.04 2521.77 429.893 2521.77 431.031C2521.77 431.671 2521.63 432.204 2521.34 432.631C2521.06 433.057 2520.67 433.413 2520.17 433.697L2518.57 434.23C2518.07 434.373 2517.54 434.444 2516.97 434.444C2516.26 434.444 2515.55 434.337 2514.83 434.124C2514.19 433.982 2513.63 433.733 2513.13 433.377C2512.56 433.022 2512.13 432.559 2511.85 431.991C2511.49 431.422 2511.31 430.711 2511.31 429.857H2511.42ZM2542.89 411.831V403.725H2535.42V411.831H2531.05V416.738H2535.53V432.524C2535.53 433.946 2535.74 435.013 2536.17 435.724C2536.59 436.435 2537.2 437.11 2537.98 437.75C2538.76 438.177 2539.65 438.462 2540.65 438.604C2541.71 438.817 2542.78 438.924 2543.85 438.924H2546.19L2548.33 438.604V432.951L2547.15 433.057H2545.98C2544.7 433.057 2543.85 432.879 2543.42 432.524C2543.07 432.097 2542.89 431.244 2542.89 429.964V416.738H2548.22V411.831H2542.89ZM2569.77 422.284H2557.82C2557.82 421.786 2557.93 421.217 2558.14 420.577C2558.35 419.866 2558.71 419.226 2559.21 418.658C2559.63 418.089 2560.24 417.626 2561.02 417.271C2561.73 416.844 2562.69 416.631 2563.9 416.631C2565.75 416.631 2567.1 417.093 2567.95 418.018C2568.88 419.013 2569.48 420.435 2569.77 422.284ZM2557.82 426.977H2577.13C2577.27 424.844 2577.13 422.853 2576.7 421.004C2576.2 419.084 2575.38 417.378 2574.25 415.884C2573.18 414.462 2571.79 413.289 2570.09 412.364C2568.38 411.511 2566.39 411.084 2564.11 411.084C2562.12 411.084 2560.27 411.44 2558.57 412.151C2556.86 412.862 2555.44 413.858 2554.3 415.138C2553.02 416.418 2552.06 417.911 2551.42 419.618C2550.71 421.324 2550.35 423.209 2550.35 425.271C2550.35 427.333 2550.71 429.217 2551.42 430.924C2552.06 432.631 2552.95 434.124 2554.09 435.404C2555.22 436.684 2556.65 437.644 2558.35 438.284C2560.13 438.995 2562.05 439.35 2564.11 439.35C2567.17 439.35 2569.77 438.639 2571.9 437.217C2574.03 435.795 2575.63 433.484 2576.7 430.284H2570.3C2570.02 431.137 2569.3 431.955 2568.17 432.737C2567.17 433.448 2565.93 433.804 2564.43 433.804C2562.3 433.804 2560.7 433.271 2559.63 432.204C2558.57 431.137 2557.96 429.395 2557.82 426.977ZM2600.59 425.057C2600.59 426.195 2600.49 427.262 2600.27 428.257C2600.06 429.324 2599.7 430.284 2599.21 431.137C2598.78 431.919 2598.14 432.559 2597.29 433.057C2596.5 433.555 2595.51 433.804 2594.3 433.804C2593.16 433.804 2592.17 433.555 2591.31 433.057C2590.53 432.559 2589.82 431.919 2589.18 431.137C2588.75 430.284 2588.4 429.324 2588.11 428.257C2587.9 427.262 2587.79 426.231 2587.79 425.164C2587.79 424.097 2587.9 423.031 2588.11 421.964C2588.33 420.969 2588.68 420.08 2589.18 419.298C2589.68 418.444 2590.35 417.804 2591.21 417.378C2592.06 416.88 2593.09 416.631 2594.3 416.631C2595.51 416.631 2596.5 416.88 2597.29 417.378C2598.07 417.804 2598.71 418.444 2599.21 419.298C2599.7 420.009 2600.06 420.898 2600.27 421.964C2600.49 422.96 2600.59 424.026 2600.59 425.164V425.057ZM2600.7 435.19V438.604H2607.74V401.591H2600.27V415.031C2599.42 413.751 2598.25 412.755 2596.75 412.044C2595.33 411.333 2593.84 410.978 2592.27 410.978C2590.28 410.978 2588.54 411.404 2587.05 412.258C2585.62 412.969 2584.38 414 2583.31 415.351C2582.39 416.631 2581.68 418.089 2581.18 419.724C2580.68 421.431 2580.43 423.209 2580.43 425.057C2580.43 426.835 2580.68 428.613 2581.18 430.391C2581.68 432.097 2582.39 433.626 2583.31 434.977C2584.38 436.328 2585.66 437.395 2587.15 438.177C2588.65 438.888 2590.42 439.244 2592.49 439.244C2594.19 439.244 2595.76 438.959 2597.18 438.39C2598.6 437.679 2599.74 436.613 2600.59 435.19H2600.7ZM2610.09 447.99H2616.17C2617.3 446.355 2618.3 444.577 2619.15 442.657C2620.01 440.737 2620.72 438.71 2621.29 436.577C2621.93 434.444 2622.39 432.311 2622.67 430.177C2622.89 428.044 2622.99 426.017 2622.99 424.097C2622.99 419.973 2622.39 415.955 2621.18 412.044C2620.04 408.062 2618.37 404.258 2616.17 400.631H2610.09C2612.01 404.4 2613.43 408.311 2614.35 412.364C2615.21 416.347 2615.63 420.435 2615.63 424.631C2615.63 428.684 2615.17 432.702 2614.25 436.684C2613.39 440.595 2611.97 444.364 2609.98 447.99H2610.09Z" fill="black"/>
</g>
<defs>
<clipPath id="clip0_2112_85">
<rect width="2674.1" height="1315.7" fill="white" transform="translate(56 56)"/>
</clipPath>
</defs>
</svg>
