<svg width="4724" height="2662" viewBox="0 0 4724 2662" fill="none" xmlns="http://www.w3.org/2000/svg">
<rect width="4724" height="2662" fill="white"/>
<g clip-path="url(#clip0_2112_87)">
<path d="M924.959 395.774H3612.97V2102.45H924.959V395.774Z" stroke="black" stroke-width="10.6667" stroke-linecap="round" stroke-linejoin="round"/>
<path d="M2486.56 1851.67L2372.75 1927.4L2486.56 2003.35M2561.23 2003.35L2674.94 1927.51L2561.23 1851.67" stroke="black" stroke-width="23.6801"/>
<path d="M1434.61 395.561H3613.18V2102.66H1434.61V395.561Z" stroke="black" stroke-width="10.24" stroke-linecap="round" stroke-linejoin="round"/>
<path d="M1809.76 1015.94H1841.66C1840.66 1007.26 1838.28 999.58 1834.51 992.896C1830.74 986.14 1825.9 980.522 1820 976.042C1814.31 971.491 1807.74 968.007 1800.27 965.589C1793.02 963.242 1785.26 962.069 1777.02 962.069C1765.64 962.069 1755.33 964.096 1746.08 968.149C1736.98 972.202 1729.26 977.784 1722.93 984.896C1716.68 992.007 1711.88 1000.4 1708.53 1010.07C1705.19 1019.53 1703.52 1029.84 1703.52 1041C1703.52 1051.95 1705.19 1062.19 1708.53 1071.72C1711.88 1081.04 1716.68 1089.22 1722.93 1096.26C1729.26 1103.22 1736.94 1108.74 1745.97 1112.79C1755.22 1116.7 1765.57 1118.66 1777.02 1118.66C1786.26 1118.66 1794.72 1117.23 1802.4 1114.39C1810.08 1111.62 1816.8 1107.56 1822.56 1102.23C1828.25 1096.97 1832.87 1090.57 1836.43 1083.03C1839.91 1075.49 1842.05 1067.03 1842.83 1057.64H1811.15C1809.87 1067.67 1806.35 1075.78 1800.59 1081.96C1795.04 1088.08 1787.22 1091.14 1777.12 1091.14C1769.73 1091.14 1763.43 1089.75 1758.24 1086.98C1753.12 1084.06 1748.96 1080.22 1745.76 1075.46C1742.49 1070.69 1740.11 1065.36 1738.61 1059.46C1737.19 1053.48 1736.48 1047.37 1736.48 1041.11C1736.48 1034.5 1737.19 1028.1 1738.61 1021.91C1740.11 1015.79 1742.49 1010.35 1745.76 1005.59C1748.96 1000.75 1753.12 996.913 1758.24 994.069C1763.43 991.224 1769.73 989.802 1777.12 989.802C1781.18 989.802 1785.02 990.478 1788.64 991.829C1792.41 993.038 1795.79 994.816 1798.78 997.162C1801.69 999.58 1804.14 1002.42 1806.14 1005.7C1808.06 1008.75 1809.3 1012.17 1809.87 1015.94H1809.76ZM1862.03 1006.87V1115.24H1891.79V1066.39C1891.79 1061.55 1892.25 1057.04 1893.18 1052.84C1894.17 1048.58 1895.81 1044.91 1898.08 1041.86C1900.43 1038.66 1903.49 1036.17 1907.26 1034.39C1911.02 1032.54 1915.65 1031.62 1921.12 1031.62C1922.9 1031.62 1924.78 1031.76 1926.78 1032.04C1928.7 1032.18 1930.37 1032.4 1931.79 1032.68V1004.95C1929.44 1004.24 1927.31 1003.88 1925.39 1003.88C1921.55 1003.88 1917.89 1004.45 1914.4 1005.59C1910.85 1006.73 1907.58 1008.36 1904.59 1010.5C1901.46 1012.42 1898.72 1014.83 1896.38 1017.75C1894.03 1020.59 1892.14 1023.69 1890.72 1027.03H1890.3V1006.87H1862.03ZM2013.39 1049.54H1964.96C1965.1 1047.4 1965.5 1044.98 1966.14 1042.28C1966.99 1039.65 1968.34 1037.16 1970.19 1034.82C1972.11 1032.4 1974.6 1030.44 1977.66 1028.95C1980.93 1027.24 1984.94 1026.39 1989.71 1026.39C1996.96 1026.39 2002.3 1028.34 2005.71 1032.26C2009.41 1036.17 2011.97 1041.89 2013.39 1049.43V1049.54ZM1964.96 1068.31H2043.15C2043.72 1059.92 2043.01 1051.88 2041.02 1044.2C2039.02 1036.52 2035.82 1029.66 2031.42 1023.62C2027.08 1017.64 2021.46 1012.91 2014.56 1009.43C2007.74 1005.8 1999.7 1003.99 1990.46 1003.99C1982.21 1003.99 1974.67 1005.45 1967.84 1008.36C1961.16 1011.28 1955.36 1015.33 1950.46 1020.52C1945.55 1025.5 1941.78 1031.51 1939.15 1038.55C1936.52 1045.52 1935.2 1053.06 1935.2 1061.16C1935.2 1069.55 1936.45 1077.23 1938.94 1084.2C1941.57 1091.24 1945.26 1097.29 1950.03 1102.34C1954.79 1107.31 1960.59 1111.22 1967.42 1114.07C1974.31 1116.7 1981.99 1118.02 1990.46 1118.02C2002.76 1118.02 2013.25 1115.21 2021.92 1109.59C2030.6 1104.04 2037.03 1094.76 2041.23 1081.75H2014.99C2014.06 1085.09 2011.43 1088.29 2007.1 1091.35C2002.76 1094.34 1997.57 1095.83 1991.52 1095.83C1983.13 1095.83 1976.73 1093.66 1972.32 1089.32C1967.84 1084.98 1965.35 1077.98 1964.86 1068.31H1964.96ZM2059.68 1040.26C2060.11 1033.22 2061.89 1027.42 2065.02 1022.87C2068.07 1018.25 2071.98 1014.51 2076.75 1011.67C2081.44 1008.9 2086.74 1006.94 2092.64 1005.8C2098.62 1004.59 2104.62 1003.99 2110.67 1003.99C2116.07 1003.99 2121.58 1004.42 2127.2 1005.27C2132.82 1005.98 2137.94 1007.4 2142.56 1009.54C2147.11 1011.81 2150.88 1015.01 2153.87 1019.14C2156.71 1022.98 2158.14 1028.2 2158.14 1034.82V1091.14C2158.14 1096.11 2158.46 1100.81 2159.1 1105.22C2159.66 1109.7 2160.63 1113.04 2161.98 1115.24H2131.79C2131.22 1113.61 2130.76 1111.94 2130.4 1110.23C2130.12 1108.45 2129.9 1106.64 2129.76 1104.79C2125 1109.7 2119.38 1113.11 2112.91 1115.03C2106.51 1117.02 2099.97 1118.02 2093.28 1118.02C2088.09 1118.02 2083.26 1117.38 2078.78 1116.1C2074.3 1114.82 2070.38 1112.86 2067.04 1110.23C2063.7 1107.6 2061.03 1104.26 2059.04 1100.2C2057.26 1096.15 2056.38 1091.31 2056.38 1085.7C2056.38 1079.58 2057.44 1074.57 2059.58 1070.66C2061.71 1066.6 2064.48 1063.4 2067.9 1061.06C2071.38 1058.64 2075.29 1056.86 2079.63 1055.72C2084.11 1054.44 2088.59 1053.48 2093.07 1052.84C2097.55 1052.13 2101.96 1051.56 2106.3 1051.14C2110.56 1050.71 2114.4 1050.07 2117.82 1049.22C2121.16 1048.36 2123.79 1047.19 2125.71 1045.7C2127.7 1043.99 2128.62 1041.61 2128.48 1038.55C2128.48 1035.35 2127.91 1032.86 2126.78 1031.08C2125.78 1029.09 2124.36 1027.6 2122.51 1026.6C2120.87 1025.46 2118.88 1024.75 2116.54 1024.47C2114.26 1024.04 2111.81 1023.83 2109.18 1023.83C2103.34 1023.83 2098.72 1025.11 2095.31 1027.67C2091.97 1030.16 2090.01 1034.35 2089.44 1040.26H2059.68ZM2128.48 1062.23C2127.2 1063.37 2125.6 1064.29 2123.68 1065C2121.83 1065.5 2119.81 1065.96 2117.6 1066.39C2115.47 1066.82 2113.23 1067.17 2110.88 1067.46C2108.46 1067.74 2106.08 1068.1 2103.74 1068.52C2101.53 1068.95 2099.29 1069.52 2097.02 1070.23C2094.88 1070.94 2093 1071.9 2091.36 1073.11C2089.8 1074.25 2088.55 1075.74 2087.63 1077.59C2086.63 1079.37 2086.14 1081.64 2086.14 1084.42C2086.14 1087.12 2086.63 1089.36 2087.63 1091.14C2088.55 1092.98 2089.87 1094.48 2091.58 1095.62C2093.28 1096.54 2095.24 1097.25 2097.44 1097.75C2099.65 1098.1 2101.96 1098.28 2104.38 1098.28C2110.21 1098.28 2114.76 1097.32 2118.03 1095.4C2121.23 1093.41 2123.58 1091.1 2125.07 1088.47C2126.63 1085.62 2127.56 1082.82 2127.84 1080.04C2128.27 1077.2 2128.48 1074.96 2128.48 1073.32V1062.34V1062.23ZM2218.62 1006.87V974.442H2188.86V1006.87H2170.83V1026.82H2188.96V1090.82C2188.96 1096.22 2189.85 1100.59 2191.63 1103.94C2193.41 1107.28 2195.86 1109.87 2198.99 1111.72C2202.19 1113.5 2205.82 1114.67 2209.87 1115.24C2214.07 1115.95 2218.47 1116.31 2223.1 1116.31L2232.06 1116.1C2235.11 1115.95 2237.92 1115.67 2240.48 1115.24V1092.2C2239.06 1092.49 2237.6 1092.7 2236.11 1092.84C2234.55 1092.98 2232.91 1093.06 2231.2 1093.06C2226.23 1093.06 2222.88 1092.2 2221.18 1090.5C2219.47 1088.86 2218.62 1085.52 2218.62 1080.47V1026.82H2240.48V1006.87H2218.62ZM2285.18 990.122V965.589H2255.42V990.122H2285.28H2285.18ZM2255.42 1006.87V1115.24H2285.28V1006.87H2255.42ZM2308.64 1006.87V1115.24H2338.51V1058.5C2338.51 1047.4 2340.29 1039.51 2343.84 1034.82C2347.47 1029.84 2353.34 1027.35 2361.44 1027.35C2368.55 1027.35 2373.53 1029.62 2376.38 1034.18C2379.22 1038.44 2380.64 1045.06 2380.64 1054.02V1115.24H2410.3V1048.58C2410.3 1041.89 2409.69 1035.85 2408.48 1030.44C2407.35 1024.75 2405.32 1020.06 2402.4 1016.36C2399.42 1012.45 2395.36 1009.43 2390.24 1007.3C2385.19 1005.09 2378.69 1003.99 2370.72 1003.99C2364.39 1003.99 2358.24 1005.45 2352.27 1008.36C2346.23 1011.21 2341.32 1015.76 2337.55 1022.02H2337.02V1006.87H2308.64ZM2483.68 1089.75C2479.06 1089.75 2475.22 1088.75 2472.16 1086.76C2469.03 1084.84 2466.51 1082.35 2464.59 1079.3C2462.74 1076.17 2461.39 1072.72 2460.54 1068.95C2459.83 1065.04 2459.47 1061.13 2459.47 1057.22C2459.47 1053.16 2459.9 1049.32 2460.75 1045.7C2461.75 1041.93 2463.24 1038.62 2465.23 1035.78C2467.36 1032.93 2469.85 1030.66 2472.7 1028.95C2475.83 1027.24 2479.49 1026.39 2483.68 1026.39C2488.52 1026.39 2492.57 1027.31 2495.84 1029.16C2499.04 1030.94 2501.6 1033.36 2503.52 1036.42C2505.51 1039.54 2506.94 1043.1 2507.79 1047.08C2508.57 1051.06 2508.96 1055.3 2508.96 1059.78C2508.96 1063.69 2508.43 1067.46 2507.36 1071.08C2506.37 1074.57 2504.8 1077.7 2502.67 1080.47C2500.61 1083.31 2497.98 1085.55 2494.78 1087.19C2491.58 1088.9 2487.88 1089.75 2483.68 1089.75ZM2537.34 1108.31V1006.98H2508.96V1021.38H2508.64C2504.95 1015.05 2500.39 1010.57 2494.99 1007.94C2489.66 1005.3 2483.43 1003.99 2476.32 1003.99C2468.79 1003.99 2462.07 1005.45 2456.16 1008.36C2450.47 1011.28 2445.67 1015.26 2441.76 1020.31C2437.85 1025.22 2434.83 1030.94 2432.7 1037.48C2430.78 1043.88 2429.82 1050.6 2429.82 1057.64C2429.82 1065.04 2430.63 1072.08 2432.27 1078.76C2434.12 1085.38 2436.93 1091.17 2440.7 1096.15C2444.47 1101.13 2449.27 1105.04 2455.1 1107.88C2461 1110.73 2468 1112.15 2476.11 1112.15C2482.65 1112.15 2488.87 1110.8 2494.78 1108.1C2500.75 1105.32 2505.37 1101.06 2508.64 1095.3H2508.96V1109.59C2509.11 1117.27 2507.22 1123.67 2503.31 1128.79C2499.54 1133.77 2493.5 1136.26 2485.18 1136.26C2479.84 1136.26 2475.15 1135.12 2471.1 1132.84C2467.04 1130.71 2464.31 1126.87 2462.88 1121.32H2433.34C2433.76 1127.51 2435.43 1132.77 2438.35 1137.11C2441.41 1141.59 2445.18 1145.22 2449.66 1147.99C2454.28 1150.83 2459.33 1152.86 2464.8 1154.07C2470.35 1155.49 2475.79 1156.2 2481.12 1156.2C2493.57 1156.2 2503.52 1154.5 2510.99 1151.08C2518.31 1147.74 2523.93 1143.62 2527.84 1138.71C2531.75 1134.02 2534.28 1128.86 2535.42 1123.24C2536.7 1117.62 2537.34 1112.65 2537.34 1108.31ZM2693.28 1045.06H2722.3C2721.87 1038.09 2720.2 1032.04 2717.28 1026.92C2714.37 1021.8 2710.53 1017.57 2705.76 1014.23C2701.14 1010.67 2695.81 1008.08 2689.76 1006.44C2683.93 1004.81 2677.82 1003.99 2671.42 1003.99C2662.6 1003.99 2654.78 1005.45 2647.95 1008.36C2641.05 1011.28 2635.26 1015.4 2630.56 1020.74C2625.8 1025.93 2622.14 1032.15 2619.58 1039.4C2617.23 1046.51 2616.06 1054.26 2616.06 1062.66C2616.06 1070.76 2617.37 1078.23 2620 1085.06C2622.71 1091.81 2626.4 1097.61 2631.1 1102.44C2635.86 1107.42 2641.62 1111.26 2648.38 1113.96C2655.2 1116.66 2662.67 1118.02 2670.78 1118.02C2685.14 1118.02 2696.95 1114.25 2706.19 1106.71C2715.44 1099.17 2721.02 1088.18 2722.94 1073.75H2694.35C2693.36 1080.5 2690.9 1085.87 2686.99 1089.86C2683.22 1093.84 2677.78 1095.83 2670.67 1095.83C2666.05 1095.83 2662.14 1094.76 2658.94 1092.63C2655.74 1090.5 2653.14 1087.83 2651.15 1084.63C2649.37 1081.29 2648.06 1077.59 2647.2 1073.54C2646.35 1069.48 2645.92 1065.5 2645.92 1061.59C2645.92 1057.54 2646.35 1053.48 2647.2 1049.43C2648.06 1045.23 2649.48 1041.46 2651.47 1038.12C2653.53 1034.64 2656.16 1031.83 2659.36 1029.7C2662.56 1027.49 2666.55 1026.39 2671.31 1026.39C2684.04 1026.39 2691.36 1032.61 2693.28 1045.06ZM2841.02 1115.24V1006.87H2811.26V1063.72C2811.26 1074.74 2809.44 1082.71 2805.82 1087.62C2802.19 1092.38 2796.32 1094.76 2788.22 1094.76C2781.11 1094.76 2776.13 1092.59 2773.28 1088.26C2770.51 1083.78 2769.12 1077.06 2769.12 1068.1V1006.87H2739.36V1073.54C2739.36 1080.29 2739.93 1086.44 2741.07 1091.99C2742.28 1097.46 2744.38 1102.16 2747.36 1106.07C2750.28 1109.84 2754.26 1112.75 2759.31 1114.82C2764.43 1116.95 2770.97 1118.02 2778.94 1118.02C2785.27 1118.02 2791.42 1116.59 2797.39 1113.75C2803.44 1110.98 2808.34 1106.46 2812.11 1100.2H2812.75V1115.24H2841.02ZM2886.88 1080.04H2858.62C2858.9 1087.3 2860.5 1093.38 2863.42 1098.28C2866.48 1103.05 2870.32 1106.89 2874.94 1109.8C2879.7 1112.72 2885.07 1114.85 2891.04 1116.2C2897.09 1117.41 2903.24 1118.02 2909.5 1118.02C2915.68 1118.02 2921.73 1117.38 2927.63 1116.1C2933.6 1114.96 2938.9 1112.93 2943.53 1110.02C2948.08 1107.1 2951.77 1103.26 2954.62 1098.5C2957.53 1093.59 2958.99 1087.58 2958.99 1080.47C2958.99 1075.49 2958.03 1071.3 2956.11 1067.88C2954.12 1064.4 2951.53 1061.55 2948.33 1059.35C2945.13 1056.93 2941.43 1055.05 2937.23 1053.7C2933.18 1052.27 2928.98 1051.06 2924.64 1050.07C2920.38 1049.07 2916.25 1048.18 2912.27 1047.4C2908.22 1046.55 2904.59 1045.62 2901.39 1044.63C2898.26 1043.49 2895.74 1042.07 2893.82 1040.36C2891.83 1038.73 2890.83 1036.59 2890.83 1033.96C2890.83 1031.69 2891.4 1029.91 2892.54 1028.63C2893.68 1027.28 2894.99 1026.25 2896.48 1025.54C2898.19 1024.82 2900.04 1024.4 2902.03 1024.26C2903.95 1023.97 2905.73 1023.83 2907.36 1023.83C2912.7 1023.83 2917.32 1024.9 2921.23 1027.03C2925.14 1028.95 2927.31 1032.79 2927.74 1038.55H2956.11C2955.54 1031.86 2953.76 1026.35 2950.78 1022.02C2948 1017.54 2944.45 1013.98 2940.11 1011.35C2935.84 1008.65 2930.87 1006.73 2925.18 1005.59C2919.77 1004.52 2914.12 1003.99 2908.22 1003.99C2902.39 1003.99 2896.7 1004.52 2891.15 1005.59C2885.46 1006.58 2880.41 1008.43 2876 1011.14C2871.52 1013.62 2867.9 1017.11 2865.12 1021.59C2862.42 1026.07 2861.07 1031.79 2861.07 1038.76C2861.07 1043.53 2862.07 1047.58 2864.06 1050.92C2865.98 1054.12 2868.57 1056.86 2871.84 1059.14C2875.04 1061.27 2878.67 1063.01 2882.72 1064.36C2886.92 1065.57 2891.19 1066.67 2895.52 1067.67C2906.12 1069.94 2914.37 1072.18 2920.27 1074.39C2926.24 1076.66 2929.23 1080.01 2929.23 1084.42C2929.23 1087.12 2928.59 1089.36 2927.31 1091.14C2926.1 1092.84 2924.5 1094.26 2922.51 1095.4C2920.73 1096.33 2918.64 1097.07 2916.22 1097.64C2914.01 1098.07 2911.88 1098.28 2909.82 1098.28C2906.83 1098.28 2903.95 1097.93 2901.18 1097.22C2898.48 1096.5 2896.09 1095.44 2894.03 1094.02C2891.9 1092.59 2890.12 1090.74 2888.7 1088.47C2887.49 1086.05 2886.88 1083.24 2886.88 1080.04ZM3014.14 1006.87V974.442H2984.49V1006.87H2966.35V1026.82H2984.49V1090.82C2984.49 1096.22 2985.37 1100.59 2987.15 1103.94C2988.93 1107.28 2991.35 1109.87 2994.41 1111.72C2997.68 1113.5 3001.34 1114.67 3005.39 1115.24C3009.59 1115.95 3013.96 1116.31 3018.51 1116.31L3027.58 1116.1C3030.64 1115.95 3033.45 1115.67 3036.01 1115.24V1092.2C3034.58 1092.49 3033.09 1092.7 3031.53 1092.84C3030.03 1092.98 3028.43 1093.06 3026.73 1093.06C3021.75 1093.06 3018.41 1092.2 3016.7 1090.5C3014.99 1088.86 3014.14 1085.52 3014.14 1080.47V1026.82H3036.01V1006.87H3014.14ZM3076.54 1061.27C3076.54 1056.86 3076.97 1052.59 3077.82 1048.47C3078.6 1044.2 3079.99 1040.47 3081.98 1037.27C3084.11 1034.07 3086.85 1031.51 3090.19 1029.59C3093.53 1027.46 3097.73 1026.39 3102.78 1026.39C3107.76 1026.39 3111.92 1027.46 3115.26 1029.59C3118.81 1031.51 3121.55 1034.07 3123.47 1037.27C3125.61 1040.47 3127.06 1044.17 3127.85 1048.36C3128.7 1052.63 3129.13 1056.9 3129.13 1061.16C3129.13 1065.5 3128.7 1069.77 3127.85 1073.96C3127.06 1078.02 3125.64 1081.71 3123.58 1085.06C3121.59 1088.26 3118.81 1090.85 3115.26 1092.84C3111.92 1094.83 3107.76 1095.83 3102.78 1095.83C3097.73 1095.83 3093.53 1094.83 3090.19 1092.84C3086.78 1090.85 3084.04 1088.26 3081.98 1085.06C3079.99 1081.71 3078.57 1078.02 3077.71 1073.96C3076.93 1069.77 3076.54 1065.5 3076.54 1061.16V1061.27ZM3046.67 1061.27C3046.67 1069.87 3048.02 1077.7 3050.73 1084.74C3053.43 1091.7 3057.2 1097.68 3062.03 1102.66C3067.01 1107.63 3072.88 1111.4 3079.63 1113.96C3086.53 1116.66 3094.25 1118.02 3102.78 1118.02C3111.31 1118.02 3118.99 1116.66 3125.82 1113.96C3132.79 1111.33 3138.73 1107.56 3143.63 1102.66C3148.54 1097.68 3152.31 1091.67 3154.94 1084.63C3157.57 1077.66 3158.89 1069.84 3158.89 1061.16C3158.89 1052.49 3157.57 1044.66 3154.94 1037.7C3152.31 1030.58 3148.54 1024.58 3143.63 1019.67C3138.73 1014.69 3132.79 1010.85 3125.82 1008.15C3118.92 1005.3 3111.24 1003.88 3102.78 1003.88C3094.25 1003.88 3086.53 1005.3 3079.63 1008.15C3072.81 1010.78 3066.94 1014.62 3062.03 1019.67C3057.2 1024.58 3053.43 1030.62 3050.73 1037.8C3048.09 1044.7 3046.78 1052.52 3046.78 1061.27H3046.67ZM3178.62 1006.87V1115.24H3208.49V1052.31C3208.49 1047.05 3209.23 1042.78 3210.73 1039.51C3212.29 1036.24 3214.1 1033.75 3216.17 1032.04C3218.44 1030.26 3220.68 1029.09 3222.89 1028.52C3225.3 1027.81 3227.19 1027.46 3228.54 1027.46C3233.3 1027.46 3236.86 1028.27 3239.21 1029.91C3241.77 1031.47 3243.54 1033.61 3244.54 1036.31C3245.61 1038.94 3246.21 1041.86 3246.35 1045.06C3246.49 1048.11 3246.57 1051.24 3246.57 1054.44V1115.24H3276.43V1054.87C3276.43 1051.53 3276.61 1048.26 3276.97 1045.06C3277.53 1041.71 3278.53 1038.76 3279.95 1036.2C3281.45 1033.57 3283.47 1031.47 3286.03 1029.91C3288.66 1028.27 3292.08 1027.46 3296.27 1027.46C3300.54 1027.46 3303.85 1028.17 3306.19 1029.59C3308.68 1031.01 3310.57 1032.9 3311.85 1035.24C3313.05 1037.59 3313.8 1040.36 3314.09 1043.56C3314.37 1046.76 3314.51 1050.18 3314.51 1053.8V1115.24H3344.38V1042.71C3344.38 1035.74 3343.38 1029.8 3341.39 1024.9C3339.4 1019.92 3336.66 1015.86 3333.18 1012.74C3329.62 1009.68 3325.43 1007.44 3320.59 1006.02C3315.69 1004.59 3310.35 1003.88 3304.59 1003.88C3297.13 1003.88 3290.58 1005.73 3284.97 1009.43C3279.49 1013.06 3275.15 1017.25 3271.95 1022.02C3269.04 1015.26 3264.7 1010.57 3258.94 1007.94C3253.39 1005.3 3247.17 1003.99 3240.27 1003.99C3233.16 1003.99 3226.83 1005.52 3221.29 1008.58C3215.81 1011.63 3211.12 1015.97 3207.21 1021.59H3206.78V1006.87H3178.73H3178.62ZM2252.11 1322.82C2252.11 1327.3 2251.68 1331.63 2250.83 1335.83C2250.05 1340.03 2248.66 1343.79 2246.67 1347.14C2244.75 1350.34 2242.08 1352.9 2238.67 1354.82C2235.47 1356.81 2231.42 1357.8 2226.51 1357.8C2221.96 1357.8 2217.98 1356.81 2214.56 1354.82C2211.36 1352.75 2208.66 1350.12 2206.46 1346.92C2204.32 1343.58 2202.79 1339.81 2201.87 1335.62C2200.87 1331.35 2200.38 1327.15 2200.38 1323.03C2200.38 1318.55 2200.8 1314.28 2201.66 1310.23C2202.58 1305.96 2204 1302.27 2205.92 1299.14C2208.06 1295.94 2210.79 1293.34 2214.14 1291.35C2217.55 1289.43 2221.67 1288.47 2226.51 1288.47C2231.49 1288.47 2235.54 1289.43 2238.67 1291.35C2241.94 1293.34 2244.54 1295.94 2246.46 1299.14C2248.59 1302.19 2250.05 1305.82 2250.83 1310.02C2251.68 1314.07 2252.11 1318.34 2252.11 1322.82ZM2252.54 1363.46V1377.32H2280.8V1227.67H2251.04V1282.07H2250.62C2247.27 1276.81 2242.65 1272.86 2236.75 1270.23C2231.06 1267.39 2225.02 1265.96 2218.62 1265.96C2210.65 1265.96 2203.65 1267.56 2197.6 1270.76C2191.63 1273.89 2186.62 1278.02 2182.56 1283.14C2178.65 1288.33 2175.63 1294.37 2173.5 1301.27C2171.58 1307.95 2170.62 1314.92 2170.62 1322.18C2170.62 1329.71 2171.58 1336.97 2173.5 1343.94C2175.63 1350.98 2178.65 1357.2 2182.56 1362.6C2186.62 1367.94 2191.7 1372.2 2197.82 1375.4C2204 1378.46 2211.11 1379.99 2219.15 1379.99C2226.26 1379.99 2232.66 1378.75 2238.35 1376.26C2244.04 1373.63 2248.66 1369.36 2252.22 1363.46H2252.54ZM2333.5 1252.2V1227.67H2303.74V1252.2H2333.6H2333.5ZM2303.74 1268.95V1377.32H2333.6V1268.95H2303.74ZM2355.68 1302.34C2356.11 1295.3 2357.89 1289.47 2361.02 1284.84C2364.07 1280.22 2367.99 1276.52 2372.75 1273.75C2377.44 1270.91 2382.74 1268.95 2388.64 1267.88C2394.62 1266.6 2400.63 1265.96 2406.67 1265.96C2412.15 1265.96 2417.66 1266.39 2423.2 1267.24C2428.82 1267.95 2433.94 1269.41 2438.56 1271.62C2443.11 1273.89 2446.88 1277.06 2449.87 1281.11C2452.79 1285.02 2454.24 1290.25 2454.24 1296.79V1353.22C2454.24 1358.12 2454.53 1362.78 2455.1 1367.19C2455.67 1371.67 2456.63 1375.05 2457.98 1377.32H2427.79C2427.22 1375.62 2426.76 1373.95 2426.4 1372.31L2425.76 1366.87C2421 1371.71 2415.38 1375.12 2408.91 1377.11C2402.51 1379.03 2395.97 1379.99 2389.28 1379.99C2384.09 1379.99 2379.26 1379.39 2374.78 1378.18C2370.3 1376.9 2366.39 1374.94 2363.04 1372.31C2359.7 1369.61 2357.03 1366.23 2355.04 1362.18C2353.27 1358.12 2352.38 1353.32 2352.38 1347.78C2352.38 1341.59 2353.44 1336.54 2355.58 1332.63C2357.71 1328.58 2360.48 1325.38 2363.9 1323.03C2367.45 1320.61 2371.36 1318.83 2375.63 1317.7C2380.11 1316.49 2384.59 1315.53 2389.07 1314.82C2393.55 1314.11 2397.96 1313.54 2402.3 1313.11C2406.56 1312.75 2410.4 1312.15 2413.82 1311.3C2417.16 1310.44 2419.79 1309.23 2421.71 1307.67C2423.7 1306.03 2424.63 1303.69 2424.48 1300.63C2424.48 1297.36 2423.91 1294.83 2422.78 1293.06C2421.78 1291.07 2420.36 1289.57 2418.51 1288.58C2416.87 1287.51 2414.88 1286.8 2412.54 1286.44C2410.26 1286.09 2407.81 1285.91 2405.18 1285.91C2399.35 1285.91 2394.72 1287.15 2391.31 1289.64C2387.97 1292.2 2386.01 1296.4 2385.44 1302.23H2355.68V1302.34ZM2424.48 1324.31C2423.2 1325.38 2421.6 1326.27 2419.68 1326.98C2417.83 1327.55 2415.81 1328.04 2413.6 1328.47C2411.47 1328.9 2409.23 1329.25 2406.88 1329.54C2404.47 1329.82 2402.08 1330.18 2399.74 1330.6C2397.53 1330.96 2395.29 1331.49 2393.02 1332.2C2390.88 1332.91 2389 1333.91 2387.36 1335.19C2385.8 1336.26 2384.55 1337.71 2383.63 1339.56C2382.63 1341.41 2382.14 1343.72 2382.14 1346.5C2382.14 1349.13 2382.63 1351.37 2383.63 1353.22C2384.55 1354.99 2385.87 1356.45 2387.58 1357.59C2389.28 1358.59 2391.24 1359.3 2393.44 1359.72C2395.72 1360.15 2398.03 1360.36 2400.38 1360.36C2406.21 1360.36 2410.76 1359.37 2414.03 1357.38C2417.23 1355.46 2419.58 1353.15 2421.07 1350.44C2422.63 1347.6 2423.56 1344.83 2423.84 1342.12C2424.27 1339.28 2424.48 1337.04 2424.48 1335.4V1324.31ZM2477.82 1227.67V1377.32H2507.58V1227.67H2477.71H2477.82ZM2557.39 1323.24C2557.39 1318.91 2557.82 1314.64 2558.67 1310.44C2559.52 1306.18 2560.95 1302.48 2562.94 1299.35C2565 1296.15 2567.7 1293.55 2571.04 1291.56C2574.39 1289.43 2578.58 1288.36 2583.63 1288.36C2588.61 1288.36 2592.8 1289.43 2596.22 1291.56C2599.7 1293.55 2602.4 1296.15 2604.32 1299.35C2606.46 1302.55 2607.92 1306.25 2608.7 1310.44C2609.55 1314.64 2609.98 1318.91 2609.98 1323.24C2609.98 1327.51 2609.55 1331.78 2608.7 1336.04C2607.92 1340.1 2606.49 1343.79 2604.43 1347.14C2602.44 1350.34 2599.7 1352.9 2596.22 1354.82C2592.8 1356.81 2588.61 1357.8 2583.63 1357.8C2578.58 1357.8 2574.39 1356.81 2571.04 1354.82C2567.7 1352.9 2564.96 1350.34 2562.83 1347.14C2560.91 1343.79 2559.49 1340.1 2558.56 1336.04C2557.78 1331.78 2557.39 1327.51 2557.39 1323.24ZM2527.52 1323.24C2527.52 1331.92 2528.87 1339.74 2531.58 1346.71C2534.28 1353.68 2538.05 1359.69 2542.88 1364.74C2547.86 1369.64 2553.73 1373.41 2560.48 1376.04C2567.38 1378.67 2575.1 1379.99 2583.63 1379.99C2592.16 1379.99 2599.84 1378.67 2606.67 1376.04C2613.64 1373.41 2619.58 1369.64 2624.48 1364.74C2629.39 1359.76 2633.16 1353.71 2635.79 1346.6C2638.42 1339.71 2639.74 1331.88 2639.74 1323.14C2639.74 1314.53 2638.42 1306.71 2635.79 1299.67C2633.16 1292.56 2629.39 1286.59 2624.48 1281.75C2619.58 1276.7 2613.64 1272.86 2606.67 1270.23C2599.84 1267.39 2592.16 1265.96 2583.63 1265.96C2575.1 1265.96 2567.38 1267.39 2560.48 1270.23C2553.66 1272.86 2547.79 1276.7 2542.88 1281.75C2538.05 1286.59 2534.28 1292.59 2531.58 1299.78C2528.95 1306.75 2527.63 1314.57 2527.63 1323.24H2527.52ZM2709.28 1351.72C2704.66 1351.72 2700.79 1350.73 2697.66 1348.74C2694.6 1346.82 2692.11 1344.33 2690.19 1341.27C2688.34 1338.21 2686.99 1334.76 2686.14 1330.92C2685.43 1327.01 2685.07 1323.1 2685.07 1319.19C2685.07 1315.14 2685.5 1311.3 2686.35 1307.67C2687.35 1303.9 2688.84 1300.63 2690.83 1297.86C2692.96 1294.94 2695.45 1292.63 2698.3 1290.92C2701.43 1289.29 2705.09 1288.47 2709.28 1288.47C2714.12 1288.47 2718.17 1289.36 2721.44 1291.14C2724.64 1292.99 2727.2 1295.44 2729.12 1298.5C2731.12 1301.55 2732.54 1305.11 2733.39 1309.16C2734.17 1313.07 2734.56 1317.27 2734.56 1321.75C2734.56 1325.66 2734.03 1329.43 2732.96 1333.06C2731.97 1336.61 2730.4 1339.78 2728.27 1342.55C2726.14 1345.32 2723.51 1347.53 2720.38 1349.16C2717.11 1350.87 2713.41 1351.72 2709.28 1351.72ZM2762.94 1370.39V1268.95H2734.56V1283.35H2734.14C2730.58 1277.09 2726.07 1272.65 2720.59 1270.02C2715.26 1267.31 2709.04 1265.96 2701.92 1265.96C2694.39 1265.96 2687.67 1267.46 2681.76 1270.44C2676.08 1273.29 2671.24 1277.27 2667.26 1282.39C2663.35 1287.23 2660.36 1292.91 2658.3 1299.46C2656.31 1305.93 2655.31 1312.68 2655.31 1319.72C2655.31 1327.05 2656.16 1334.09 2657.87 1340.84C2659.72 1347.39 2662.53 1353.18 2666.3 1358.23C2670.07 1363.14 2674.87 1367.05 2680.7 1369.96C2686.6 1372.81 2693.6 1374.23 2701.71 1374.23C2708.25 1374.23 2714.48 1372.88 2720.38 1370.18C2726.35 1367.33 2730.97 1363.07 2734.24 1357.38H2734.56V1371.67C2734.71 1379.35 2732.82 1385.71 2728.91 1390.76C2725.14 1395.74 2719.1 1398.23 2710.78 1398.23C2705.44 1398.23 2700.75 1397.13 2696.7 1394.92C2692.64 1392.79 2689.91 1388.95 2688.48 1383.4H2658.94C2659.36 1389.52 2661.04 1394.75 2663.95 1399.08C2667.01 1403.56 2670.78 1407.19 2675.26 1409.96C2679.88 1412.81 2684.93 1414.83 2690.4 1416.04C2695.95 1417.47 2701.39 1418.18 2706.72 1418.18C2719.17 1418.18 2729.09 1416.51 2736.48 1413.16C2743.88 1409.82 2749.57 1405.7 2753.55 1400.79C2757.39 1396.03 2759.88 1390.83 2761.02 1385.22C2762.3 1379.67 2762.94 1374.69 2762.94 1370.28V1370.39ZM2809.87 1342.12H2781.6C2781.89 1349.38 2783.49 1355.42 2786.4 1360.26C2789.53 1365.02 2793.37 1368.9 2797.92 1371.88C2802.69 1374.73 2808.09 1376.83 2814.14 1378.18C2820.11 1379.39 2826.26 1379.99 2832.59 1379.99C2838.71 1379.99 2844.72 1379.39 2850.62 1378.18C2856.59 1377.04 2861.92 1375.01 2866.62 1372.1C2871.17 1369.11 2874.83 1365.27 2877.6 1360.58C2880.52 1355.6 2881.98 1349.55 2881.98 1342.44C2881.98 1337.47 2881.02 1333.31 2879.1 1329.96C2877.11 1326.41 2874.51 1323.56 2871.31 1321.43C2868.11 1319.01 2864.41 1317.09 2860.22 1315.67C2856.16 1314.25 2851.97 1313.07 2847.63 1312.15L2835.26 1309.38C2831.2 1308.52 2827.58 1307.6 2824.38 1306.6C2821.32 1305.54 2818.83 1304.15 2816.91 1302.44C2814.92 1300.81 2813.92 1298.67 2813.92 1296.04C2813.92 1293.77 2814.49 1291.99 2815.63 1290.71C2816.7 1289.29 2818.01 1288.22 2819.58 1287.51C2821.21 1286.8 2822.99 1286.41 2824.91 1286.34C2826.9 1286.05 2828.75 1285.91 2830.46 1285.91C2835.79 1285.91 2840.41 1286.98 2844.32 1289.11C2848.24 1291.03 2850.37 1294.87 2850.72 1300.63H2879.1C2878.53 1293.87 2876.75 1288.33 2873.76 1283.99C2871.06 1279.51 2867.51 1275.95 2863.1 1273.32C2858.83 1270.69 2853.89 1268.81 2848.27 1267.67C2842.8 1266.53 2837.11 1265.96 2831.2 1265.96C2825.37 1265.96 2819.68 1266.53 2814.14 1267.67C2808.52 1268.67 2803.47 1270.48 2798.99 1273.11C2794.51 1275.6 2790.88 1279.08 2788.11 1283.56C2785.48 1288.04 2784.16 1293.77 2784.16 1300.74C2784.16 1305.5 2785.12 1309.55 2787.04 1312.9C2789.04 1316.17 2791.63 1318.91 2794.83 1321.11C2798.03 1323.24 2801.66 1325.02 2805.71 1326.44C2809.98 1327.65 2814.24 1328.72 2818.51 1329.64C2829.18 1331.92 2837.43 1334.19 2843.26 1336.47C2849.23 1338.67 2852.22 1342.02 2852.22 1346.5C2852.22 1349.13 2851.61 1351.37 2850.4 1353.22C2849.12 1354.85 2847.52 1356.27 2845.6 1357.48C2843.76 1358.41 2841.62 1359.12 2839.2 1359.62C2837.07 1360.11 2834.94 1360.36 2832.8 1360.36C2829.82 1360.36 2826.97 1360.01 2824.27 1359.3C2821.57 1358.59 2819.15 1357.52 2817.02 1356.1C2814.88 1354.6 2813.14 1352.72 2811.79 1350.44C2810.51 1348.1 2809.87 1345.32 2809.87 1342.12Z" fill="black"/>
<path d="M1012.85 1681.75H1354.19V1809.75H1012.85V1681.75ZM1012.85 1891.14H1354.19V2019.14H1012.85V1891.14Z" fill="black"/>
<path d="M1057.76 1765.59V1722.39H1068.43C1072.2 1722.39 1075.32 1722.92 1077.81 1723.99C1080.37 1725.06 1082.44 1726.59 1084 1728.58C1085.49 1730.57 1086.56 1732.95 1087.2 1735.72C1087.91 1738.5 1088.27 1741.63 1088.27 1745.11C1088.27 1748.88 1087.8 1752.08 1086.88 1754.71C1085.88 1757.27 1084.6 1759.4 1083.04 1761.11C1081.4 1762.68 1079.56 1763.81 1077.49 1764.52C1075.5 1765.24 1073.4 1765.59 1071.2 1765.59H1057.76ZM1042.72 1709.7V1778.28H1072.27C1077.53 1778.28 1082.08 1777.43 1085.92 1775.72C1089.83 1773.88 1093.03 1771.42 1095.52 1768.36C1098.22 1765.31 1100.21 1761.68 1101.49 1757.48C1102.77 1753.22 1103.41 1748.6 1103.41 1743.62C1103.41 1737.93 1102.6 1732.95 1100.96 1728.68C1099.4 1724.49 1097.23 1721 1094.45 1718.23C1091.68 1715.39 1088.37 1713.25 1084.53 1711.83C1080.76 1710.41 1076.68 1709.7 1072.27 1709.7H1042.72ZM1145.55 1748.2H1123.36C1123.36 1747.21 1123.54 1746.11 1123.89 1744.9C1124.32 1743.69 1124.92 1742.52 1125.71 1741.38C1126.63 1740.31 1127.8 1739.42 1129.23 1738.71C1130.65 1738 1132.46 1737.64 1134.67 1737.64C1138.01 1737.64 1140.5 1738.53 1142.13 1740.31C1143.77 1742.09 1144.91 1744.68 1145.55 1748.1V1748.2ZM1123.36 1756.74H1159.2C1159.41 1752.9 1159.06 1749.24 1158.13 1745.75C1157.28 1742.2 1155.86 1739.07 1153.87 1736.36C1151.8 1733.52 1149.21 1731.32 1146.08 1729.75C1142.95 1728.12 1139.29 1727.3 1135.09 1727.3C1131.32 1727.3 1127.88 1727.97 1124.75 1729.32C1121.62 1730.68 1118.95 1732.52 1116.75 1734.87C1114.47 1737.22 1112.73 1739.99 1111.52 1743.19C1110.31 1746.39 1109.71 1749.84 1109.71 1753.54C1109.71 1757.38 1110.28 1760.9 1111.41 1764.1C1112.62 1767.3 1114.33 1770.04 1116.53 1772.31C1118.67 1774.66 1121.33 1776.44 1124.53 1777.64C1127.66 1778.92 1131.18 1779.56 1135.09 1779.56C1140.71 1779.56 1145.51 1778.28 1149.49 1775.72C1153.48 1773.16 1156.43 1768.9 1158.35 1762.92H1146.29C1145.87 1764.49 1144.66 1765.95 1142.67 1767.3C1140.68 1768.72 1138.29 1769.43 1135.52 1769.43C1131.68 1769.43 1128.73 1768.4 1126.67 1766.34C1124.68 1764.35 1123.57 1761.15 1123.36 1756.74ZM1167.63 1709.8V1778.28H1181.28V1709.7H1167.63V1709.8ZM1225.44 1748.2H1203.15C1203.15 1747.21 1203.32 1746.11 1203.68 1744.9C1204.11 1743.69 1204.71 1742.52 1205.49 1741.38C1206.42 1740.31 1207.59 1739.42 1209.01 1738.71C1210.44 1738 1212.25 1737.64 1214.45 1737.64C1217.8 1737.64 1220.28 1738.53 1221.92 1740.31C1223.56 1742.09 1224.69 1744.68 1225.33 1748.1L1225.44 1748.2ZM1203.25 1756.74H1239.09C1239.31 1752.9 1238.95 1749.24 1238.03 1745.75C1237.17 1742.2 1235.75 1739.07 1233.76 1736.36C1231.7 1733.52 1229.1 1731.32 1225.97 1729.75C1222.84 1728.12 1219.18 1727.3 1214.99 1727.3C1211.22 1727.3 1207.73 1727.97 1204.53 1729.32C1201.48 1730.68 1198.84 1732.52 1196.64 1734.87C1194.36 1737.22 1192.62 1739.99 1191.41 1743.19C1190.2 1746.39 1189.6 1749.84 1189.6 1753.54C1189.6 1757.38 1190.17 1760.9 1191.31 1764.1C1192.52 1767.3 1194.22 1770.04 1196.43 1772.31C1198.56 1774.66 1201.23 1776.44 1204.43 1777.64C1207.56 1778.92 1211.08 1779.56 1214.99 1779.56C1220.6 1779.56 1225.4 1778.28 1229.39 1775.72C1233.3 1773.16 1236.21 1768.9 1238.13 1762.92H1226.19C1225.76 1764.49 1224.55 1765.95 1222.56 1767.3C1220.57 1768.72 1218.19 1769.43 1215.41 1769.43C1211.57 1769.43 1208.62 1768.4 1206.56 1766.34C1204.57 1764.35 1203.47 1761.15 1203.25 1756.74ZM1264.37 1728.68V1713.75H1250.83V1728.68H1242.51V1737.75H1250.83V1767.08C1250.83 1769.57 1251.22 1771.56 1252 1773.06C1252.85 1774.62 1253.99 1775.83 1255.41 1776.68C1256.84 1777.47 1258.51 1778 1260.43 1778.28C1262.35 1778.57 1264.34 1778.71 1266.4 1778.71H1270.56C1271.98 1778.64 1273.26 1778.5 1274.4 1778.28V1767.62L1272.37 1768.04H1270.24C1267.89 1768.04 1266.33 1767.69 1265.55 1766.98C1264.84 1766.2 1264.48 1764.67 1264.48 1762.39V1737.86H1274.4V1728.68H1264.37ZM1314.29 1748.2H1292.11C1292.11 1747.21 1292.28 1746.11 1292.64 1744.9C1293.07 1743.69 1293.71 1742.52 1294.56 1741.38C1295.41 1740.31 1296.55 1739.42 1297.97 1738.71C1299.4 1738 1301.21 1737.64 1303.41 1737.64C1306.76 1737.64 1309.24 1738.53 1310.88 1740.31C1312.52 1742.09 1313.65 1744.68 1314.29 1748.1V1748.2ZM1292.11 1756.74H1327.95C1328.16 1752.9 1327.8 1749.24 1326.88 1745.75C1326.03 1742.2 1324.6 1739.07 1322.61 1736.36C1320.55 1733.52 1317.96 1731.32 1314.83 1729.75C1311.7 1728.12 1308.04 1727.3 1303.84 1727.3C1300.07 1727.3 1296.62 1727.97 1293.49 1729.32C1290.36 1730.68 1287.7 1732.52 1285.49 1734.87C1283.22 1737.22 1281.48 1739.99 1280.27 1743.19C1279.06 1746.39 1278.45 1749.84 1278.45 1753.54C1278.45 1757.38 1279.02 1760.9 1280.16 1764.1C1281.44 1767.3 1283.15 1770.04 1285.28 1772.31C1287.41 1774.66 1290.08 1776.44 1293.28 1777.64C1296.41 1778.92 1299.93 1779.56 1303.84 1779.56C1309.46 1779.56 1314.26 1778.28 1318.24 1775.72C1322.22 1773.16 1325.17 1768.9 1327.09 1762.92H1315.04C1314.61 1764.49 1313.4 1765.95 1311.41 1767.3C1309.42 1768.72 1307.04 1769.43 1304.27 1769.43C1300.43 1769.43 1297.51 1768.4 1295.52 1766.34C1293.39 1764.35 1292.25 1761.15 1292.11 1756.74Z" fill="white"/>
<path d="M1065.87 1962.39H1051.25C1051.25 1966.66 1052.04 1970.32 1053.6 1973.38C1055.24 1976.44 1057.37 1978.93 1060 1980.85C1062.77 1982.91 1065.94 1984.37 1069.49 1985.22C1073.05 1986.21 1076.71 1986.71 1080.48 1986.71C1085.17 1986.71 1089.26 1986.14 1092.75 1985.01C1096.3 1983.94 1099.29 1982.45 1101.71 1980.53C1104.12 1978.53 1105.94 1976.19 1107.15 1973.48C1108.36 1970.85 1108.96 1967.97 1108.96 1964.84C1108.96 1961 1108.14 1957.84 1106.51 1955.35C1104.87 1952.86 1102.95 1950.91 1100.75 1949.48C1098.47 1947.99 1096.2 1946.92 1093.92 1946.28C1091.72 1945.57 1089.94 1945.08 1088.59 1944.79L1078.13 1942.13C1075.57 1941.41 1073.51 1940.7 1071.95 1939.99C1070.52 1939.28 1069.53 1938.53 1068.96 1937.75C1068.46 1936.9 1068.21 1935.83 1068.21 1934.55C1068.21 1932.99 1068.53 1931.74 1069.17 1930.82C1069.81 1929.82 1070.6 1929 1071.52 1928.36C1072.59 1927.72 1073.72 1927.3 1074.93 1927.08C1076.14 1926.8 1077.35 1926.66 1078.56 1926.66C1080.41 1926.66 1082.12 1926.84 1083.68 1927.19C1085.24 1927.48 1086.67 1928.01 1087.95 1928.79C1089.08 1929.5 1090.01 1930.57 1090.72 1931.99C1091.5 1933.34 1091.96 1935.01 1092.11 1937H1106.72C1106.72 1933.09 1105.94 1929.75 1104.37 1926.98C1102.95 1924.13 1100.92 1921.82 1098.29 1920.04C1095.73 1918.27 1092.82 1916.99 1089.55 1916.2C1086.28 1915.35 1082.83 1914.92 1079.2 1914.92C1076.14 1914.92 1073.08 1915.35 1070.03 1916.2C1066.97 1917.06 1064.23 1918.34 1061.81 1920.04C1059.32 1921.75 1057.33 1923.92 1055.84 1926.55C1054.35 1929.11 1053.6 1932.17 1053.6 1935.72C1053.6 1938.85 1054.17 1941.52 1055.31 1943.73C1056.52 1945.93 1058.08 1947.78 1060 1949.27C1061.92 1950.69 1064.12 1951.9 1066.61 1952.9C1069.03 1953.82 1071.52 1954.6 1074.08 1955.24L1081.44 1957.17C1083.86 1957.73 1086.03 1958.37 1087.95 1959.08C1089.87 1959.87 1091.4 1960.83 1092.53 1961.97C1093.81 1963.17 1094.45 1964.7 1094.45 1966.55C1094.45 1968.26 1093.99 1969.68 1093.07 1970.82C1092.14 1971.96 1091 1972.84 1089.65 1973.48C1088.37 1974.12 1086.95 1974.55 1085.39 1974.77C1083.82 1974.98 1082.4 1975.08 1081.12 1975.08C1079.13 1975.08 1077.17 1974.87 1075.25 1974.45C1073.4 1973.88 1071.8 1973.13 1070.45 1972.21C1069.03 1971.14 1067.93 1969.82 1067.15 1968.26C1066.29 1966.62 1065.87 1964.67 1065.87 1962.39ZM1116.43 1916.63V1985.11H1130.08V1959.08C1130.08 1954.11 1130.9 1950.52 1132.53 1948.31C1134.24 1946.04 1136.94 1944.9 1140.64 1944.9C1143.91 1944.9 1146.19 1945.96 1147.47 1948.1C1148.75 1950.02 1149.39 1953.04 1149.39 1957.17V1985.11H1163.04V1954.6C1163.04 1951.55 1162.72 1948.77 1162.08 1946.28C1161.58 1943.72 1160.66 1941.59 1159.31 1939.88C1157.96 1938.04 1156.11 1936.61 1153.76 1935.62C1151.48 1934.62 1148.5 1934.12 1144.8 1934.12C1142.24 1934.12 1139.64 1934.84 1137.01 1936.26C1134.31 1937.47 1132.11 1939.53 1130.4 1942.44H1130.08V1916.63H1116.43ZM1172.85 1950.87C1173.07 1947.6 1173.88 1944.9 1175.31 1942.76C1176.73 1940.63 1178.51 1938.96 1180.64 1937.75C1182.77 1936.47 1185.19 1935.58 1187.89 1935.08C1190.67 1934.44 1193.44 1934.12 1196.21 1934.12C1198.7 1934.12 1201.19 1934.34 1203.68 1934.76C1206.31 1935.05 1208.69 1935.72 1210.83 1936.79C1212.96 1937.79 1214.67 1939.21 1215.95 1941.06C1217.3 1942.84 1217.97 1945.25 1217.97 1948.31V1974.13C1217.97 1976.33 1218.12 1978.46 1218.4 1980.53C1218.61 1982.59 1219.04 1984.12 1219.68 1985.11H1205.81L1205.17 1982.87L1204.96 1980.31C1202.76 1982.59 1200.2 1984.15 1197.28 1985.01C1194.29 1985.93 1191.27 1986.39 1188.21 1986.39C1185.87 1986.39 1183.66 1986.11 1181.6 1985.54C1179.54 1984.97 1177.76 1984.08 1176.27 1982.87C1174.7 1981.66 1173.46 1980.13 1172.53 1978.28C1171.75 1976.36 1171.36 1974.13 1171.36 1971.57C1171.36 1968.72 1171.82 1966.45 1172.75 1964.74C1173.81 1962.89 1175.09 1961.4 1176.59 1960.26C1178.22 1959.19 1180 1958.41 1181.92 1957.91C1184.05 1957.34 1186.12 1956.88 1188.11 1956.53L1194.19 1955.78C1196.18 1955.56 1197.96 1955.28 1199.52 1954.93C1200.94 1954.5 1202.15 1953.97 1203.15 1953.33C1204 1952.54 1204.39 1951.44 1204.32 1950.02C1204.32 1948.6 1204.07 1947.46 1203.57 1946.6C1203.15 1945.68 1202.51 1944.97 1201.65 1944.47C1200.94 1943.97 1200.02 1943.69 1198.88 1943.62C1197.88 1943.4 1196.75 1943.3 1195.47 1943.3C1192.84 1943.3 1190.74 1943.87 1189.17 1945C1187.61 1946.14 1186.72 1948.06 1186.51 1950.76H1172.85V1950.87ZM1204.32 1960.9C1203.75 1961.4 1203.04 1961.79 1202.19 1962.07L1199.31 1962.82L1196.32 1963.24L1193.01 1963.78C1192.02 1963.92 1190.99 1964.17 1189.92 1964.53C1189 1964.81 1188.14 1965.24 1187.36 1965.81C1186.65 1966.37 1186.08 1967.09 1185.65 1967.94C1185.16 1968.72 1184.91 1969.79 1184.91 1971.14C1184.91 1972.28 1185.16 1973.27 1185.65 1974.13C1186.08 1974.98 1186.68 1975.65 1187.47 1976.15C1188.18 1976.58 1189.07 1976.9 1190.13 1977.11C1191.13 1977.25 1192.2 1977.33 1193.33 1977.33C1196.04 1977.33 1198.1 1976.9 1199.52 1976.05C1200.94 1975.12 1202.01 1974.05 1202.72 1972.85C1203.43 1971.57 1203.89 1970.29 1204.11 1969.01L1204.32 1965.91V1960.9ZM1228.32 1935.51V1985.11H1241.97V1962.71C1241.97 1960.58 1242.22 1958.52 1242.72 1956.53C1243.15 1954.61 1243.86 1952.93 1244.85 1951.51C1245.99 1950.09 1247.41 1948.95 1249.12 1948.1C1250.83 1947.24 1252.96 1946.82 1255.52 1946.82L1258.08 1947.03L1260.32 1947.35V1934.66C1259.25 1934.3 1258.26 1934.12 1257.33 1934.12C1255.63 1934.12 1253.96 1934.41 1252.32 1934.98C1250.76 1935.48 1249.26 1936.19 1247.84 1937.11C1246.42 1938.04 1245.17 1939.17 1244.11 1940.52C1243.04 1941.81 1242.19 1943.23 1241.55 1944.79H1241.33V1935.51H1228.32ZM1297.65 1955.03H1275.47C1275.54 1954.04 1275.75 1952.97 1276.11 1951.83C1276.46 1950.55 1277.07 1949.38 1277.92 1948.31C1278.77 1947.17 1279.91 1946.28 1281.33 1945.64C1282.83 1944.86 1284.68 1944.47 1286.88 1944.47C1290.15 1944.47 1292.6 1945.36 1294.24 1947.14C1295.88 1948.92 1297.01 1951.55 1297.65 1955.03ZM1275.47 1963.57H1311.31C1311.59 1959.8 1311.27 1956.13 1310.35 1952.58C1309.42 1949.02 1307.96 1945.89 1305.97 1943.19C1303.98 1940.42 1301.42 1938.25 1298.29 1936.68C1295.16 1934.98 1291.47 1934.12 1287.2 1934.12C1283.43 1934.12 1279.98 1934.84 1276.85 1936.26C1273.8 1937.54 1271.13 1939.39 1268.85 1941.8C1266.65 1944.08 1264.94 1946.82 1263.73 1950.02C1262.52 1953.22 1261.92 1956.67 1261.92 1960.37C1261.92 1964.21 1262.49 1967.76 1263.63 1971.03C1264.84 1974.16 1266.51 1976.9 1268.64 1979.25C1270.84 1981.52 1273.51 1983.3 1276.64 1984.58C1279.77 1985.79 1283.32 1986.39 1287.31 1986.39C1292.85 1986.39 1297.62 1985.11 1301.6 1982.55C1305.58 1979.99 1308.53 1975.72 1310.45 1969.75H1298.4C1297.97 1971.32 1296.76 1972.81 1294.77 1974.23C1292.78 1975.58 1290.44 1976.26 1287.73 1976.26C1283.89 1976.26 1280.94 1975.26 1278.88 1973.27C1276.82 1971.28 1275.68 1968.08 1275.47 1963.67V1963.57Z" fill="white"/>
<path d="M1012.85 1466.28H1354.19V1594.28H1012.85V1466.28Z" fill="black"/>
<path d="M1094.35 1494.34V1562.82H1146.4V1550.12H1109.49V1533.38H1142.67V1521.64H1109.49V1506.92H1145.76V1494.34H1094.35ZM1190.35 1537.86C1190.35 1539.92 1190.13 1541.91 1189.71 1543.83C1189.28 1545.75 1188.64 1547.46 1187.79 1548.95C1186.86 1550.44 1185.65 1551.65 1184.16 1552.58C1182.67 1553.43 1180.78 1553.86 1178.51 1553.86C1176.37 1553.86 1174.6 1553.43 1173.17 1552.58C1171.61 1551.58 1170.33 1550.37 1169.33 1548.95C1168.41 1547.39 1167.7 1545.61 1167.2 1543.62C1166.77 1541.77 1166.56 1539.88 1166.56 1537.96C1166.56 1535.9 1166.74 1533.95 1167.09 1532.1C1167.59 1530.18 1168.3 1528.47 1169.23 1526.98C1170.15 1525.55 1171.36 1524.38 1172.85 1523.46C1174.42 1522.53 1176.3 1522.07 1178.51 1522.07C1180.78 1522.07 1182.67 1522.53 1184.16 1523.46C1185.58 1524.38 1186.76 1525.55 1187.68 1526.98C1188.6 1528.4 1189.28 1530.07 1189.71 1531.99C1190.06 1533.84 1190.24 1535.8 1190.24 1537.86H1190.35ZM1190.45 1556.52V1562.82H1203.47V1494.23H1189.81V1519.19H1189.6C1188.04 1516.77 1185.9 1514.99 1183.2 1513.86C1180.64 1512.51 1177.87 1511.83 1174.88 1511.83C1171.25 1511.83 1168.05 1512.54 1165.28 1513.96C1162.58 1515.39 1160.27 1517.31 1158.35 1519.72C1156.57 1522.07 1155.22 1524.81 1154.29 1527.94C1153.37 1531.07 1152.91 1534.27 1152.91 1537.54C1152.91 1541.02 1153.37 1544.36 1154.29 1547.56C1155.22 1550.76 1156.57 1553.61 1158.35 1556.1C1160.27 1558.52 1162.61 1560.47 1165.39 1561.96C1168.23 1563.39 1171.5 1564.1 1175.2 1564.1C1178.47 1564.1 1181.39 1563.53 1183.95 1562.39C1186.58 1561.11 1188.71 1559.16 1190.35 1556.52H1190.45ZM1227.57 1505.54V1494.23H1213.81V1505.54H1227.47H1227.57ZM1213.92 1513.22V1562.82H1227.57V1513.22H1213.81H1213.92ZM1255.52 1513.22V1498.28H1241.97V1513.22H1233.65V1522.28H1241.97V1551.62C1241.97 1554.11 1242.36 1556.1 1243.15 1557.59C1244 1559.16 1245.14 1560.36 1246.56 1561.22C1247.98 1562 1249.65 1562.53 1251.57 1562.82C1253.49 1563.17 1255.48 1563.35 1257.55 1563.35L1261.71 1563.24C1263.13 1563.17 1264.41 1563.03 1265.55 1562.82V1552.26L1263.52 1552.58H1261.39C1259.04 1552.58 1257.48 1552.22 1256.69 1551.51C1255.98 1550.73 1255.63 1549.2 1255.63 1546.92V1522.39H1265.55V1513.22H1255.52Z" fill="white"/>
<path d="M1010.29 481.108H1351.63M1010.29 523.774H1308.96M1010.29 566.441H1351.63M1010.29 609.108H1266.29M1010.29 651.775H1308.96M1010.29 694.441H1180.96M1010.29 779.775H1351.63M1010.29 822.442H1351.63M1010.29 865.109H1180.96M1010.29 907.775H1266.29M1010.29 950.442H1223.63M1010.29 993.109H1308.96M1010.29 1035.78H1223.63M1010.29 1121.11H1351.63M1010.29 1163.78H1266.29M1010.29 1206.44H1308.96M1010.29 1249.11H1266.29M1010.29 1291.78H1351.63M1010.29 1334.44H1223.63M1010.29 1377.11H1180.96M3698.3 395.774H3783.63V2102.45H3698.3M3783.63 1249.11H4039.63M1180.96 395.774V267.774M839.626 395.774H754.292V2102.45H839.626M754.292 1249.11H630.985" stroke="black" stroke-width="5.33335"/>
<path d="M160.051 1319.19C150.806 1319.19 142.7 1317.38 135.731 1313.75C128.691 1310.05 123.251 1304.93 119.411 1298.39C115.642 1291.71 113.757 1284.06 113.757 1275.46V1268.52C113.757 1267.74 113.971 1267.1 114.397 1266.6C115.109 1265.96 115.82 1265.64 116.531 1265.64H144.051C144.833 1265.64 145.473 1266 145.971 1266.71C146.682 1267.14 147.038 1267.74 147.038 1268.52V1273.86C147.038 1278.76 148.282 1282.71 150.771 1285.7C153.331 1288.75 156.531 1290.28 160.371 1290.28C164.14 1290.28 167.34 1288.86 169.971 1286.02C172.46 1283.17 173.704 1279.4 173.704 1274.71C173.704 1269.95 172.104 1265.89 168.904 1262.55C165.704 1258.99 159.482 1253.91 150.238 1247.3C142.273 1241.61 135.837 1236.49 130.931 1231.94C125.953 1227.53 121.722 1222.05 118.237 1215.51C114.753 1208.97 113.011 1201.39 113.011 1192.79C113.011 1179.28 117.242 1168.43 125.704 1160.26C134.095 1152.15 145.224 1148.1 159.091 1148.1C173.171 1148.1 184.406 1152.33 192.798 1160.79C201.473 1169.25 205.811 1180.31 205.811 1193.96V1199.72C205.811 1200.51 205.491 1201.22 204.851 1201.86C204.424 1202.35 203.784 1202.6 202.931 1202.6H175.411C174.629 1202.6 173.918 1202.35 173.278 1201.86C172.78 1201.22 172.531 1200.51 172.531 1199.72V1193.32C172.531 1188.35 171.251 1184.43 168.691 1181.59C166.273 1178.53 163.073 1177 159.091 1177C155.322 1177 152.229 1178.43 149.811 1181.27C147.393 1184.04 146.184 1187.88 146.184 1192.79C146.184 1197.55 147.713 1201.79 150.771 1205.48C153.829 1209.11 159.802 1214.19 168.691 1220.74C178.575 1228.06 185.971 1234.03 190.878 1238.66C195.998 1243.14 199.909 1248.15 202.611 1253.7C205.455 1259.1 206.878 1265.64 206.878 1273.32C206.878 1287.33 202.611 1298.5 194.078 1306.82C185.402 1315.07 174.06 1319.19 160.051 1319.19ZM277.491 1215.3C277.491 1216.01 277.171 1216.72 276.531 1217.43C276.033 1217.86 275.393 1218.07 274.611 1218.07H261.278C260.496 1218.07 260.104 1218.5 260.104 1219.35V1276.2C260.104 1280.83 260.958 1284.03 262.664 1285.8C264.442 1287.51 267.073 1288.29 270.558 1288.15H272.265C273.047 1288.15 273.687 1288.47 274.185 1289.11C274.825 1289.61 275.145 1290.25 275.145 1291.03V1314.5C275.145 1315.21 274.789 1315.92 274.078 1316.63C273.651 1317.06 273.047 1317.27 272.265 1317.27H262.664C251.073 1317.27 242.327 1315.35 236.424 1311.51C230.522 1307.53 227.571 1300.06 227.571 1289.11V1219.35C227.571 1218.5 227.18 1218.07 226.398 1218.07H218.504C217.722 1218.07 217.011 1217.86 216.371 1217.43C215.873 1216.72 215.624 1216.01 215.624 1215.3V1197.38C215.624 1196.52 215.873 1195.88 216.371 1195.46C217.011 1194.75 217.722 1194.39 218.504 1194.39H226.398C227.109 1194.39 227.464 1194.03 227.464 1193.32V1166.66C227.464 1165.95 227.749 1165.34 228.318 1164.84C228.958 1164.13 229.669 1163.78 230.451 1163.78H257.118C257.971 1163.78 258.647 1164.13 259.144 1164.84C259.784 1165.34 260.104 1165.98 260.104 1166.76V1193.22C260.104 1194.07 260.46 1194.5 261.171 1194.5H274.611C275.393 1194.5 276.033 1194.82 276.531 1195.46C277.242 1195.88 277.598 1196.52 277.598 1197.38V1215.3H277.491ZM335.945 1192.47C349.527 1192.47 360.549 1196.17 369.011 1203.56C377.474 1210.89 381.705 1220.49 381.705 1232.36V1314.5C381.705 1315.21 381.349 1315.92 380.638 1316.63C380.211 1317.06 379.607 1317.27 378.825 1317.27H350.878C350.096 1317.27 349.385 1317.02 348.745 1316.52C348.247 1315.88 347.998 1315.17 347.998 1314.39V1309.16C347.998 1308.67 347.82 1308.35 347.465 1308.2C347.18 1308.06 346.86 1308.24 346.505 1308.74C341.314 1315.42 333.207 1318.91 322.185 1319.19C312.94 1319.19 304.905 1316.63 298.078 1311.51C291.393 1306.46 288.051 1296.75 288.051 1282.39C288.051 1267.6 292.105 1257.39 300.211 1251.78C308.46 1246.23 320.336 1243.46 335.838 1243.46H346.825C347.536 1243.46 347.891 1243.07 347.891 1242.28V1236.31C347.891 1232.04 346.718 1228.52 344.371 1225.75C342.167 1222.91 339.322 1221.48 335.838 1221.48C333.136 1221.48 330.825 1222.34 328.905 1224.04C327.127 1225.68 325.989 1227.99 325.491 1230.98C325.349 1232.9 324.318 1233.86 322.398 1233.86L293.705 1233.64C291.785 1233.64 290.825 1232.68 290.825 1230.76C291.678 1219.17 296.229 1209.93 304.478 1203.03C312.798 1196.06 323.322 1192.58 336.051 1192.58L335.945 1192.47ZM333.598 1293.16C337.296 1293.16 340.567 1291.95 343.411 1289.54C346.469 1286.98 347.998 1283.63 347.998 1279.51V1268.31C347.998 1267.53 347.607 1267.14 346.825 1267.14H337.011C332.745 1267.14 329.225 1268.42 326.451 1270.98C323.891 1273.32 322.611 1276.67 322.611 1281C322.611 1284.99 323.571 1288.01 325.491 1290.07C327.625 1292.13 330.327 1293.16 333.598 1293.16ZM441.972 1319.19C427.963 1319.19 416.905 1315.63 408.798 1308.52C400.763 1301.27 396.745 1291.46 396.745 1279.08V1232.68C396.745 1220.59 400.763 1210.89 408.798 1203.56C416.905 1196.24 427.927 1192.58 441.865 1192.58C455.945 1192.58 466.967 1196.13 474.932 1203.24C483.038 1210.43 487.092 1219.78 487.092 1231.3V1235.56C487.092 1236.35 486.772 1237.06 486.132 1237.7C485.705 1238.19 485.065 1238.44 484.212 1238.44L456.265 1239.62C454.345 1239.62 453.385 1238.66 453.385 1236.74V1233.86C453.385 1230.37 452.318 1227.42 450.185 1225C448.052 1222.66 445.314 1221.48 441.972 1221.48C438.416 1221.48 435.607 1222.76 433.545 1225.32C431.483 1227.88 430.452 1231.23 430.452 1235.35V1276.42C430.452 1280.54 431.518 1283.88 433.652 1286.44C435.714 1289 438.487 1290.28 441.972 1290.28C445.314 1290.28 448.016 1289.07 450.078 1286.66C452.283 1284.17 453.385 1281.25 453.385 1277.91V1274.71C453.385 1274 453.634 1273.36 454.132 1272.79C454.843 1272.22 455.554 1271.94 456.265 1271.94L484.212 1272.15C485.065 1272.15 485.705 1272.47 486.132 1273.11C486.843 1273.54 487.198 1274.18 487.198 1275.03V1280.47C487.198 1292.27 483.11 1301.7 474.932 1308.74C466.967 1315.71 455.945 1319.19 441.865 1319.19H441.972ZM504.905 1317.27C504.194 1317.27 503.483 1317.02 502.772 1316.52C502.345 1315.88 502.132 1315.17 502.132 1314.39V1153C502.132 1152.22 502.345 1151.58 502.772 1151.08C503.483 1150.44 504.194 1150.12 504.905 1150.12H532.959C533.67 1150.12 534.274 1150.44 534.772 1151.08C535.483 1151.58 535.839 1152.22 535.839 1153V1232.04C535.839 1232.75 535.981 1233.18 536.265 1233.32C536.55 1233.32 536.87 1233.07 537.225 1232.58L558.025 1196.52C558.665 1195.24 559.839 1194.6 561.545 1194.6H590.345C591.412 1194.6 592.123 1194.92 592.479 1195.56C592.905 1196.2 592.799 1196.99 592.159 1197.91L566.345 1238.02C566.061 1238.73 565.99 1239.3 566.132 1239.72L595.145 1314.07C595.288 1314.35 595.359 1314.75 595.359 1315.24C595.359 1316.67 594.505 1317.38 592.799 1317.38H563.892C562.256 1317.38 561.19 1316.59 560.692 1315.03L545.439 1267.67C545.296 1267.17 545.083 1266.92 544.799 1266.92C544.443 1266.78 544.194 1266.96 544.052 1267.46L536.159 1279.83C535.803 1280.54 535.625 1281.04 535.625 1281.32V1314.5C535.625 1315.28 535.305 1315.99 534.665 1316.63C534.239 1317.13 533.634 1317.38 532.852 1317.38H504.798L504.905 1317.27Z" fill="black"/>
<path d="M1145.12 203.667C1145.12 214.76 1141.81 223.294 1135.2 229.267C1128.52 235.169 1119.88 238.12 1109.28 238.12H1075.47C1074.83 238.12 1074.29 237.943 1073.87 237.587C1073.51 237.089 1073.33 236.556 1073.33 235.987V115.133C1073.33 114.564 1073.51 114.102 1073.87 113.747C1074.29 113.249 1074.83 113 1075.47 113H1105.33C1117.21 113 1126.49 115.844 1133.17 121.533C1140 127.222 1143.41 135.756 1143.41 147.133C1143.41 158.938 1139.36 167.507 1131.25 172.84C1130.76 173.196 1130.68 173.551 1131.04 173.907C1140.43 180.591 1145.12 190.511 1145.12 203.667ZM1099.36 134.653C1098.79 134.653 1098.51 134.938 1098.51 135.507V163.56C1098.51 164.2 1098.79 164.52 1099.36 164.52H1105.76C1109.88 164.52 1113.08 163.24 1115.36 160.68C1117.56 158.12 1118.67 154.493 1118.67 149.8C1118.67 144.965 1117.56 141.231 1115.36 138.6C1113.23 135.969 1110.03 134.653 1105.76 134.653H1099.36ZM1107.25 216.36C1111.16 216.36 1114.26 214.938 1116.53 212.094C1118.81 209.249 1119.95 205.16 1119.95 199.827C1119.95 194.636 1118.81 190.476 1116.53 187.347C1114.26 184.289 1111.24 182.76 1107.47 182.76H1099.36C1098.79 182.76 1098.51 183.045 1098.51 183.614V215.4C1098.51 216.04 1098.79 216.36 1099.36 216.36H1107.25ZM1189.07 239.614C1178.47 239.614 1170.15 236.911 1164.11 231.507C1158.13 226.174 1155.15 218.849 1155.15 209.534V174.867C1155.15 165.765 1158.17 158.476 1164.21 153C1170.33 147.525 1178.61 144.787 1189.07 144.787C1199.73 144.787 1208.09 147.525 1214.13 153C1220.18 158.476 1223.2 165.765 1223.2 174.867V209.534C1223.2 218.778 1220.18 226.103 1214.13 231.507C1208.16 236.911 1199.8 239.614 1189.07 239.614ZM1189.07 217.747C1191.7 217.747 1193.83 216.787 1195.47 214.867C1197.17 212.947 1198.03 210.529 1198.03 207.614V176.68C1198.03 173.694 1197.21 171.205 1195.57 169.213C1193.87 167.365 1191.73 166.44 1189.17 166.44C1186.47 166.44 1184.3 167.4 1182.67 169.32C1181.1 171.24 1180.32 173.694 1180.32 176.68V207.614C1180.32 210.529 1181.1 212.947 1182.67 214.867C1184.3 216.787 1186.44 217.747 1189.07 217.747ZM1229.6 238.12C1228.82 238.12 1228.25 237.943 1227.89 237.587C1227.61 237.089 1227.64 236.449 1228 235.667L1248.37 192.68C1248.52 192.325 1248.52 191.969 1248.37 191.614L1228.11 148.733C1227.82 148.236 1227.68 147.88 1227.68 147.667C1227.68 146.742 1228.32 146.28 1229.6 146.28H1252.53C1253.74 146.28 1254.56 146.813 1254.99 147.88L1263.84 168.147C1264.2 168.858 1264.55 168.858 1264.91 168.147L1273.65 147.88C1274.08 146.813 1274.9 146.28 1276.11 146.28H1298.83C1299.68 146.28 1300.21 146.493 1300.43 146.92C1300.78 147.276 1300.78 147.88 1300.43 148.733L1280.05 191.614C1279.91 191.969 1279.91 192.325 1280.05 192.68L1300.43 235.667C1300.64 236.094 1300.75 236.449 1300.75 236.734C1300.75 237.658 1300.11 238.12 1298.83 238.12H1276.11C1274.83 238.12 1274.01 237.587 1273.65 236.52L1264.91 215.614C1264.55 214.689 1264.2 214.689 1263.84 215.614L1254.99 236.52C1254.63 237.587 1253.81 238.12 1252.53 238.12H1229.6Z" fill="black"/>
<path d="M924.959 2187.78V2273.11H3612.97V2187.78M2290.3 2273.11V2401.11" stroke="black" stroke-width="5.33335"/>
<path d="M2105.12 2549.7C2098.22 2549.7 2092.14 2548.31 2086.88 2545.54C2081.62 2542.84 2077.57 2539.03 2074.72 2534.13C2071.88 2529.15 2070.46 2523.42 2070.46 2516.95V2511.73C2070.46 2511.16 2070.63 2510.7 2070.99 2510.34C2071.42 2509.84 2071.95 2509.59 2072.59 2509.59H2093.18C2093.74 2509.59 2094.21 2509.84 2094.56 2510.34C2095.06 2510.7 2095.31 2511.16 2095.31 2511.73V2515.67C2095.31 2519.37 2096.23 2522.36 2098.08 2524.63C2100 2526.91 2102.38 2528.05 2105.23 2528.05C2108.07 2528.05 2110.49 2526.98 2112.48 2524.85C2114.33 2522.71 2115.26 2519.9 2115.26 2516.42C2115.26 2512.86 2114.08 2509.81 2111.74 2507.25C2109.32 2504.69 2104.7 2500.88 2097.87 2495.83C2091.82 2491.57 2086.95 2487.76 2083.26 2484.42C2079.56 2481.08 2076.43 2476.95 2073.87 2472.05C2071.24 2467.21 2069.92 2461.56 2069.92 2455.09C2069.92 2444.99 2073.05 2436.88 2079.31 2430.77C2085.71 2424.72 2094.06 2421.7 2104.38 2421.7C2114.9 2421.7 2123.29 2424.86 2129.55 2431.19C2135.95 2437.45 2139.15 2445.74 2139.15 2456.05V2460.31C2139.15 2460.88 2138.94 2461.42 2138.51 2461.91C2138.15 2462.27 2137.69 2462.45 2137.12 2462.45H2116.54C2115.97 2462.45 2115.43 2462.27 2114.94 2461.91C2114.58 2461.42 2114.4 2460.88 2114.4 2460.31V2455.41C2114.4 2451.78 2113.44 2448.86 2111.52 2446.66C2109.74 2444.46 2107.36 2443.35 2104.38 2443.35C2101.53 2443.35 2099.22 2444.42 2097.44 2446.55C2095.66 2448.54 2094.78 2451.39 2094.78 2455.09C2094.78 2458.64 2095.88 2461.81 2098.08 2464.58C2100.36 2467.35 2104.84 2471.16 2111.52 2475.99C2118.92 2481.47 2124.46 2485.95 2128.16 2489.43C2132 2492.78 2134.92 2496.51 2136.91 2500.63C2139.04 2504.69 2140.11 2509.59 2140.11 2515.35C2140.11 2525.81 2136.91 2534.16 2130.51 2540.42C2124.11 2546.61 2115.65 2549.7 2105.12 2549.7ZM2163.79 2446.02C2159.74 2446.02 2156.36 2444.7 2153.66 2442.07C2151.02 2439.3 2149.71 2435.89 2149.71 2431.83C2149.71 2427.71 2151.02 2424.33 2153.66 2421.7C2156.22 2419.07 2159.59 2417.75 2163.79 2417.75C2167.98 2417.75 2171.33 2419.07 2173.82 2421.7C2176.45 2424.33 2177.76 2427.71 2177.76 2431.83C2177.76 2435.89 2176.45 2439.3 2173.82 2442.07C2171.18 2444.7 2167.84 2446.02 2163.79 2446.02ZM2153.66 2548.21C2153.02 2548.21 2152.45 2548.03 2151.95 2547.67C2151.59 2547.25 2151.42 2546.71 2151.42 2546.07V2458.61C2151.42 2458.04 2151.59 2457.58 2151.95 2457.22C2152.45 2456.72 2153.02 2456.47 2153.66 2456.47H2174.56C2175.13 2456.47 2175.59 2456.72 2175.95 2457.22C2176.45 2457.58 2176.7 2458.04 2176.7 2458.61V2546.18C2176.7 2546.82 2176.45 2547.35 2175.95 2547.78C2175.59 2548.14 2175.13 2548.31 2174.56 2548.31H2153.55L2153.66 2548.21ZM2230.67 2425.22C2230.67 2424.65 2230.85 2424.19 2231.2 2423.83C2231.63 2423.34 2232.16 2423.09 2232.8 2423.09H2253.71C2254.28 2423.09 2254.74 2423.34 2255.1 2423.83C2255.59 2424.19 2255.84 2424.65 2255.84 2425.22V2546.07C2255.84 2546.71 2255.59 2547.25 2255.1 2547.67C2254.74 2548.03 2254.28 2548.21 2253.71 2548.21H2232.8C2232.16 2548.21 2231.63 2548.03 2231.2 2547.67C2230.85 2547.25 2230.67 2546.71 2230.67 2546.07V2543.19C2230.67 2542.84 2230.53 2542.66 2230.24 2542.66C2230.03 2542.59 2229.78 2542.66 2229.5 2542.87C2225.51 2547.42 2220.18 2549.7 2213.5 2549.7C2205.25 2549.7 2199.02 2547.07 2194.83 2541.81C2190.7 2536.47 2188.64 2529.08 2188.64 2519.62V2484.95C2188.64 2475.28 2190.7 2467.89 2194.83 2462.77C2199.1 2457.5 2205.32 2454.87 2213.5 2454.87C2216.13 2454.87 2218.87 2455.44 2221.71 2456.58C2224.55 2457.5 2227.15 2459.28 2229.5 2461.91C2229.78 2462.13 2230.03 2462.23 2230.24 2462.23C2230.53 2462.09 2230.67 2461.84 2230.67 2461.49V2425.22ZM2222.14 2528.05C2224.27 2528.05 2226.15 2527.34 2227.79 2525.91C2229.35 2524.49 2230.31 2522.57 2230.67 2520.15V2484.42C2230.31 2482 2229.35 2480.08 2227.79 2478.66C2226.23 2477.24 2224.38 2476.53 2222.24 2476.53C2219.75 2476.53 2217.73 2477.49 2216.16 2479.41C2214.6 2481.33 2213.82 2483.78 2213.82 2486.77V2517.81C2213.82 2520.79 2214.6 2523.28 2216.16 2525.27C2217.73 2527.12 2219.75 2528.05 2222.24 2528.05H2222.14ZM2335.84 2507.99C2335.84 2508.63 2335.59 2509.17 2335.1 2509.59C2334.74 2509.95 2334.24 2510.13 2333.6 2510.13H2294.35C2293.71 2510.13 2293.39 2510.45 2293.39 2511.09V2517.7C2293.39 2520.69 2294.17 2523.18 2295.74 2525.17C2297.44 2527.09 2299.54 2528.05 2302.03 2528.05C2304.31 2528.05 2306.15 2527.34 2307.58 2525.91C2309 2524.35 2309.96 2522.43 2310.46 2520.15C2310.81 2518.94 2311.56 2518.34 2312.7 2518.34L2333.28 2519.41C2333.85 2519.41 2334.31 2519.66 2334.67 2520.15C2335.17 2520.51 2335.35 2521.04 2335.2 2521.75C2334.42 2531 2331.22 2537.97 2325.6 2542.66C2320.13 2547.35 2312.27 2549.7 2302.03 2549.7C2291.36 2549.7 2283.08 2547.07 2277.18 2541.81C2271.2 2536.47 2268.22 2529.08 2268.22 2519.62V2484.95C2268.22 2475.92 2271.2 2468.67 2277.18 2463.19C2283.22 2457.65 2291.51 2454.87 2302.03 2454.87C2312.48 2454.87 2320.7 2457.65 2326.67 2463.19C2332.79 2468.67 2335.84 2475.92 2335.84 2484.95V2507.99ZM2302.03 2476.53C2299.54 2476.53 2297.44 2477.49 2295.74 2479.41C2294.17 2481.33 2293.39 2483.78 2293.39 2486.77V2493.7C2293.39 2494.34 2293.71 2494.66 2294.35 2494.66H2309.71C2310.28 2494.66 2310.56 2494.34 2310.56 2493.7V2486.77C2310.56 2483.78 2309.75 2481.33 2308.11 2479.41C2306.55 2477.49 2304.52 2476.53 2302.03 2476.53ZM2389.71 2454.87C2397.82 2454.87 2403.93 2457.5 2408.06 2462.77C2412.32 2467.89 2414.46 2475.28 2414.46 2484.95V2519.62C2414.46 2529.08 2412.39 2536.47 2408.27 2541.81C2404.15 2547.07 2397.96 2549.7 2389.71 2549.7C2383.03 2549.7 2377.66 2547.42 2373.6 2542.87C2373.39 2542.66 2373.14 2542.59 2372.86 2542.66C2372.64 2542.66 2372.54 2542.84 2372.54 2543.19V2546.07C2372.54 2546.71 2372.29 2547.25 2371.79 2547.67C2371.43 2548.03 2370.97 2548.21 2370.4 2548.21H2349.5C2348.86 2548.21 2348.32 2548.03 2347.9 2547.67C2347.54 2547.25 2347.36 2546.71 2347.36 2546.07V2425.22C2347.36 2424.65 2347.54 2424.19 2347.9 2423.83C2348.32 2423.34 2348.86 2423.09 2349.5 2423.09H2370.4C2370.97 2423.09 2371.43 2423.34 2371.79 2423.83C2372.29 2424.19 2372.54 2424.65 2372.54 2425.22V2461.49C2372.54 2461.77 2372.64 2461.91 2372.86 2461.91C2373.35 2461.91 2373.85 2461.59 2374.35 2460.95C2378.4 2456.9 2383.52 2454.87 2389.71 2454.87ZM2389.39 2486.77C2389.39 2483.78 2388.61 2481.33 2387.04 2479.41C2385.48 2477.49 2383.45 2476.53 2380.96 2476.53C2378.83 2476.53 2376.98 2477.24 2375.42 2478.66C2373.85 2480.08 2372.89 2482 2372.54 2484.42V2520.15C2372.89 2522.57 2373.85 2524.49 2375.42 2525.91C2376.98 2527.34 2378.83 2528.05 2380.96 2528.05C2383.45 2528.05 2385.48 2527.09 2387.04 2525.17C2388.61 2523.25 2389.39 2520.79 2389.39 2517.81V2486.77ZM2459.79 2454.87C2469.96 2454.87 2478.21 2457.65 2484.54 2463.19C2490.87 2468.67 2494.03 2475.85 2494.03 2484.74V2546.07C2494.03 2546.71 2493.78 2547.25 2493.28 2547.67C2492.93 2548.03 2492.43 2548.21 2491.79 2548.21H2470.88C2470.31 2548.21 2469.78 2548.03 2469.28 2547.67C2468.93 2547.25 2468.75 2546.71 2468.75 2546.07V2542.13C2468.75 2541.77 2468.64 2541.56 2468.43 2541.49C2468.22 2541.34 2467.97 2541.45 2467.68 2541.81C2463.77 2546.78 2457.73 2549.42 2449.55 2549.7C2442.58 2549.7 2436.54 2547.78 2431.42 2543.94C2426.44 2540.1 2423.95 2532.85 2423.95 2522.18C2423.95 2511.09 2426.97 2503.44 2433.02 2499.25C2439.2 2495.05 2448.09 2492.95 2459.68 2492.95H2467.9C2468.47 2492.95 2468.75 2492.67 2468.75 2492.1V2487.62C2468.75 2484.42 2467.86 2481.79 2466.08 2479.73C2464.45 2477.59 2462.31 2476.53 2459.68 2476.53C2457.62 2476.53 2455.88 2477.2 2454.46 2478.55C2453.18 2479.69 2452.36 2481.4 2452 2483.67C2451.86 2485.1 2451.08 2485.81 2449.66 2485.81L2428.22 2485.7C2426.79 2485.7 2426.08 2484.99 2426.08 2483.57C2426.65 2474.82 2430.03 2467.89 2436.22 2462.77C2442.4 2457.5 2450.26 2454.87 2459.79 2454.87ZM2458.08 2530.18C2460.79 2530.18 2463.2 2529.29 2465.34 2527.51C2467.61 2525.59 2468.75 2523.1 2468.75 2520.05V2511.51C2468.75 2510.94 2468.47 2510.66 2467.9 2510.66H2460.54C2457.34 2510.66 2454.71 2511.62 2452.64 2513.54C2450.79 2515.32 2449.87 2517.81 2449.87 2521.01C2449.87 2523.99 2450.58 2526.27 2452 2527.83C2453.5 2529.4 2455.52 2530.18 2458.08 2530.18ZM2547.68 2455.3C2550.88 2455.3 2553.37 2455.9 2555.15 2457.11C2556.15 2457.68 2556.5 2458.57 2556.22 2459.78L2552.8 2480.69C2552.73 2481.97 2551.91 2482.43 2550.35 2482.07C2549 2481.58 2547.4 2481.33 2545.55 2481.33C2543.77 2481.33 2542.21 2481.58 2540.86 2482.07C2538.15 2482.57 2535.95 2484.24 2534.24 2487.09C2532.61 2489.86 2531.79 2493.06 2531.79 2496.69V2545.86C2531.79 2546.5 2531.54 2547.07 2531.04 2547.57C2530.69 2547.92 2530.19 2548.1 2529.55 2548.1H2508.75C2508.18 2548.1 2507.65 2547.92 2507.15 2547.57C2506.79 2547.07 2506.62 2546.5 2506.62 2545.86V2458.61C2506.62 2458.04 2506.79 2457.58 2507.15 2457.22C2507.65 2456.72 2508.18 2456.47 2508.75 2456.47H2529.66C2530.3 2456.47 2530.79 2456.72 2531.15 2457.22C2531.65 2457.58 2531.9 2458.04 2531.9 2458.61V2465.54L2532 2466.5C2532.29 2466.5 2532.54 2466.32 2532.75 2465.97C2535.95 2458.86 2540.93 2455.3 2547.68 2455.3Z" fill="black"/>
<path d="M4142.67 1319.19C4128.31 1319.19 4116.75 1314.96 4108.01 1306.5C4099.4 1297.96 4095.1 1286.51 4095.1 1272.15V1194.6C4095.1 1180.38 4099.37 1169.07 4107.9 1160.68C4116.72 1152.22 4128.31 1147.99 4142.67 1147.99C4157.11 1147.99 4168.63 1152.22 4177.23 1160.68C4186.05 1169.15 4190.46 1180.45 4190.46 1194.6V1197.27C4190.46 1197.98 4190.11 1198.69 4189.4 1199.4C4188.97 1199.83 4188.36 1200.04 4187.58 1200.04L4159.63 1201.32C4157.71 1201.32 4156.75 1200.43 4156.75 1198.66V1192.47C4156.75 1187.85 4155.47 1184.08 4152.91 1181.16C4150.35 1178.32 4146.94 1176.9 4142.67 1176.9C4138.48 1176.9 4135.1 1178.32 4132.54 1181.16C4130.05 1184.01 4128.81 1187.78 4128.81 1192.47V1274.92C4128.81 1279.55 4130.05 1283.28 4132.54 1286.12C4135.1 1288.83 4138.48 1290.18 4142.67 1290.18C4146.94 1290.18 4150.35 1288.83 4152.91 1286.12C4155.47 1283.28 4156.75 1279.55 4156.75 1274.92V1268.52C4156.75 1267.67 4156.97 1266.99 4157.39 1266.5C4158.11 1265.86 4158.82 1265.54 4159.53 1265.54L4187.58 1266.71C4188.29 1266.71 4188.93 1267.07 4189.5 1267.78C4190.14 1268.2 4190.46 1268.81 4190.46 1269.59V1272.04C4190.46 1286.34 4186.05 1297.79 4177.23 1306.39C4168.49 1314.92 4156.97 1319.19 4142.67 1319.19ZM4249.02 1319.19C4234.8 1319.19 4223.64 1315.63 4215.53 1308.52C4207.56 1301.27 4203.58 1291.46 4203.58 1279.08V1232.68C4203.58 1220.59 4207.64 1210.89 4215.74 1203.56C4223.85 1196.24 4234.94 1192.58 4249.02 1192.58C4263.17 1192.58 4274.3 1196.24 4282.41 1203.56C4290.52 1210.89 4294.57 1220.59 4294.57 1232.68V1279.08C4294.57 1291.46 4290.52 1301.23 4282.41 1308.42C4274.44 1315.6 4263.32 1319.19 4249.02 1319.19ZM4249.02 1290.07C4252.51 1290.07 4255.35 1288.79 4257.56 1286.23C4259.83 1283.67 4260.97 1280.4 4260.97 1276.42V1235.14C4260.97 1231.15 4259.83 1227.88 4257.56 1225.32C4255.35 1222.76 4252.51 1221.48 4249.02 1221.48C4245.47 1221.48 4242.59 1222.76 4240.38 1225.32C4238.25 1227.88 4237.18 1231.15 4237.18 1235.14V1276.42C4237.18 1280.4 4238.25 1283.67 4240.38 1286.23C4242.59 1288.79 4245.43 1290.07 4248.92 1290.07H4249.02ZM4334.04 1317.27C4332.26 1317.27 4331.12 1316.49 4330.62 1314.92L4301.82 1197.38V1196.31C4301.82 1194.89 4302.68 1194.18 4304.38 1194.18H4335.21C4337.13 1194.18 4338.16 1195.07 4338.3 1196.84L4349.29 1262.55C4349.43 1263.05 4349.68 1263.3 4350.04 1263.3C4350.32 1263.3 4350.53 1263.05 4350.68 1262.55L4361.45 1196.84C4361.59 1195.07 4362.66 1194.18 4364.65 1194.18L4395.37 1194.71C4397.64 1194.71 4398.53 1195.74 4398.04 1197.8L4369.34 1314.92C4368.84 1316.49 4367.74 1317.27 4366.04 1317.27H4334.04ZM4495.96 1263.51C4495.96 1264.29 4495.64 1265 4495 1265.64C4494.57 1266.14 4493.93 1266.39 4493.08 1266.39H4440.6C4439.74 1266.39 4439.32 1266.78 4439.32 1267.56V1276.42C4439.32 1280.4 4440.38 1283.74 4442.52 1286.44C4444.65 1289 4447.42 1290.28 4450.84 1290.28C4453.82 1290.28 4456.31 1289.32 4458.3 1287.4C4460.15 1285.34 4461.4 1282.78 4462.04 1279.72C4462.53 1278.16 4463.6 1277.38 4465.24 1277.38L4492.65 1278.76C4493.43 1278.76 4494.07 1279.12 4494.57 1279.83C4495.21 1280.26 4495.46 1280.97 4495.32 1281.96C4494.18 1294.19 4489.88 1303.51 4482.41 1309.91C4475.08 1316.1 4464.56 1319.19 4450.84 1319.19C4436.61 1319.19 4425.52 1315.71 4417.56 1308.74C4409.59 1301.55 4405.61 1291.67 4405.61 1279.08V1232.68C4405.61 1220.59 4409.59 1210.89 4417.56 1203.56C4425.73 1196.24 4436.83 1192.58 4450.84 1192.58C4464.84 1192.58 4475.83 1196.24 4483.8 1203.56C4491.9 1210.89 4495.96 1220.59 4495.96 1232.68V1263.62V1263.51ZM4450.84 1221.48C4447.49 1221.48 4444.68 1222.76 4442.41 1225.32C4440.35 1227.88 4439.32 1231.15 4439.32 1235.14V1244.42C4439.32 1245.2 4439.74 1245.59 4440.6 1245.59H4461.08C4461.86 1245.59 4462.25 1245.2 4462.25 1244.42V1235.14C4462.25 1231.15 4461.15 1227.88 4458.94 1225.32C4456.81 1222.76 4454.11 1221.48 4450.84 1221.48ZM4566.36 1193C4570.62 1193 4573.96 1193.82 4576.38 1195.46C4577.66 1196.17 4578.16 1197.34 4577.88 1198.98L4573.29 1226.92C4573.15 1228.7 4572.04 1229.34 4569.98 1228.84C4568.2 1228.2 4566.07 1227.88 4563.58 1227.88C4561.16 1227.88 4559.07 1228.24 4557.29 1228.95C4553.59 1229.52 4550.64 1231.72 4548.44 1235.56C4546.23 1239.26 4545.13 1243.56 4545.13 1248.47V1314.18C4545.13 1314.96 4544.77 1315.67 4544.06 1316.31C4543.64 1316.81 4543.03 1317.06 4542.25 1317.06H4514.3C4513.52 1317.06 4512.81 1316.81 4512.17 1316.31C4511.67 1315.67 4511.42 1314.96 4511.42 1314.18V1197.38C4511.42 1196.52 4511.67 1195.88 4512.17 1195.46C4512.81 1194.75 4513.52 1194.39 4514.3 1194.39H4542.25C4543.03 1194.39 4543.67 1194.75 4544.17 1195.46C4544.81 1195.88 4545.13 1196.52 4545.13 1197.38V1206.66C4545.13 1207.3 4545.2 1207.69 4545.34 1207.83C4545.63 1207.83 4545.95 1207.58 4546.3 1207.08C4550.57 1197.7 4557.25 1193 4566.36 1193Z" fill="black"/>
</g>
<defs>
<clipPath id="clip0_2112_87">
<rect width="4498.7" height="2436.7" fill="white" transform="translate(113 113)"/>
</clipPath>
</defs>
</svg>
