<svg width="643" height="389" viewBox="0 0 643 389" fill="none" xmlns="http://www.w3.org/2000/svg">
<rect width="642.6" height="388.9" fill="white"/>
<g clip-path="url(#clip0_2113_91)">
<path d="M18 370.7L15 367.7L18 364.7C21 361.7 21 361.7 21.7 362.5C22.5 363.3 22.5 363.3 20.7 365.1L19 366.9H255.8L254 365L252.2 363.2L253.2 362.2L254 361.4L257 364.4C260.4 367.8 260.5 367.1 256.3 371.1C254.1 373.3 254 373.3 253.3 372.6L252.4 371.8L253.7 370.5L255 369.2H19.8L21.2 370.6C22.5 372 22.5 372 21.7 372.8C21 373.6 20.9 373.5 18 370.6V370.7ZM385 369.9L382 366.9L385.1 363.8L388.2 360.7L389.1 361.6L390 362.5L388.2 364.3L386.4 366.1H623.2L621.5 364.3C619.7 362.5 619.7 362.5 620.5 361.7C621.2 360.8 621.2 360.8 624.1 363.7C625.7 365.3 627.1 366.7 627.1 366.9L624.1 369.9C621.3 372.9 621.3 372.9 620.5 372.1C619.7 371.3 619.7 371.3 621.1 369.9L622.4 368.5H387.3L388.5 369.8C389.7 371 389.7 371.1 389.1 372C388.8 372.5 388.4 372.9 388.3 372.9L385 369.9ZM293.6 368.7V367.3H309.9V370.1H293.6V368.7ZM313 369.8C312.8 369.7 312.7 369 312.7 368.4V367.2L321 367.4H329.3V369.9H321.3C318.534 370.041 315.762 370.007 313 369.8ZM332.3 368.7V367.3H348.7V370.1H332.3V368.7ZM293.6 362.1V360.9H309.9V363.3H293.6V362V362.1ZM312.7 362.1V360.9H329.5V363.3H312.7V362V362.1ZM332.3 362.1V360.9H348.7V363.3H332.3V362V362.1ZM15.2 175.6V15H260V336H15.2V175.6ZM257.6 175.6V17.4H17.6V333.7H257.6V175.6ZM44.7 175.6V148.8H98.7V202.3H44.7V175.6ZM110.7 175.6V148.8H164V202.3H110.6V175.6H110.7ZM176.5 175.6V148.8H230V202.3H176.5V175.6ZM382.2 175.6V15H627V336H382.2V175.6ZM624.6 175.6V17.4H384.6V333.7H624.6V175.6ZM474.1 308.7C474.1 306.8 474.1 306.5 474.9 306.5C475.6 306.5 475.7 306.8 475.7 308.7C475.7 310.6 475.6 310.9 474.9 310.9C474.2 310.9 474.1 310.7 474.1 308.7ZM474.3 301.9L474.1 299.5C474.1 297.6 474.1 297.4 474.9 297.4C475.6 297.4 475.7 297.6 475.7 299.8C475.7 301.5 475.5 302.2 475.1 302.2L474.3 301.9ZM474.1 290.6C474.1 288.4 474.1 288.2 474.9 288.2C475.6 288.2 475.7 288.4 475.7 290.6C475.7 292.8 475.6 293 474.9 293C474.2 293 474.1 292.7 474.1 290.6ZM474.1 281.6C474.1 279.6 474.1 279.4 474.9 279.4C475.6 279.4 475.7 279.7 475.7 281.6C475.7 283.5 475.6 283.8 474.9 283.8C474.2 283.8 474.1 283.5 474.1 281.6ZM474.1 272.6C474.1 270.5 474.1 270.2 474.9 270.2C475.6 270.2 475.7 270.5 475.7 272.6C475.7 274.7 475.6 275 474.9 275C474.2 275 474.1 274.7 474.1 272.6ZM474.1 263.4C474.1 261.3 474.1 261 474.9 261C475.6 261 475.7 261.3 475.7 263.4C475.7 265.5 475.6 265.8 474.9 265.8C474.2 265.8 474.1 265.5 474.1 263.4ZM474.1 254.4C474.1 252.5 474.1 252.2 474.9 252.2C475.6 252.2 475.7 252.5 475.7 254.4C475.7 256.3 475.6 256.6 474.9 256.6C474.2 256.6 474.1 256.4 474.1 254.4ZM474.1 245.4C474.1 243.4 474.1 243 474.9 243C475.6 243 475.7 243.3 475.7 245.4C475.7 247.5 475.6 247.8 474.9 247.8C474.2 247.8 474.1 247.6 474.1 245.4ZM474.1 236.3C474.1 234.1 474.1 233.9 474.9 233.9C475.6 233.9 475.7 234.1 475.7 236.3C475.7 238.5 475.6 238.7 474.9 238.7C474.2 238.7 474.1 238.4 474.1 236.3ZM474.1 227.3C474.1 225.3 474.1 225.1 474.9 225.1C475.6 225.1 475.7 225.3 475.7 227.3C475.7 229.3 475.6 229.5 474.9 229.5C474.2 229.5 474.1 229.2 474.1 227.3ZM474.1 218.3C474.1 216.2 474.1 215.9 474.9 215.9C475.6 215.9 475.7 216.2 475.7 218.3C475.7 220.4 475.6 220.7 474.9 220.7C474.2 220.7 474.1 220.4 474.1 218.3ZM474.1 209.1C474.1 207 474.1 206.7 474.9 206.7C475.6 206.7 475.7 207 475.7 209.1C475.7 211.2 475.6 211.5 474.9 211.5C474.2 211.5 474.1 211.2 474.1 209.1ZM474.1 200.1C474.1 198.1 474.1 197.9 474.9 197.9C475.6 197.9 475.7 198.2 475.7 200.1C475.7 202 475.6 202.3 474.9 202.3C474.2 202.3 474.1 202 474.1 200.1ZM496.8 175.5V148.8H524.8V202.3H496.8V175.5ZM538.4 175.5V148.8H565.9V202.3H538.4V175.5ZM578.4 175.5V148.8H605.9V202.3H578.3V175.5H578.4ZM474 191.1C474 189 474 188.7 474.8 188.7C475.5 188.7 475.6 189 475.6 191.1C475.6 193.2 475.5 193.5 474.8 193.5C474.1 193.5 474 193.3 474 191.1ZM474 181.9C474 179.9 474 179.5 474.8 179.5C475.5 179.5 475.6 179.8 475.6 181.9C475.6 184.1 475.5 184.3 474.8 184.3C474.1 184.3 474 184.1 474 181.9ZM474 172.9C474 171 474 170.8 474.8 170.8C475.5 170.8 475.6 171 475.6 173C475.6 174.9 475.5 175.1 474.8 175.1C474.1 175.1 474 174.9 474 173V172.9ZM474 163.9C474 161.9 474 161.6 474.8 161.6C475.5 161.6 475.6 161.8 475.6 164C475.6 166 475.5 166.4 474.8 166.4C474.1 166.4 474 166.1 474 164V163.9ZM474 154.8C474 152.6 474 152.4 474.8 152.4C475.5 152.4 475.6 152.6 475.6 154.8C475.6 157 475.5 157.2 474.8 157.2C474.1 157.2 474 156.9 474 154.8ZM474 145.8C474 143.8 474 143.6 474.8 143.6C475.5 143.6 475.6 143.9 475.6 145.8C475.6 147.7 475.5 148 474.8 148C474.1 148 474 147.7 474 145.8ZM474 136.8C474 134.7 474 134.4 474.8 134.4C475.5 134.4 475.6 134.7 475.6 136.8C475.6 138.9 475.5 139.2 474.8 139.2C474.1 139.2 474 138.9 474 136.8ZM474 127.8C474.2 125.9 474.3 125.4 474.9 125.3C475.5 125.2 475.6 125.5 475.6 127.6C475.6 129.8 475.5 130 474.8 130C474 130 474 129.8 474.1 127.7L474 127.8ZM474 118.6C474 116.7 474 116.4 474.8 116.4C475.5 116.4 475.6 116.7 475.6 118.6C475.6 120.6 475.5 120.8 474.8 120.8C474.1 120.8 474 120.6 474 118.6ZM474 109.6C474 107.6 474 107.3 474.8 107.3C475.5 107.3 475.6 107.5 475.6 109.6C475.6 111.8 475.5 112 474.8 112C474.1 112 474 111.8 474 109.6ZM474 100.6C474.2 98.8 474.3 98.2 474.9 98.1C475.5 98.1 475.6 98.3 475.6 100.4C475.6 102.6 475.5 102.9 474.8 102.9C474 102.9 474 102.6 474.1 100.6H474ZM474 91.5C474 89.5 474 89.3 474.8 89.3C475.5 89.3 475.6 89.5 475.6 91.5C475.6 93.5 475.5 93.7 474.8 93.7C474.1 93.7 474 93.4 474 91.5ZM474 82.5C474 80.4 474 80.1 474.8 80.1C475.5 80.1 475.6 80.4 475.6 82.5C475.6 84.6 475.5 84.9 474.8 84.9C474.1 84.9 474 84.6 474 82.5ZM474 73.5C474 71.5 474 71.3 474.8 71.3C475.5 71.3 475.6 71.6 475.6 73.5C475.6 75.4 475.5 75.7 474.8 75.7C474.1 75.7 474 75.4 474 73.5ZM474 64.3C474 62.3 474 62.1 474.8 62.1C475.5 62.1 475.6 62.4 475.6 64.3C475.6 66.2 475.5 66.5 474.8 66.5C474.1 66.5 474 66.2 474 64.3ZM474 55.3C474 53.2 474 52.9 474.8 52.9C475.5 52.9 475.6 53.2 475.6 55.3C475.6 57.5 475.5 57.7 474.8 57.7C474.1 57.7 474 57.5 474 55.3ZM474 46.3C474 44.4 474 44.1 474.8 44.1C475.5 44.1 475.6 44.4 475.6 46.3C475.6 48.3 475.5 48.5 474.8 48.5C474.1 48.5 474 48.3 474 46.3Z" fill="black"/>
</g>
<defs>
<clipPath id="clip0_2113_91">
<rect width="612" height="358.3" fill="white" transform="translate(15 15)"/>
</clipPath>
</defs>
</svg>
