<svg viewBox="0 0 48 48" xmlns="http://www.w3.org/2000/svg">
		<defs>
		<style>
			path {
				fill: hsl(0 0% 40%);
			}

			@media (prefers-color-scheme: dark) {
				path {
					fill: hsl(0 0% 80%);
				}
			}
		</style>
	</defs>
	<path d="M48 6.47405L44.9158 8.83327L44.241 8.69365C44.0176 8.64743 43.7852 8.67897 43.5822 8.78302L37.2083 12.0504L32.6571 14.3791L27.228 13.8735C27.0685 13.8587 26.9077 13.8824 26.7593 13.9426L23.123 15.4181C23.0495 15.448 22.9797 15.4865 22.9153 15.5328L20.521 17.2537C20.504 17.266 20.4874 17.2787 20.4712 17.292L17.7029 19.5583L15.4942 15.8267C15.2237 15.3696 14.6429 15.2038 14.1718 15.4491L10.2498 17.4916L4.83183 18.6366C4.61147 18.6832 4.41329 18.8027 4.26937 18.976L2.6481 20.9277L1.34258 20.1702C1.07555 20.0152 0.751928 19.9923 0.46573 20.1081C0.272221 20.1863 0.110492 20.3221 0 20.4936V25.3904L4.25057 29.4968C4.44153 29.6813 4.69803 29.7822 4.96351 29.7774L7.15342 29.7377L9.74848 31.3688C10.0845 31.58 10.5136 31.5725 10.8421 31.3497L12.9212 29.9391L13.0055 30.1577C13.1127 30.4352 13.3379 30.6507 13.6199 30.7455C13.902 30.8403 14.2116 30.8045 14.4646 30.6479L14.884 30.3885L17.2695 32.7119C17.5103 32.9465 17.8529 33.0443 18.1813 32.9724L20.8119 32.3959L24.9527 32.667L30.3634 35.1529C30.711 35.3126 31.1191 35.2601 31.4149 35.0176L35.7969 31.4252L36.1473 31.6545L38.0604 35.3653C38.3077 35.845 38.8911 36.042 39.3785 35.8103L39.4714 35.7661L39.7743 36.2544C39.8536 36.3823 39.9608 36.4906 40.0878 36.5713L45.7984 40.1992C46.066 40.3692 46.3984 40.4022 46.6942 40.2882L48 39.7851V37.6418L46.4454 38.2408L41.3532 35.0057L40.6994 33.9519C40.431 33.5192 39.8803 33.3573 39.4204 33.5759L39.3944 33.5883L37.8042 30.5037C37.725 30.3502 37.6074 30.2197 37.4628 30.1251L36.2778 29.3498C35.9124 29.1108 35.4341 29.1365 35.0963 29.4133L30.6304 33.0746L25.6199 30.7725C25.5089 30.7215 25.3896 30.6913 25.2677 30.6833L20.8014 30.3909C20.7077 30.3848 20.6137 30.3919 20.522 30.412L18.2792 30.9035L16.6369 29.3039L19.9585 27.2486L20.1957 27.5963C20.484 28.0189 21.0449 28.1557 21.4955 27.9133L25.2405 25.8988L30.4348 24.5047L32.539 25.6666C32.7958 25.8084 33.1019 25.8303 33.3762 25.7265C33.6506 25.6227 33.8655 25.4037 33.9642 25.1274L35.3292 21.3035L39.2661 19.4568L41.9563 21.2892C41.9911 21.3129 42.0273 21.3344 42.0648 21.3535L47.206 23.9765C47.4575 24.1048 47.745 24.1183 48 24.0263V21.4178L47.4965 21.8794L43.03 19.6007L39.9207 17.4828C39.6285 17.2838 39.253 17.2538 38.933 17.4039L34.1028 19.6696C33.8614 19.7828 33.6753 19.9877 33.5856 20.2388L32.476 23.3472L31.0486 22.5589C30.8221 22.4338 30.5559 22.4014 30.306 22.4685L24.6099 23.9973C24.5353 24.0173 24.4633 24.0459 24.3953 24.0824L21.3406 25.7257L21.0717 25.3315C20.7702 24.8896 20.1743 24.7632 19.7194 25.0446L15.1602 27.8656L14.6174 27.3369C14.4331 27.1574 14.1941 27.0615 13.9513 27.0538L13.9308 27.0008C13.8366 26.7567 13.6505 26.5593 13.4124 26.4508L7.61746 23.8111L4.40252 21.9457L5.58559 20.5215L10.7972 19.4201C10.886 19.4014 10.9718 19.3706 11.0523 19.3287L14.2555 17.6605L16.5749 21.579C16.7234 21.83 16.974 22.0036 17.2611 22.0544C17.5483 22.1052 17.8433 22.0282 18.0689 21.8434L21.7138 18.8594L23.9857 17.2265L27.2853 15.8875L32.7611 16.3974C32.9502 16.415 33.1403 16.3784 33.3094 16.292L38.1207 13.8302L44.1809 10.7236L44.9579 10.8843C45.242 10.9431 45.5376 10.8756 45.768 10.6994L48 8.99207V6.47405ZM2.73556 23.9523L3.10642 23.5059L6.65627 25.5657C6.68462 25.5821 6.71377 25.5972 6.7436 25.6108L12.1253 28.0622L10.2598 29.3279L7.96541 27.8858C7.80077 27.7823 7.60953 27.7291 7.4151 27.7326L5.34189 27.7702L1.86246 24.4088L2.29603 24.2574C2.46753 24.1975 2.61948 24.0921 2.73556 23.9523Z" fill="hsl(0 0% 40%)"/>
</svg>
